<svg width="24" height="24" viewBox="0 0 24 24" fill="none" xmlns="http://www.w3.org/2000/svg">
<path d="M2.40039 7.0079V6.2399C2.40039 4.11913 4.11962 2.3999 6.24039 2.3999H7.00839M16.9924 2.3999L17.7604 2.3999C19.8812 2.3999 21.6004 4.11913 21.6004 6.2399V7.0079M5.85639 18.9119L3.16839 21.5999M20.8324 21.5999L18.1444 18.9119M15.0004 12.5999H9.00039M20.4484 12.7679C20.4484 17.4336 16.6661 21.2159 12.0004 21.2159C7.33469 21.2159 3.55239 17.4336 3.55239 12.7679C3.55239 8.1022 7.33469 4.3199 12.0004 4.3199C16.6661 4.3199 20.4484 8.1022 20.4484 12.7679Z" stroke="black" stroke-width="2" stroke-linecap="round"/>
</svg>
