<svg width="24" height="24" viewBox="0 0 24 24" fill="none" xmlns="http://www.w3.org/2000/svg">
<path d="M2.40039 7.0079V6.2399C2.40039 5.37527 2.68616 4.57738 3.16839 3.93553M16.9924 2.3999L17.7604 2.3999C19.8812 2.3999 21.6004 4.11913 21.6004 6.2399V7.0079M5.85639 18.9119L3.16839 21.5999M20.8324 21.5999L3.55239 3.49759M9.60039 4.66568C10.3612 4.44067 11.1667 4.3199 12.0004 4.3199C16.6661 4.3199 20.4484 8.1022 20.4484 12.7679C20.4484 14.1049 20.1378 15.3693 19.5849 16.4929M17.7604 18.9478C16.2514 20.3549 14.2264 21.2159 12.0004 21.2159C7.33469 21.2159 3.55239 17.4336 3.55239 12.7679C3.55239 10.5419 4.41335 8.51693 5.82045 7.0079" stroke="black" stroke-width="2" stroke-linecap="round" stroke-linejoin="round"/>
</svg>
