<svg width="24" height="24" viewBox="0 0 24 24" fill="none" xmlns="http://www.w3.org/2000/svg">
<path d="M1.40039 7.0079C1.40039 7.56019 1.84811 8.0079 2.40039 8.0079C2.95268 8.0079 3.40039 7.56019 3.40039 7.0079H2.40039H1.40039ZM7.00839 3.3999C7.56067 3.3999 8.00839 2.95219 8.00839 2.3999C8.00839 1.84762 7.56067 1.3999 7.00839 1.3999V2.3999V3.3999ZM16.9924 1.3999C16.4401 1.3999 15.9924 1.84762 15.9924 2.3999C15.9924 2.95219 16.4401 3.3999 16.9924 3.3999V2.3999V1.3999ZM17.7604 2.3999V1.3999V2.3999ZM21.6004 6.2399H20.6004V6.2399H21.6004ZM20.6004 7.0079C20.6004 7.56019 21.0481 8.0079 21.6004 8.0079C22.1527 8.0079 22.6004 7.56019 22.6004 7.0079H21.6004H20.6004ZM6.5635 19.619C6.95402 19.2285 6.95402 18.5953 6.5635 18.2048C6.17297 17.8143 5.53981 17.8143 5.14928 18.2048L5.85639 18.9119L6.5635 19.619ZM2.46128 20.8928C2.07076 21.2833 2.07076 21.9165 2.46128 22.307C2.85181 22.6975 3.48497 22.6975 3.8755 22.307L3.16839 21.5999L2.46128 20.8928ZM20.1253 22.307C20.5158 22.6975 21.149 22.6975 21.5395 22.307C21.93 21.9165 21.93 21.2833 21.5395 20.8928L20.8324 21.5999L20.1253 22.307ZM18.8515 18.2048C18.461 17.8143 17.8278 17.8143 17.4373 18.2048C17.0468 18.5953 17.0468 19.2285 17.4373 19.619L18.1444 18.9119L18.8515 18.2048ZM13.0004 9.5999C13.0004 9.04762 12.5527 8.5999 12.0004 8.5999C11.4481 8.5999 11.0004 9.04762 11.0004 9.5999H12.0004H13.0004ZM11.0004 15.5999C11.0004 16.1522 11.4481 16.5999 12.0004 16.5999C12.5527 16.5999 13.0004 16.1522 13.0004 15.5999H12.0004H11.0004ZM15.0004 13.5999C15.5527 13.5999 16.0004 13.1522 16.0004 12.5999C16.0004 12.0476 15.5527 11.5999 15.0004 11.5999V12.5999V13.5999ZM9.00039 11.5999C8.4481 11.5999 8.00039 12.0476 8.00039 12.5999C8.00039 13.1522 8.4481 13.5999 9.00039 13.5999V12.5999V11.5999ZM2.40039 7.0079H3.40039V6.2399H2.40039H1.40039V7.0079H2.40039ZM6.24039 2.3999V3.3999H7.00839V2.3999V1.3999H6.24039V2.3999ZM2.40039 6.2399H3.40039C3.40039 4.67141 4.6719 3.3999 6.24039 3.3999V2.3999V1.3999C3.56733 1.3999 1.40039 3.56684 1.40039 6.2399H2.40039ZM16.9924 2.3999V3.3999H17.7604V2.3999V1.3999L16.9924 1.3999V2.3999ZM21.6004 6.2399H20.6004V7.0079H21.6004H22.6004V6.2399H21.6004ZM17.7604 2.3999V3.3999C19.3289 3.3999 20.6004 4.67141 20.6004 6.2399H21.6004H22.6004C22.6004 3.56684 20.4334 1.3999 17.7604 1.3999V2.3999ZM5.85639 18.9119L5.14928 18.2048L2.46128 20.8928L3.16839 21.5999L3.8755 22.307L6.5635 19.619L5.85639 18.9119ZM20.8324 21.5999L21.5395 20.8928L18.8515 18.2048L18.1444 18.9119L17.4373 19.619L20.1253 22.307L20.8324 21.5999ZM20.4484 12.7679H19.4484C19.4484 16.8813 16.1138 20.2159 12.0004 20.2159V21.2159V22.2159C17.2184 22.2159 21.4484 17.9859 21.4484 12.7679H20.4484ZM12.0004 21.2159V20.2159C7.88697 20.2159 4.55239 16.8813 4.55239 12.7679H3.55239H2.55239C2.55239 17.9859 6.7824 22.2159 12.0004 22.2159V21.2159ZM3.55239 12.7679H4.55239C4.55239 8.65448 7.88697 5.3199 12.0004 5.3199V4.3199V3.3199C6.7824 3.3199 2.55239 7.54991 2.55239 12.7679H3.55239ZM12.0004 4.3199V5.3199C16.1138 5.3199 19.4484 8.65448 19.4484 12.7679H20.4484H21.4484C21.4484 7.54991 17.2184 3.3199 12.0004 3.3199V4.3199ZM12.0004 9.5999H11.0004V12.5999H12.0004H13.0004V9.5999H12.0004ZM12.0004 12.5999H11.0004V15.5999H12.0004H13.0004V12.5999H12.0004ZM15.0004 12.5999V11.5999H12.0004V12.5999V13.5999H15.0004V12.5999ZM12.0004 12.5999V11.5999H9.00039V12.5999V13.5999H12.0004V12.5999Z" fill="black"/>
</svg>
