<svg width="24" height="24" viewBox="0 0 24 24" fill="none" xmlns="http://www.w3.org/2000/svg">
<path d="M6.12654 9.91314L17.719 9.91307C19.7769 9.91307 21.4451 8.23122 21.4451 6.15655C21.4451 4.08188 19.7769 2.40002 17.719 2.40002L6.12654 2.4001M6.12654 9.91314C4.06864 9.91314 2.40039 8.23129 2.40039 6.15662C2.40039 4.08195 4.06864 2.4001 6.12654 2.4001M6.12654 9.91314C8.18443 9.91314 9.85268 8.23129 9.85268 6.15662C9.85268 4.08195 8.18443 2.4001 6.12654 2.4001M17.8742 14.087H6.12654C4.06864 14.087 2.40039 15.7688 2.40039 17.8435C2.40039 19.9182 4.06864 21.6 6.12654 21.6H17.8742M17.8742 14.087C19.9321 14.087 21.6004 15.7688 21.6004 17.8435C21.6004 19.9182 19.9321 21.6 17.8742 21.6M17.8742 14.087C15.8164 14.087 14.1481 15.7688 14.1481 17.8435C14.1481 19.9182 15.8164 21.6 17.8742 21.6" stroke="black" stroke-width="2"/>
</svg>
