<svg width="24" height="24" viewBox="0 0 24 24" fill="none" xmlns="http://www.w3.org/2000/svg">
<path d="M6.00039 9.6V13.8M18.0004 9.6V13.8M4.20039 18H19.8004C20.7945 18 21.6004 17.1941 21.6004 16.2V7.8C21.6004 6.80589 20.7945 6 19.8004 6H4.20039C3.20628 6 2.40039 6.80589 2.40039 7.8V16.2C2.40039 17.1941 3.20628 18 4.20039 18ZM14.4004 12C14.4004 13.3255 13.3259 14.4 12.0004 14.4C10.6749 14.4 9.60039 13.3255 9.60039 12C9.60039 10.6745 10.6749 9.6 12.0004 9.6C13.3259 9.6 14.4004 10.6745 14.4004 12Z" stroke="black" stroke-width="2" stroke-linecap="round" stroke-linejoin="round"/>
</svg>
