<svg width="24" height="24" viewBox="0 0 24 24" fill="none" xmlns="http://www.w3.org/2000/svg">
<path d="M2.39941 18.0815L2.39963 6.2576C2.39965 5.58416 3.05184 5.10325 3.69519 5.30229L4.04326 5.40998C6.71526 6.23665 9.60406 6.23665 12.2761 5.40998C15.1969 4.50632 18.3683 4.59282 21.2269 5.65411L21.5997 5.7925L21.5994 18.5749C21.5994 18.7676 21.4073 18.9012 21.2267 18.8341C18.368 17.7728 15.1967 17.6863 12.2758 18.59C9.60381 19.4166 6.71502 19.4166 4.04302 18.59L2.39941 18.0815Z" stroke="black" stroke-width="2" stroke-linejoin="round"/>
<path d="M14.3994 11.99C14.3994 13.3155 13.3249 14.39 11.9994 14.39C10.6739 14.39 9.59941 13.3155 9.59941 11.99C9.59941 10.6645 10.6739 9.58998 11.9994 9.58998C13.3249 9.58998 14.3994 10.6645 14.3994 11.99Z" stroke="black" stroke-width="2" stroke-linejoin="round"/>
</svg>
