<svg width="24" height="24" viewBox="0 0 24 24" fill="none" xmlns="http://www.w3.org/2000/svg">
<path d="M6.00039 6.00009V10.2001M18.0004 6.00009V10.2001M17.4004 14.4001H19.8004C20.7945 14.4001 21.6004 13.5942 21.6004 12.6001V4.20009C21.6004 3.20597 20.7945 2.40009 19.8004 2.40009H4.20039C3.20628 2.40009 2.40039 3.20597 2.40039 4.20009V12.6001C2.40039 13.5942 3.20628 14.4001 4.20039 14.4001H6.60039M8.60532 18.2058L11.9994 21.5999M11.9994 21.5999L15.1649 18.4344M11.9994 21.5999L11.9996 14.6575M14.4004 8.40009C14.4004 9.72557 13.3259 10.8001 12.0004 10.8001C10.6749 10.8001 9.60039 9.72557 9.60039 8.40009C9.60039 7.0746 10.6749 6.00009 12.0004 6.00009C13.3259 6.00009 14.4004 7.0746 14.4004 8.40009Z" stroke="black" stroke-width="2" stroke-linecap="round" stroke-linejoin="round"/>
</svg>
