<svg width="24" height="24" viewBox="0 0 24 24" fill="none" xmlns="http://www.w3.org/2000/svg">
<path d="M6.84152 21.6155L6.34152 20.7495H6.34152L6.84152 21.6155ZM5.99387 20.9781L5.00152 20.8547H5.00152L5.99387 20.9781ZM5.32287 17.4128L4.45075 17.9022L4.45684 17.9128L5.32287 17.4128ZM4.30987 15.6078L5.18199 15.1184L5.1759 15.1078L4.30987 15.6078ZM20.25 13.8741L20.75 14.7401V14.7401L20.25 13.8741ZM20.1349 12.833L20.5425 11.9199L20.5425 11.9199L20.1349 12.833ZM17.4135 10.4322L16.5411 10.9211L16.5475 10.9322L17.4135 10.4322ZM16.4518 8.71606L17.3243 8.22716L17.3179 8.21606L16.4518 8.71606ZM6.82973 6.11328L6.32973 5.24725L6.82973 6.11328ZM13.1863 21.5314L13.6863 22.3974L13.1863 21.5314ZM5.99387 20.9781L6.98622 21.1016C7.1295 19.9497 7.04266 18.3916 6.18889 16.9128L5.32287 17.4128L4.45684 17.9128C5.0314 18.908 5.10853 19.9944 5.00152 20.8547L5.99387 20.9781ZM5.32287 17.4128L6.19492 16.9234L5.18192 15.1184L4.30987 15.6078L3.43782 16.0972L4.45081 17.9022L5.32287 17.4128ZM20.1349 12.833L20.5425 11.9199C19.7638 11.5722 18.8651 10.9464 18.2796 9.93224L17.4135 10.4322L16.5475 10.9322C17.4002 12.4091 18.6809 13.279 19.7272 13.7461L20.1349 12.833ZM17.4135 10.4322L18.2859 9.94338L17.3242 8.2272L16.4518 8.71606L15.5795 9.20491L16.5412 10.9211L17.4135 10.4322ZM16.4518 8.71606L17.3179 8.21606C15.093 4.36246 10.1751 3.02715 6.32973 5.24725L6.82973 6.11328L7.32973 6.9793C10.2107 5.31596 13.9087 6.31126 15.5858 9.21606L16.4518 8.71606ZM20.25 13.8741L20.75 14.7401C21.3914 14.3698 21.5305 13.6867 21.4724 13.2163C21.4145 12.7474 21.1347 12.1842 20.5425 11.9199L20.1349 12.833L19.7272 13.7461C19.5291 13.6577 19.4932 13.5075 19.4875 13.4614C19.4816 13.4138 19.4812 13.1633 19.75 13.0081L20.25 13.8741ZM4.30987 15.6078L5.1759 15.1078C3.52713 12.2521 4.49756 8.61445 7.32973 6.9793L6.82973 6.11328L6.32973 5.24725C2.53322 7.43917 1.24729 12.3033 3.44385 16.1078L4.30987 15.6078ZM6.84152 21.6155L6.34152 20.7495C6.61643 20.5907 6.83441 20.7243 6.86702 20.7495C6.89899 20.7741 7.01366 20.881 6.98622 21.1016L5.99387 20.9781L5.00152 20.8547C4.92015 21.5088 5.27002 22.0433 5.64499 22.3327C6.0206 22.6226 6.68936 22.858 7.34152 22.4815L6.84152 21.6155ZM20.25 13.8741L19.75 13.0081L6.34152 20.7495L6.84152 21.6155L7.34152 22.4815L20.75 14.7401L20.25 13.8741ZM14.4997 17.194L13.6337 17.694C14.1836 18.6464 13.8428 19.9976 12.6863 20.6653L13.1863 21.5314L13.6863 22.3974C15.6924 21.2392 16.5277 18.7066 15.3658 16.694L14.4997 17.194ZM13.1863 21.5314L12.6863 20.6653C11.5298 21.3331 10.1892 20.9526 9.63934 20.0002L8.77332 20.5002L7.90729 21.0002C9.06925 23.0127 11.6802 23.5556 13.6863 22.3974L13.1863 21.5314ZM7.63649 3.10242L6.77046 3.60242C7.10296 4.17833 6.90564 4.91475 6.32973 5.24725L6.82973 6.11328L7.32973 6.9793C8.86223 6.09451 9.3873 4.13492 8.50251 2.60242L7.63649 3.10242ZM6.82973 6.11328L6.32973 5.24725C5.75382 5.57975 5.0174 5.38243 4.6849 4.80652L3.81887 5.30652L2.95285 5.80652C3.83764 7.33902 5.79723 7.86409 7.32973 6.9793L6.82973 6.11328ZM3.81887 5.30652L4.6849 4.80652C4.3524 4.23061 4.54972 3.49419 5.12563 3.16169L4.62563 2.29566L4.12563 1.42964C2.59313 2.31442 2.06806 4.27402 2.95285 5.80652L3.81887 5.30652ZM4.62563 2.29566L5.12563 3.16169C5.70154 2.82918 6.43796 3.02651 6.77046 3.60242L7.63649 3.10242L8.50251 2.60242C7.61772 1.06992 5.65813 0.544848 4.12563 1.42964L4.62563 2.29566Z" fill="black"/>
</svg>
