<svg width="24" height="24" viewBox="0 0 24 24" fill="none" xmlns="http://www.w3.org/2000/svg">
<path d="M7.0895 20.2375H6.58257C5.18272 20.2375 4.04791 19.1027 4.04791 17.7028V12.6335C4.04791 11.8527 2.40039 11.4929 2.40039 11.4929C2.40039 11.4929 4.04791 11.1922 4.04791 10.3523V6.29686C4.04791 4.89701 5.18272 3.76221 6.58257 3.76221H7.0895M16.9113 3.76221H17.4182C18.8181 3.76221 19.9529 4.89701 19.9529 6.29686V11.3662C19.9529 12.147 21.6004 12.5068 21.6004 12.5068C21.6004 12.5068 19.9529 12.8074 19.9529 13.6474L19.9529 17.7028C19.9529 19.1027 18.8181 20.2375 17.4182 20.2375H16.9113M7.80039 12.1622V12.072M12.0004 12.1622V12.072M16.2004 12.1622V12.072" stroke="black" stroke-width="2" stroke-linecap="round" stroke-linejoin="round"/>
</svg>
