<svg width="24" height="24" viewBox="0 0 24 24" fill="none" xmlns="http://www.w3.org/2000/svg">
<path d="M2.40039 18.12H3.40039V5.87998H2.40039H1.40039V18.12H2.40039ZM4.80039 3.47998V4.47998H19.2004V3.47998V2.47998H4.80039V3.47998ZM21.6004 5.87998H20.6004V18.12H21.6004H22.6004V5.87998H21.6004ZM21.6004 18.12H20.6004C20.6004 18.8932 19.9736 19.52 19.2004 19.52V20.52V21.52C21.0782 21.52 22.6004 19.9978 22.6004 18.12H21.6004ZM19.2004 3.47998V4.47998C19.9736 4.47998 20.6004 5.10678 20.6004 5.87998H21.6004H22.6004C22.6004 4.00221 21.0782 2.47998 19.2004 2.47998V3.47998ZM2.40039 5.87998H3.40039C3.40039 5.10678 4.02719 4.47998 4.80039 4.47998V3.47998V2.47998C2.92262 2.47998 1.40039 4.00221 1.40039 5.87998H2.40039ZM4.80039 20.52V19.52C4.02719 19.52 3.40039 18.8932 3.40039 18.12H2.40039H1.40039C1.40039 19.9978 2.92262 21.52 4.80039 21.52V20.52ZM15.6004 12.0001H14.6004C14.6004 13.436 13.4363 14.6001 12.0004 14.6001V15.6001V16.6001C14.5409 16.6001 16.6004 14.5406 16.6004 12.0001H15.6004ZM12.0004 15.6001V14.6001C10.5644 14.6001 9.40039 13.436 9.40039 12.0001H8.40039H7.40039C7.40039 14.5406 9.45988 16.6001 12.0004 16.6001V15.6001ZM8.40039 12.0001H9.40039C9.40039 10.5642 10.5644 9.4001 12.0004 9.4001V8.4001V7.4001C9.45988 7.4001 7.40039 9.45959 7.40039 12.0001H8.40039ZM12.0004 8.4001V9.4001C13.4363 9.4001 14.6004 10.5642 14.6004 12.0001H15.6004H16.6004C16.6004 9.45959 14.5409 7.4001 12.0004 7.4001V8.4001ZM19.2004 20.52V19.52H4.80039V20.52V21.52H19.2004V20.52Z" fill="black"/>
</svg>
