<svg width="24" height="24" viewBox="0 0 24 24" fill="none" xmlns="http://www.w3.org/2000/svg">
<path d="M2.40039 7.97995V17.82C2.40039 19.1454 3.47491 20.22 4.80039 20.22H14.4004M6.00039 5.57995H7.20039L8.88039 2.69995H15.1204L16.8004 5.57995H19.2004C20.5259 5.57995 21.6004 6.65447 21.6004 7.97995V17.82C21.6004 18.7083 21.1177 19.4839 20.4004 19.8989M14.6837 14.7C15.2538 14.063 15.6004 13.222 15.6004 12.3C15.6004 10.3117 13.9886 8.69995 12.0004 8.69995C11.0784 8.69995 10.2373 9.04658 9.60039 9.61662M11.4004 15.8502C9.84314 15.5889 8.62489 14.3279 8.42821 12.7497M21.0004 21.3L3.00039 2.69995" stroke="black" stroke-width="2" stroke-linecap="round" stroke-linejoin="round"/>
</svg>
