<svg width="24" height="24" viewBox="0 0 24 24" fill="none" xmlns="http://www.w3.org/2000/svg">
<path d="M1.50123 15.66L0.501233 15.66L1.50123 15.66ZM1.50098 6.66014L2.50098 6.66011L1.50098 6.66014ZM11.7009 19.0601C12.2532 19.0601 12.7009 18.6124 12.7009 18.0601C12.7009 17.5078 12.2532 17.0601 11.7009 17.0601L11.7009 18.0601L11.7009 19.0601ZM3.90119 18.0599L3.90121 17.0599H3.90121L3.90119 18.0599ZM20.7005 6.65891L19.7005 6.65892V6.65893L20.7005 6.65891ZM2.10051 7.45992C1.54823 7.45992 1.10051 7.90764 1.10051 8.45992C1.10051 9.01221 1.54823 9.45992 2.10051 9.45992V8.45992V7.45992ZM20.1005 9.45992C20.6528 9.45992 21.1005 9.01221 21.1005 8.45992C21.1005 7.90764 20.6528 7.45992 20.1005 7.45992V8.45992V9.45992ZM15.2996 16.8599L14.5924 16.1528C14.4049 16.3404 14.2996 16.5947 14.2996 16.8599H15.2996ZM19.6196 12.5399L20.3267 11.8328C19.9361 11.4423 19.303 11.4423 18.9124 11.8328L19.6196 12.5399ZM22.4996 15.4199L23.2067 16.127C23.3942 15.9395 23.4996 15.6851 23.4996 15.4199C23.4996 15.1547 23.3942 14.9004 23.2067 14.7128L22.4996 15.4199ZM18.1796 19.7399V20.7399C18.4448 20.7399 18.6991 20.6346 18.8867 20.447L18.1796 19.7399ZM15.2996 19.7399H14.2996C14.2996 20.2922 14.7473 20.7399 15.2996 20.7399V19.7399ZM3.90098 4.26007V5.26007H18.3003V4.26007V3.26007H3.90098V4.26007ZM1.50123 15.66L2.50123 15.66L2.50098 6.66011L1.50098 6.66014L0.500977 6.66017L0.501233 15.66L1.50123 15.66ZM11.7009 18.0601L11.7009 17.0601L3.90121 17.0599L3.90119 18.0599L3.90117 19.0599L11.7009 19.0601L11.7009 18.0601ZM20.7005 6.65891L19.7005 6.65893L19.7005 9.06009L20.7005 9.06007L21.7005 9.06005L21.7005 6.65889L20.7005 6.65891ZM3.90098 4.26007V3.26007C2.02317 3.26007 0.500923 4.78236 0.500977 6.66017L1.50098 6.66014L2.50098 6.66011C2.50095 5.8869 3.12776 5.26007 3.90098 5.26007V4.26007ZM18.3003 4.26007V5.26007C19.0743 5.26007 19.7005 5.88635 19.7005 6.65892L20.7005 6.65891L21.7005 6.65891C21.7005 4.78031 20.1774 3.26007 18.3003 3.26007V4.26007ZM1.50123 15.66L0.501233 15.66C0.501287 17.5377 2.02347 19.0599 3.90117 19.0599L3.90119 18.0599L3.90121 17.0599C3.12804 17.0599 2.50126 16.4331 2.50123 15.66L1.50123 15.66ZM2.10051 8.45992V9.45992H20.1005V8.45992V7.45992H2.10051V8.45992ZM15.2996 16.8599L16.0067 17.567L20.3267 13.247L19.6196 12.5399L18.9124 11.8328L14.5924 16.1528L15.2996 16.8599ZM19.6196 12.5399L18.9124 13.247L21.7924 16.127L22.4996 15.4199L23.2067 14.7128L20.3267 11.8328L19.6196 12.5399ZM22.4996 15.4199L21.7924 14.7128L17.4724 19.0328L18.1796 19.7399L18.8867 20.447L23.2067 16.127L22.4996 15.4199ZM18.1796 19.7399V18.7399H15.2996V19.7399V20.7399H18.1796V19.7399ZM15.2996 19.7399H16.2996V16.8599H15.2996H14.2996V19.7399H15.2996Z" fill="black"/>
</svg>
