<svg width="24" height="24" viewBox="0 0 24 24" fill="none" xmlns="http://www.w3.org/2000/svg">
<path d="M11.9997 18.3L4.20002 18.2998C2.87458 18.2998 1.8001 17.2253 1.80006 15.8999L1.7998 6.90004C1.79977 5.57453 2.87429 4.49997 4.1998 4.49997H18.5988C19.9245 4.49997 20.9993 5.57418 20.9993 6.8999L20.9993 8.69997M2.39934 8.69982H20.3993M17.6993 15V14C17.6993 13.1716 18.3709 12.5 19.1993 12.5C20.0278 12.5 20.6993 13.1716 20.6993 14V15.5M17.1993 19.5H21.1993C21.7516 19.5 22.1993 19.0523 22.1993 18.5V16.5C22.1993 15.9477 21.7516 15.5 21.1993 15.5H17.1993C16.6471 15.5 16.1993 15.9477 16.1993 16.5V18.5C16.1993 19.0523 16.6471 19.5 17.1993 19.5Z" stroke="black" stroke-width="2" stroke-linecap="round" stroke-linejoin="round"/>
</svg>
