<svg width="24" height="24" viewBox="0 0 24 24" fill="none" xmlns="http://www.w3.org/2000/svg">
<path d="M2.40039 1.99274C1.84811 1.99274 1.40039 2.44045 1.40039 2.99274C1.40039 3.54502 1.84811 3.99274 2.40039 3.99274V2.99274V1.99274ZM4.69293 2.99274L5.65815 2.73132C5.5401 2.29542 5.14453 1.99274 4.69293 1.99274V2.99274ZM8.4183 16.748L7.45307 17.0094C7.58334 17.4904 8.04786 17.8021 8.54234 17.7402L8.4183 16.748ZM19.881 15.3151L20.005 16.3074C20.4297 16.2543 20.7735 15.9369 20.8602 15.5177L19.881 15.3151ZM21.6004 7.00468L22.5796 7.20728C22.6406 6.91277 22.5657 6.60647 22.3758 6.37325C22.1859 6.14004 21.9011 6.00468 21.6004 6.00468V7.00468ZM5.77949 7.00468L4.81427 7.26609V7.26609L5.77949 7.00468ZM2.40039 2.99274V3.99274H4.69293V2.99274V1.99274H2.40039V2.99274ZM8.4183 16.748L8.54234 17.7402L20.005 16.3074L19.881 15.3151L19.7569 14.3228L8.29427 15.7557L8.4183 16.748ZM19.881 15.3151L20.8602 15.5177L22.5796 7.20728L21.6004 7.00468L20.6211 6.80207L18.9017 15.1125L19.881 15.3151ZM4.69293 2.99274L3.7277 3.25415L4.81427 7.26609L5.77949 7.00468L6.74472 6.74326L5.65815 2.73132L4.69293 2.99274ZM5.77949 7.00468L4.81427 7.26609L7.45307 17.0094L8.4183 16.748L9.38353 16.4865L6.74472 6.74326L5.77949 7.00468ZM21.6004 7.00468V6.00468H5.77949V7.00468V8.00468H21.6004V7.00468ZM12.0004 20.5H11.0004C11.0004 20.7762 10.7765 21 10.5004 21V22V23C11.8811 23 13.0004 21.8807 13.0004 20.5H12.0004ZM10.5004 22V21C10.2242 21 10.0004 20.7762 10.0004 20.5H9.00039H8.00039C8.00039 21.8807 9.11968 23 10.5004 23V22ZM9.00039 20.5H10.0004C10.0004 20.2239 10.2242 20 10.5004 20V19V18C9.11968 18 8.00039 19.1193 8.00039 20.5H9.00039ZM10.5004 19V20C10.7765 20 11.0004 20.2239 11.0004 20.5H12.0004H13.0004C13.0004 19.1193 11.8811 18 10.5004 18V19ZM20.0004 20.5H19.0004C19.0004 20.7762 18.7765 21 18.5004 21V22V23C19.8811 23 21.0004 21.8807 21.0004 20.5H20.0004ZM18.5004 22V21C18.2242 21 18.0004 20.7762 18.0004 20.5H17.0004H16.0004C16.0004 21.8807 17.1197 23 18.5004 23V22ZM17.0004 20.5H18.0004C18.0004 20.2239 18.2242 20 18.5004 20V19V18C17.1197 18 16.0004 19.1193 16.0004 20.5H17.0004ZM18.5004 19V20C18.7765 20 19.0004 20.2239 19.0004 20.5H20.0004H21.0004C21.0004 19.1193 19.8811 18 18.5004 18V19Z" fill="black"/>
</svg>
