<svg width="24" height="24" viewBox="0 0 24 24" fill="none" xmlns="http://www.w3.org/2000/svg">
<path d="M8.39236 10.9583L8.14341 11.9268C8.62729 12.0511 9.12872 11.7993 9.3179 11.3369L8.39236 10.9583ZM3.92036 10.9688C4.13728 11.4767 4.72486 11.7126 5.23277 11.4957C5.74067 11.2788 5.97656 10.6912 5.75964 10.1833L4.84 10.576L3.92036 10.9688ZM6.73675 5.85138L6.34399 4.93174L6.73675 5.85138ZM5.58145 5.69236C5.79837 6.20026 6.38595 6.43615 6.89386 6.21923C7.40176 6.00232 7.63765 5.41473 7.42073 4.90683L6.50109 5.29959L5.58145 5.69236ZM6.71376 3.25148C6.49684 2.74358 5.90926 2.50769 5.40135 2.72461C4.89345 2.94152 4.65756 3.52911 4.87448 4.03701L5.79412 3.64424L6.71376 3.25148ZM9.01694 4.88917C8.81118 5.40169 9.05987 5.98398 9.57239 6.18974C10.0849 6.39549 10.6672 6.14681 10.873 5.63428L9.94495 5.26173L9.01694 4.88917ZM11.5436 3.96387C11.7493 3.45134 11.5006 2.86906 10.9881 2.6633C10.4756 2.45754 9.8933 2.70623 9.68754 3.21875L10.6156 3.59131L11.5436 3.96387ZM2.79454 6.16265C2.28202 5.95689 1.69973 6.20558 1.49398 6.7181C1.28822 7.23063 1.5369 7.81291 2.04943 8.01867L2.42199 7.09066L2.79454 6.16265ZM3.71985 8.68927C4.23237 8.89503 4.81466 8.64635 5.02041 8.13382C5.22617 7.62129 4.97749 7.03901 4.46496 6.83325L4.0924 7.76126L3.71985 8.68927ZM10.0655 7.4018C10.4393 7.80838 11.0719 7.83498 11.4785 7.4612C11.8851 7.08743 11.9117 6.45482 11.5379 6.04824L10.8017 6.72502L10.0655 7.4018ZM21.6004 13.5518H20.6004C20.6004 16.7864 17.9784 19.4089 14.7432 19.4089V20.4089V21.4089C19.0831 21.4089 22.6004 17.8908 22.6004 13.5518H21.6004ZM14.7432 6.69464V7.69464C17.9784 7.69464 20.6004 10.3172 20.6004 13.5518H21.6004H22.6004C22.6004 9.21273 19.0831 5.69464 14.7432 5.69464V6.69464ZM8.39236 10.9583L9.3179 11.3369C10.1927 9.1986 12.2944 7.69464 14.7432 7.69464V6.69464V5.69464C11.4546 5.69464 8.63846 7.71567 7.46681 10.5796L8.39236 10.9583ZM7.20039 10.8089V11.8089C7.52918 11.8089 7.84464 11.85 8.14341 11.9268L8.39236 10.9583L8.6413 9.98974C8.17936 9.871 7.6966 9.80892 7.20039 9.80892V10.8089ZM2.40039 15.6089H3.40039C3.40039 13.51 5.10098 11.8089 7.20039 11.8089V10.8089V9.80892C3.99623 9.80892 1.40039 12.4056 1.40039 15.6089H2.40039ZM7.20039 20.4089V19.4089C5.10098 19.4089 3.40039 17.7078 3.40039 15.6089H2.40039H1.40039C1.40039 18.8122 3.99623 21.4089 7.20039 21.4089V20.4089ZM14.7432 20.4089V19.4089H7.20039V20.4089V21.4089H14.7432V20.4089ZM4.84 10.576L5.75964 10.1833C5.19566 8.86272 5.80897 7.335 7.12952 6.77102L6.73675 5.85138L6.34399 4.93174C4.00763 5.92956 2.92254 8.63244 3.92036 10.9688L4.84 10.576ZM6.50109 5.29959L7.42073 4.90683L6.71376 3.25148L5.79412 3.64424L4.87448 4.03701L5.58145 5.69236L6.50109 5.29959ZM9.94495 5.26173L10.873 5.63428L11.5436 3.96387L10.6156 3.59131L9.68754 3.21875L9.01694 4.88917L9.94495 5.26173ZM2.42199 7.09066L2.04943 8.01867L3.71985 8.68927L4.0924 7.76126L4.46496 6.83325L2.79454 6.16265L2.42199 7.09066ZM6.73675 5.85138L7.12952 6.77102C8.16916 6.327 9.33968 6.61225 10.0655 7.4018L10.8017 6.72502L11.5379 6.04824C10.2564 4.65426 8.18734 4.14447 6.34399 4.93174L6.73675 5.85138Z" fill="black"/>
</svg>
