<svg width="24" height="24" viewBox="0 0 24 24" fill="none" xmlns="http://www.w3.org/2000/svg">
<path d="M10.1998 7.8C10.7455 5.39521 12.8961 3.6 15.466 3.6C18.4483 3.6 20.866 6.01766 20.866 9C20.866 11.7625 18.7916 14.0405 16.1155 14.3613M6.5998 6L8.9998 3.6L6.5998 1.2M1.7998 8.4V6.8C1.7998 5.03269 3.23249 3.6 4.9998 3.6H7.39981M17.3998 18L14.9998 20.4L17.3998 22.8M22.1998 15.6V17.2C22.1998 18.9673 20.7671 20.4 18.9998 20.4H16.5998M12.5998 16.2C12.5998 19.1823 10.1821 21.6 7.1998 21.6C4.21747 21.6 1.7998 19.1823 1.7998 16.2C1.7998 13.2177 4.21747 10.8 7.1998 10.8C10.1821 10.8 12.5998 13.2177 12.5998 16.2Z" stroke="black" stroke-width="2" stroke-linecap="round" stroke-linejoin="round"/>
</svg>
