<svg width="24" height="24" viewBox="0 0 24 24" fill="none" xmlns="http://www.w3.org/2000/svg">
<path d="M5.19961 9.44326C3.06822 10.4819 1.59961 12.6694 1.59961 15.1999C1.59961 18.7345 4.46499 21.5999 7.99961 21.5999C11.5342 21.5999 14.3996 18.7345 14.3996 15.1999C14.3996 14.9289 14.3828 14.6619 14.3501 14.3999M12.3996 20.4922C13.4253 21.1912 14.6647 21.5999 15.9996 21.5999C19.5342 21.5999 22.3996 18.7345 22.3996 15.1999C22.3996 12.4503 20.6657 10.1058 18.2317 9.1999M18.3996 8.7999C18.3996 12.3345 15.5342 15.1999 11.9996 15.1999C8.46499 15.1999 5.59961 12.3345 5.59961 8.7999C5.59961 5.26528 8.46499 2.3999 11.9996 2.3999C15.5342 2.3999 18.3996 5.26528 18.3996 8.7999Z" stroke="black" stroke-width="2"/>
</svg>
