<svg width="24" height="24" viewBox="0 0 24 24" fill="none" xmlns="http://www.w3.org/2000/svg">
<path d="M5.8913 18.0198H7.05494M16.364 13.3653H19.2731C20.5584 13.3653 21.6004 14.4072 21.6004 15.6926V19.1835C21.6004 20.4688 20.5584 21.5107 19.2731 21.5107H7.05494M11.1277 6.74824L14.7048 3.17114C15.6136 2.26229 17.0872 2.26229 17.996 3.17114L20.4645 5.63959C21.3733 6.54845 21.3733 8.02199 20.4645 8.93085L10.5458 18.8495M4.72766 21.5107H8.21857C9.50389 21.5107 10.5458 20.4688 10.5458 19.1835V5.21983C10.5458 3.93451 9.50389 2.89256 8.21857 2.89256H4.72766C3.44235 2.89256 2.40039 3.93451 2.40039 5.21983V19.1835C2.40039 20.4688 3.44235 21.5107 4.72766 21.5107Z" stroke="black" stroke-width="2" stroke-linecap="round" stroke-linejoin="round"/>
</svg>
