<svg width="24" height="24" viewBox="0 0 24 24" fill="none" xmlns="http://www.w3.org/2000/svg">
<path d="M15.6004 16.1088C15.0412 16.3651 14.4333 16.4978 13.8182 16.4978C13.2031 16.4978 12.5952 16.3651 12.036 16.1088C11.4515 15.907 10.8301 15.8344 10.2147 15.8959C9.5994 15.9575 9.00471 16.1517 8.47168 16.4653C8.85337 16.3331 9.18984 16.0956 9.44216 15.7803C9.69447 15.4649 9.85232 15.0845 9.89742 14.6831V9.33654C9.90118 8.71201 10.1099 8.106 10.4914 7.61158C10.873 7.11715 11.4064 6.76168 12.0095 6.59975C12.6127 6.43782 13.2524 6.4784 13.8303 6.71525C14.4081 6.9521 14.8923 7.37212 15.2083 7.9108M13.3905 12.188H8.40039M21.6004 12C21.6004 17.3019 17.3023 21.6 12.0004 21.6C6.69846 21.6 2.40039 17.3019 2.40039 12C2.40039 6.69807 6.69846 2.4 12.0004 2.4C17.3023 2.4 21.6004 6.69807 21.6004 12Z" stroke="black" stroke-width="2" stroke-linecap="round" stroke-linejoin="round"/>
</svg>
