<svg width="24" height="24" viewBox="0 0 24 24" fill="none" xmlns="http://www.w3.org/2000/svg">
<path d="M15.0004 8.62333C14.4193 7.95913 13.6831 7.50985 12.8841 7.33183C12.0851 7.15381 11.2588 7.25497 10.5088 7.62263C9.75886 7.99028 9.11864 8.60807 8.66842 9.39852C8.21821 10.189 7.97804 11.1169 7.97804 12.066C7.97804 13.015 8.21821 13.9429 8.66842 14.7334C9.11864 15.5238 9.75886 16.1416 10.5088 16.5093C11.2588 16.8769 12.0851 16.9781 12.8841 16.8001C13.6831 16.6221 14.4193 16.1728 15.0004 15.5086M12.1086 10.6889H6.60039M6.60039 13.443H12.1086M21.6004 12C21.6004 17.302 17.3023 21.6 12.0004 21.6C6.69846 21.6 2.40039 17.302 2.40039 12C2.40039 6.69809 6.69846 2.40002 12.0004 2.40002C17.3023 2.40002 21.6004 6.69809 21.6004 12Z" stroke="black" stroke-width="2" stroke-linecap="round" stroke-linejoin="round"/>
</svg>
