<svg width="24" height="24" viewBox="0 0 24 24" fill="none" xmlns="http://www.w3.org/2000/svg">
<path d="M13.8754 9.98259C14.056 10.5045 14.6255 10.7812 15.1474 10.6006C15.6693 10.42 15.946 9.85049 15.7654 9.32857L14.8204 9.65558L13.8754 9.98259ZM13.2004 8.43336L13.2443 7.43432C13.2297 7.43368 13.215 7.43336 13.2004 7.43336V8.43336ZM10.8004 12.1V13.1V12.1ZM13.2004 15.7667V16.7667V15.7667ZM10.8004 15.7667L10.7565 16.7657C10.7711 16.7664 10.7857 16.7667 10.8004 16.7667V15.7667ZM10.1254 14.2175C9.94481 13.6955 9.3753 13.4188 8.85338 13.5994C8.33146 13.78 8.05477 14.3496 8.23537 14.8715L9.18039 14.5445L10.1254 14.2175ZM13.0004 6.60002C13.0004 6.04774 12.5527 5.60002 12.0004 5.60002C11.4481 5.60002 11.0004 6.04774 11.0004 6.60002H12.0004H13.0004ZM11.0004 8.43336C11.0004 8.98564 11.4481 9.43336 12.0004 9.43336C12.5527 9.43336 13.0004 8.98564 13.0004 8.43336H12.0004H11.0004ZM13.0004 15.7667C13.0004 15.2144 12.5527 14.7667 12.0004 14.7667C11.4481 14.7667 11.0004 15.2144 11.0004 15.7667H12.0004H13.0004ZM11.0004 17.6C11.0004 18.1523 11.4481 18.6 12.0004 18.6C12.5527 18.6 13.0004 18.1523 13.0004 17.6H12.0004H11.0004ZM14.8204 9.65558L15.7654 9.32857C15.5817 8.79776 15.2453 8.33215 14.7964 7.99351L14.1941 8.79179L13.5919 9.59008C13.7204 9.68707 13.8202 9.82313 13.8754 9.98259L14.8204 9.65558ZM14.1941 8.79179L14.7964 7.99351C14.3473 7.65469 13.8068 7.45906 13.2443 7.43432L13.2004 8.43336L13.1565 9.43239C13.3119 9.43922 13.4636 9.49327 13.5919 9.59008L14.1941 8.79179ZM13.2004 8.43336V7.43336H10.8004V8.43336V9.43336H13.2004V8.43336ZM10.8004 8.43336V7.43336C10.0518 7.43336 9.33766 7.73641 8.81403 8.26974L9.5276 8.97033L10.2412 9.67092C10.3927 9.51661 10.5942 9.43336 10.8004 9.43336V8.43336ZM9.5276 8.97033L8.81403 8.26974C8.29101 8.80244 8.00039 9.5211 8.00039 10.2667H9.00039H10.0004C10.0004 10.0398 10.089 9.82585 10.2412 9.67092L9.5276 8.97033ZM9.00039 10.2667H8.00039C8.00039 11.0123 8.29101 11.7309 8.81403 12.2636L9.5276 11.5631L10.2412 10.8625C10.089 10.7075 10.0004 10.4936 10.0004 10.2667H9.00039ZM9.5276 11.5631L8.81403 12.2636C9.33766 12.797 10.0518 13.1 10.8004 13.1V12.1V11.1C10.5942 11.1 10.3927 11.0168 10.2412 10.8625L9.5276 11.5631ZM10.8004 12.1V13.1H13.2004V12.1V11.1H10.8004V12.1ZM13.2004 12.1V13.1C13.4066 13.1 13.6081 13.1833 13.7596 13.3376L14.4732 12.637L15.1867 11.9364C14.6631 11.4031 13.949 11.1 13.2004 11.1V12.1ZM14.4732 12.637L13.7596 13.3376C13.9117 13.4925 14.0004 13.7065 14.0004 13.9334H15.0004H16.0004C16.0004 13.1878 15.7098 12.4691 15.1867 11.9364L14.4732 12.637ZM15.0004 13.9334H14.0004C14.0004 14.1602 13.9117 14.3742 13.7596 14.5291L14.4732 15.2297L15.1867 15.9303C15.7098 15.3976 16.0004 14.6789 16.0004 13.9334H15.0004ZM14.4732 15.2297L13.7596 14.5291C13.6081 14.6834 13.4066 14.7667 13.2004 14.7667V15.7667V16.7667C13.949 16.7667 14.6631 16.4636 15.1867 15.9303L14.4732 15.2297ZM13.2004 15.7667V14.7667H10.8004V15.7667V16.7667H13.2004V15.7667ZM10.8004 15.7667L10.8443 14.7677C10.6889 14.7608 10.5372 14.7068 10.4089 14.61L9.80663 15.4082L9.20435 16.2065C9.65344 16.5454 10.1939 16.741 10.7565 16.7657L10.8004 15.7667ZM9.80663 15.4082L10.4089 14.61C10.2803 14.513 10.1806 14.3769 10.1254 14.2175L9.18039 14.5445L8.23537 14.8715C8.41904 15.4023 8.75549 15.8679 9.20435 16.2065L9.80663 15.4082ZM12.0004 6.60002H11.0004V8.43336H12.0004H13.0004V6.60002H12.0004ZM12.0004 15.7667H11.0004V17.6H12.0004H13.0004V15.7667H12.0004ZM21.6004 12H20.6004C20.6004 16.7497 16.75 20.6 12.0004 20.6V21.6V22.6C17.8546 22.6 22.6004 17.8542 22.6004 12H21.6004ZM12.0004 21.6V20.6C7.25074 20.6 3.40039 16.7497 3.40039 12H2.40039H1.40039C1.40039 17.8542 6.14617 22.6 12.0004 22.6V21.6ZM2.40039 12H3.40039C3.40039 7.25037 7.25074 3.40002 12.0004 3.40002V2.40002V1.40002C6.14617 1.40002 1.40039 6.14581 1.40039 12H2.40039ZM12.0004 2.40002V3.40002C16.75 3.40002 20.6004 7.25037 20.6004 12H21.6004H22.6004C22.6004 6.14581 17.8546 1.40002 12.0004 1.40002V2.40002Z" fill="black"/>
</svg>
