<svg width="24" height="24" viewBox="0 0 24 24" fill="none" xmlns="http://www.w3.org/2000/svg">
<path d="M8.40039 8.0193H13.7851C14.3207 8.0193 14.8343 8.23204 15.213 8.61073C15.5916 8.98941 15.8044 9.50302 15.8044 10.0386C15.8044 10.5741 15.5916 11.0877 15.213 11.4664C14.8343 11.8451 14.3207 12.0578 13.7851 12.0578M13.7851 12.0578C14.3207 12.0578 14.8343 12.2706 15.213 12.6493C15.5916 13.028 15.8044 13.5416 15.8044 14.0771C15.8044 14.6127 15.5916 15.1263 15.213 15.505C14.8343 15.8836 14.3207 16.0964 13.7851 16.0964H8.40039M13.7851 12.0578H9.74657M9.74657 8.0193V16.0964M10.4197 6.00002V8.0193M13.112 6.00002V8.0193M10.4197 16.0964V18.1157M13.112 16.0964V18.1157M21.6004 12C21.6004 17.302 17.3023 21.6 12.0004 21.6C6.69846 21.6 2.40039 17.302 2.40039 12C2.40039 6.69809 6.69846 2.40002 12.0004 2.40002C17.3023 2.40002 21.6004 6.69809 21.6004 12Z" stroke="black" stroke-width="2" stroke-linecap="round" stroke-linejoin="round"/>
</svg>
