<svg width="24" height="24" viewBox="0 0 24 24" fill="none" xmlns="http://www.w3.org/2000/svg">
<path d="M11.7016 6.19183V7.59283M11.7016 15.9988V17.3998M21.6004 12C21.6004 17.3019 17.3023 21.6 12.0004 21.6C6.69846 21.6 2.40039 17.3019 2.40039 12C2.40039 6.69806 6.69846 2.39999 12.0004 2.39999C17.3023 2.39999 21.6004 6.69806 21.6004 12ZM9.60011 7.59283H13.1026C13.66 7.59283 14.1945 7.81424 14.5886 8.20834C14.9827 8.60245 15.2041 9.13698 15.2041 9.69433V9.7945C15.2041 10.3253 14.9933 10.8343 14.6179 11.2097C14.2426 11.585 13.7336 11.7958 13.2028 11.7958H9.60011H13.1026C13.66 11.7958 14.1945 12.0172 14.5886 12.4113C14.9827 12.8054 15.2041 13.34 15.2041 13.8973V13.9975C15.2041 14.5283 14.9933 15.0373 14.6179 15.4127C14.2426 15.788 13.7336 15.9988 13.2028 15.9988H9.60011V7.59283Z" stroke="black" stroke-width="2" stroke-linecap="round" stroke-linejoin="round"/>
</svg>
