<svg width="24" height="24" viewBox="0 0 24 24" fill="none" xmlns="http://www.w3.org/2000/svg">
<path d="M15.6004 7.79999H8.40039H10.364C11.0584 7.79999 11.7244 8.08897 12.2154 8.60336C12.7064 9.11774 12.9822 9.8154 12.9822 10.5428C12.9822 11.2703 12.7064 11.968 12.2154 12.4823C11.7244 12.9967 11.0584 13.2857 10.364 13.2857H8.40039L12.3277 17.4M8.40039 10.5428H15.6004M21.6004 12C21.6004 17.3019 17.3023 21.6 12.0004 21.6C6.69846 21.6 2.40039 17.3019 2.40039 12C2.40039 6.69806 6.69846 2.39999 12.0004 2.39999C17.3023 2.39999 21.6004 6.69806 21.6004 12Z" stroke="black" stroke-width="2" stroke-linecap="round" stroke-linejoin="round"/>
</svg>
