<svg width="24" height="24" viewBox="0 0 24 24" fill="none" xmlns="http://www.w3.org/2000/svg">
<path d="M15.0005 8.68901C14.166 7.93469 13.0809 7.51773 11.956 7.51922M11.956 7.51922C11.3579 7.51962 10.7657 7.63782 10.2133 7.86708C9.66085 8.09634 9.15898 8.43216 8.73634 8.85537C8.31369 9.27858 7.97854 9.7809 7.75002 10.3336C7.5215 10.8864 7.40409 11.4787 7.40448 12.0768C7.40448 14.5941 9.44173 16.6344 11.956 16.6344M11.956 7.51922L11.9568 6.00002M11.956 16.6344C13.0794 16.636 14.1633 16.2202 14.9974 15.4677M11.956 16.6344L11.9568 18.1536M21.6004 12C21.6004 17.302 17.3023 21.6 12.0004 21.6C6.69846 21.6 2.40039 17.302 2.40039 12C2.40039 6.69809 6.69846 2.40002 12.0004 2.40002C17.3023 2.40002 21.6004 6.69809 21.6004 12Z" stroke="black" stroke-width="2" stroke-linecap="round" stroke-linejoin="round"/>
</svg>
