<svg width="24" height="24" viewBox="0 0 24 24" fill="none" xmlns="http://www.w3.org/2000/svg">
<path d="M17.0502 18.4651C16.2658 18.8247 15.4131 19.0108 14.5502 19.0108C13.6873 19.0108 12.8346 18.8247 12.0502 18.4651C11.2302 18.1821 10.3585 18.0802 9.49533 18.1665C8.63213 18.2528 7.79792 18.5253 7.0502 18.9651C7.58562 18.7798 8.05762 18.4466 8.41156 18.0042C8.76551 17.5618 8.98693 17.0282 9.0502 16.4651V8.96512C9.05547 8.08905 9.34823 7.23894 9.88348 6.54538C10.4187 5.85182 11.1669 5.35316 12.013 5.12602C12.8591 4.89887 13.7564 4.95579 14.5671 5.28804C15.3777 5.62029 16.0569 6.20948 16.5002 6.96512M13.9502 12.9651H6.9502" stroke="black" stroke-width="2" stroke-linecap="round" stroke-linejoin="round"/>
</svg>
