<svg width="24" height="24" viewBox="0 0 24 24" fill="none" xmlns="http://www.w3.org/2000/svg">
<path d="M9.32766 16.8V7.2H13.9095C14.5171 7.2 15.0998 7.41673 15.5294 7.80252C15.959 8.18831 16.2004 8.71155 16.2004 9.25714C16.2004 9.80273 15.959 10.326 15.5294 10.7118C15.0998 11.0975 14.5171 11.3143 13.9095 11.3143H7.80039M13.9095 14.0571H7.80039M21.6004 12C21.6004 17.3019 17.3023 21.6 12.0004 21.6C6.69846 21.6 2.40039 17.3019 2.40039 12C2.40039 6.69806 6.69846 2.39999 12.0004 2.39999C17.3023 2.39999 21.6004 6.69806 21.6004 12Z" stroke="black" stroke-width="2" stroke-linecap="round" stroke-linejoin="round"/>
</svg>
