<svg width="24" height="24" viewBox="0 0 24 24" fill="none" xmlns="http://www.w3.org/2000/svg">
<path d="M17.7599 4.3199C17.7599 5.38029 18.6195 6.2399 19.6799 6.2399C20.7403 6.2399 21.5999 5.38029 21.5999 4.3199C21.5999 3.25952 20.7403 2.3999 19.6799 2.3999C18.6195 2.3999 17.7599 3.25952 17.7599 4.3199ZM17.7599 4.3199H6.59941M17.7599 19.6799C17.7599 20.7403 18.6195 21.5999 19.6799 21.5999C20.7403 21.5999 21.5999 20.7403 21.5999 19.6799C21.5999 18.6195 20.7403 17.7599 19.6799 17.7599C18.6195 17.7599 17.7599 18.6195 17.7599 19.6799ZM17.7599 19.6799H12.2399C11.7097 19.6799 11.2799 19.2501 11.2799 18.7199V5.2799M17.3999 11.9999H11.3999M21.5999 11.9999C21.5999 13.0603 20.7403 13.9199 19.6799 13.9199C18.6195 13.9199 17.7599 13.0603 17.7599 11.9999C17.7599 10.9395 18.6195 10.0799 19.6799 10.0799C20.7403 10.0799 21.5999 10.9395 21.5999 11.9999ZM6.23941 4.3199C6.23941 5.38029 5.3798 6.2399 4.31941 6.2399C3.25903 6.2399 2.39941 5.38029 2.39941 4.3199C2.39941 3.25952 3.25903 2.3999 4.31941 2.3999C5.3798 2.3999 6.23941 3.25952 6.23941 4.3199Z" stroke="black" stroke-width="2" stroke-linecap="round"/>
</svg>
