<svg width="24" height="24" viewBox="0 0 24 24" fill="none" xmlns="http://www.w3.org/2000/svg">
<path d="M6.24039 11.9999C6.24039 13.0603 5.38078 13.9199 4.32039 13.9199C3.26 13.9199 2.40039 13.0603 2.40039 11.9999C2.40039 10.9395 3.26 10.0799 4.32039 10.0799C5.38078 10.0799 6.24039 10.9395 6.24039 11.9999ZM6.24039 11.9999H17.7604M17.7604 11.9999C17.7604 13.0603 18.62 13.9199 19.6804 13.9199C20.7408 13.9199 21.6004 13.0603 21.6004 11.9999C21.6004 10.9395 20.7408 10.0799 19.6804 10.0799C18.62 10.0799 17.7604 10.9395 17.7604 11.9999ZM17.7604 4.3199C17.7604 5.38029 18.62 6.2399 19.6804 6.2399C20.7408 6.2399 21.6004 5.38029 21.6004 4.3199C21.6004 3.25952 20.7408 2.3999 19.6804 2.3999C18.62 2.3999 17.7604 3.25952 17.7604 4.3199ZM17.7604 4.3199H12.2404C11.7102 4.3199 11.2804 4.74971 11.2804 5.2799V18.7199C11.2804 19.2501 11.7102 19.6799 12.2404 19.6799H17.7604M17.7604 19.6799C17.7604 20.7403 18.62 21.5999 19.6804 21.5999C20.7408 21.5999 21.6004 20.7403 21.6004 19.6799C21.6004 18.6195 20.7408 17.7599 19.6804 17.7599C18.62 17.7599 17.7604 18.6195 17.7604 19.6799Z" stroke="black" stroke-width="2" stroke-linecap="round"/>
</svg>
