<svg width="24" height="24" viewBox="0 0 24 24" fill="none" xmlns="http://www.w3.org/2000/svg">
<path d="M8.40039 15.6L15.6004 8.4M8.95429 8.94934L8.94014 8.93505M15.0648 15.1227L15.0507 15.1084M7.92325 4.38733L6.90534 4.44932C5.5839 4.5298 4.53019 5.58351 4.44971 6.90495L4.38772 7.92286C4.35215 8.50677 4.12218 9.06197 3.73444 9.5L3.05851 10.2636C2.18102 11.2549 2.18102 12.7451 3.05851 13.7364L3.73444 14.5C4.12218 14.938 4.35215 15.4932 4.38772 16.0771L4.44971 17.095C4.53019 18.4165 5.5839 19.4702 6.90534 19.5507L7.92325 19.6127C8.50716 19.6482 9.06236 19.8782 9.50039 20.2659L10.264 20.9419C11.2553 21.8194 12.7455 21.8194 13.7368 20.9419L14.5004 20.2659C14.9384 19.8782 15.4936 19.6482 16.0775 19.6127L17.0954 19.5507C18.4169 19.4702 19.4706 18.4165 19.5511 17.095L19.6131 16.0771C19.6486 15.4932 19.8786 14.938 20.2663 14.5L20.9423 13.7364C21.8198 12.7451 21.8198 11.2549 20.9423 10.2636L20.2663 9.5C19.8786 9.06197 19.6486 8.50677 19.6131 7.92286L19.5511 6.90495C19.4706 5.58351 18.4169 4.5298 17.0954 4.44932L16.0775 4.38733C15.4936 4.35177 14.9384 4.12179 14.5004 3.73405L13.7368 3.05812C12.7455 2.18063 11.2553 2.18063 10.264 3.05812L9.50039 3.73405C9.06236 4.12179 8.50716 4.35177 7.92325 4.38733Z" stroke="black" stroke-width="2" stroke-linecap="round"/>
</svg>
