<svg width="24" height="24" viewBox="0 0 24 24" fill="none" xmlns="http://www.w3.org/2000/svg">
<path d="M8.40039 15.6L15.6004 8.39999M8.95429 8.94934L8.94014 8.93504M15.0648 15.1227L15.0507 15.1084M9.57635 4.04279L7.63849 3.61817C7.32886 3.55032 7.01852 3.7295 6.92247 4.03156L6.32127 5.92211C6.26093 6.11186 6.11226 6.26053 5.92251 6.32087L4.03196 6.92207C3.72989 7.01813 3.55072 7.32847 3.61857 7.63809L4.04319 9.57595C4.08581 9.77045 4.03139 9.97354 3.89723 10.1207L2.56057 11.5866C2.347 11.8208 2.347 12.1792 2.56057 12.4134L3.89723 13.8793C4.03139 14.0264 4.08581 14.2295 4.04319 14.424L3.61857 16.3619C3.55072 16.6715 3.72989 16.9819 4.03196 17.0779L5.92251 17.6791C6.11226 17.7395 6.26093 17.8881 6.32127 18.0779L6.92247 19.9684C7.01852 20.2705 7.32886 20.4497 7.63849 20.3818L9.57635 19.9572C9.77085 19.9146 9.97394 19.969 10.1211 20.1031L11.587 21.4398C11.8212 21.6534 12.1796 21.6534 12.4138 21.4398L13.8797 20.1031C14.0268 19.969 14.2299 19.9146 14.4244 19.9572L16.3623 20.3818C16.6719 20.4497 16.9823 20.2705 17.0783 19.9684L17.6795 18.0779C17.7398 17.8881 17.8885 17.7394 18.0783 17.6791L19.9688 17.0779C20.2709 16.9819 20.4501 16.6715 20.3822 16.3619L19.9576 14.424C19.915 14.2295 19.9694 14.0264 20.1035 13.8793L21.4402 12.4134C21.6538 12.1792 21.6538 11.8208 21.4402 11.5866L20.1035 10.1207C19.9694 9.97354 19.915 9.77045 19.9576 9.57595L20.3822 7.63809C20.4501 7.32847 20.2709 7.01813 19.9688 6.92207L18.0783 6.32087C17.8885 6.26053 17.7398 6.11186 17.6795 5.92211L17.0783 4.03156C16.9823 3.7295 16.6719 3.55032 16.3623 3.61817L14.4244 4.04279C14.2299 4.08541 14.0268 4.03099 13.8797 3.89684L12.4138 2.56017C12.1796 2.3466 11.8212 2.3466 11.587 2.56017L10.1211 3.89684C9.97394 4.03099 9.77085 4.08541 9.57635 4.04279Z" stroke="black" stroke-width="2" stroke-linecap="round"/>
</svg>
