<svg width="24" height="24" viewBox="0 0 24 24" fill="none" xmlns="http://www.w3.org/2000/svg">
<path d="M8.40071 15.6001L15.6007 8.40013M8.95461 8.94947L8.94046 8.93518M15.0651 15.1228L15.051 15.1085M11.4996 3.63815L9.57518 2.57301C9.15245 2.33904 8.62807 2.52441 8.42891 2.97823L7.52225 5.04419C7.40425 5.31306 7.16305 5.50072 6.8823 5.5421L4.72509 5.86002C4.25122 5.92985 3.93147 6.40127 4.02613 6.89049L4.45704 9.11765C4.51312 9.4075 4.42376 9.70718 4.21995 9.91275L2.65391 11.4923C2.30991 11.8393 2.31692 12.4166 2.66924 12.7544L4.27314 14.2921C4.48188 14.4922 4.57849 14.7894 4.52947 15.0807L4.15278 17.3185C4.07003 17.8101 4.40113 18.2729 4.87654 18.3302L7.04079 18.591C7.32245 18.6249 7.56813 18.8062 7.69262 19.0719L8.64916 21.1132C8.85928 21.5616 9.388 21.7331 9.80491 21.488L11.7028 20.3724C11.9498 20.2272 12.2507 20.2232 12.5012 20.3618L14.4256 21.427C14.8483 21.6609 15.3727 21.4756 15.5719 21.0218L16.4785 18.9558C16.5965 18.6869 16.8377 18.4993 17.1185 18.4579L19.2757 18.14C19.7496 18.0701 20.0693 17.5987 19.9747 17.1095L19.5437 14.8823C19.4877 14.5925 19.577 14.2928 19.7808 14.0872L21.3469 12.5077C21.6909 12.1607 21.6839 11.5833 21.3315 11.2456L19.7276 9.70791C19.5189 9.50779 19.4223 9.21057 19.4713 8.91933L19.848 6.6815C19.9307 6.18993 19.5996 5.72712 19.1242 5.66982L16.96 5.40898C16.6783 5.37504 16.4327 5.1938 16.3082 4.92813L15.3516 2.88679C15.1415 2.43838 14.6128 2.26691 14.1959 2.51198L12.2979 3.6276C12.0509 3.77279 11.75 3.77677 11.4996 3.63815Z" stroke="black" stroke-width="2" stroke-linecap="round"/>
</svg>
