<svg width="24" height="24" viewBox="0 0 24 24" fill="none" xmlns="http://www.w3.org/2000/svg">
<path d="M8.80039 2.3999H4.53372C3.35552 2.3999 2.40039 3.35503 2.40039 4.53324V15.1999V19.4666C2.40039 20.6448 3.35552 21.5999 4.53372 21.5999H15.2004H19.4671C20.6453 21.5999 21.6004 20.6448 21.6004 19.4666V8.7999V4.53324C21.6004 3.35503 20.6453 2.3999 19.4671 2.3999H9.00039M7.80039 9.16513V7.99514M16.2004 9.16513V7.99514M8.65305 15.6001C10.0212 16.6602 13.0893 16.6602 15.001 15.6001M11.4004 12.6751L11.6489 12.4328C11.874 12.2134 12.0004 11.9158 12.0004 11.6055V8.58014" stroke="black" stroke-width="2" stroke-linecap="round"/>
</svg>
