<svg width="24" height="24" viewBox="0 0 24 24" fill="none" xmlns="http://www.w3.org/2000/svg">
<path d="M10.8004 21.6001H4.80038C3.47489 21.6001 2.40038 20.5256 2.40039 19.2001L2.40048 4.80013C2.40049 3.47466 3.47501 2.40015 4.80048 2.40015H15.6007C16.9262 2.40015 18.0007 3.47466 18.0007 4.80015V9.60015M17.4004 17.3491V17.286M6.60076 7.20015H13.8008M6.60076 10.8001H13.8008M6.60076 14.4001H10.2008M21.6004 17.4001C21.6004 17.4001 20.6042 20.3398 17.4004 20.2885C14.1965 20.2371 13.2004 17.4001 13.2004 17.4001C13.2004 17.4001 14.1562 14.4091 17.4004 14.4091C20.6446 14.4091 21.6004 17.4001 21.6004 17.4001Z" stroke="black" stroke-width="2" stroke-linecap="round" stroke-linejoin="round"/>
</svg>
