<svg width="24" height="24" viewBox="0 0 24 24" fill="none" xmlns="http://www.w3.org/2000/svg">
<path d="M16.5626 2.78718L15.8378 3.47611V3.47611L16.5626 2.78718ZM18.0008 4.1999L18.6676 3.45466V3.45466L18.0008 4.1999ZM19.4707 5.65503L18.7508 6.34908V6.34908L19.4707 5.65503ZM19.8007 6.47773L18.8007 6.47771V6.47773H19.8007ZM4.20048 4.79989L3.20048 4.79988V4.79989H4.20048ZM2.40039 13.9999C1.84811 13.9999 1.40039 14.4476 1.40039 14.9999C1.40039 15.5522 1.84811 15.9999 2.40039 15.9999V14.9999V13.9999ZM21.6004 15.9999C22.1527 15.9999 22.6004 15.5522 22.6004 14.9999C22.6004 14.4476 22.1527 13.9999 21.6004 13.9999V14.9999V15.9999ZM3.20048 10.1999C3.20048 10.7522 3.6482 11.1999 4.20048 11.1999C4.75277 11.1999 5.20048 10.7522 5.20048 10.1999H4.20048H3.20048ZM18.8007 10.1999C18.8007 10.7522 19.2485 11.1999 19.8007 11.1999C20.353 11.1999 20.8007 10.7522 20.8007 10.1999H19.8007H18.8007ZM5.20077 19.1999C5.20077 18.6476 4.75305 18.1999 4.20077 18.1999C3.64848 18.1999 3.20077 18.6476 3.20077 19.1999H4.20077H5.20077ZM3.20077 21.5999C3.20077 22.1522 3.64848 22.5999 4.20077 22.5999C4.75305 22.5999 5.20077 22.1522 5.20077 21.5999H4.20077H3.20077ZM13.6008 19.1999C13.6008 18.6476 13.153 18.1999 12.6008 18.1999C12.0485 18.1999 11.6008 18.6476 11.6008 19.1999H12.6008H13.6008ZM11.6008 21.5999C11.6008 22.1522 12.0485 22.5999 12.6008 22.5999C13.153 22.5999 13.6008 22.1522 13.6008 21.5999H12.6008H11.6008ZM22.0008 19.1999C22.0008 18.6476 21.553 18.1999 21.0008 18.1999C20.4485 18.1999 20.0008 18.6476 20.0008 19.1999H21.0008H22.0008ZM20.0008 21.5999C20.0008 22.1522 20.4485 22.5999 21.0008 22.5999C21.553 22.5999 22.0008 22.1522 22.0008 21.5999H21.0008H20.0008ZM9.40076 19.1999C9.40076 18.6476 8.95305 18.1999 8.40076 18.1999C7.84848 18.1999 7.40076 18.6476 7.40076 19.1999H8.40076H9.40076ZM7.40076 20.3999C7.40076 20.9522 7.84848 21.3999 8.40076 21.3999C8.95305 21.3999 9.40076 20.9522 9.40076 20.3999H8.40076H7.40076ZM17.8008 19.1999C17.8008 18.6476 17.353 18.1999 16.8008 18.1999C16.2485 18.1999 15.8008 18.6476 15.8008 19.1999H16.8008H17.8008ZM15.8008 20.3999C15.8008 20.9522 16.2485 21.3999 16.8008 21.3999C17.353 21.3999 17.8008 20.9522 17.8008 20.3999H16.8008H15.8008ZM6.60048 2.3999V3.3999H15.0008V2.3999V1.3999H6.60048V2.3999ZM15.0008 2.3999V3.3999H15.6702V2.3999V1.3999H15.0008V2.3999ZM16.5626 2.78718L15.8378 3.47611C16.1938 3.85066 16.7698 4.44033 17.334 4.94514L18.0008 4.1999L18.6676 3.45466C18.1636 3.00376 17.6312 2.4599 17.2874 2.09825L16.5626 2.78718ZM18.0008 4.1999L17.334 4.94514C17.7204 5.29091 18.3526 5.93606 18.7508 6.34908L19.4707 5.65503L20.1907 4.96099C19.8013 4.55704 19.1183 3.85793 18.6676 3.45466L18.0008 4.1999ZM19.8007 6.47773L20.8007 6.47776C20.8008 5.91641 20.5863 5.3714 20.1907 4.96099L19.4707 5.65503L18.7508 6.34908C18.7811 6.38048 18.8008 6.42538 18.8007 6.47771L19.8007 6.47773ZM15.6702 2.3999V3.3999C15.7255 3.3999 15.7878 3.42349 15.8378 3.47611L16.5626 2.78718L17.2874 2.09825C16.8718 1.66098 16.2907 1.3999 15.6702 1.3999V2.3999ZM6.60048 2.3999V1.3999C4.72272 1.3999 3.2005 2.92212 3.20048 4.79988L4.20048 4.79989L5.20048 4.7999C5.20049 4.0267 5.82729 3.3999 6.60048 3.3999V2.3999ZM15.0008 2.3999H14.0008V5.9999H15.0008H16.0008V2.3999H15.0008ZM16.2008 7.1999V8.1999H19.8007V7.1999V6.1999H16.2008V7.1999ZM15.0008 5.9999H14.0008C14.0008 7.21493 14.9857 8.1999 16.2008 8.1999V7.1999V6.1999C16.0903 6.1999 16.0008 6.11036 16.0008 5.9999H15.0008ZM2.40039 14.9999V15.9999H21.6004V14.9999V13.9999H2.40039V14.9999ZM4.20048 4.79989H3.20048V10.1999H4.20048H5.20048V4.79989H4.20048ZM19.8007 6.47773H18.8007V7.1999H19.8007H20.8007V6.47773H19.8007ZM19.8007 7.1999H18.8007V10.1999H19.8007H20.8007V7.1999H19.8007ZM4.20077 19.1999H3.20077V21.5999H4.20077H5.20077V19.1999H4.20077ZM12.6008 19.1999H11.6008V21.5999H12.6008H13.6008V19.1999H12.6008ZM21.0008 19.1999H20.0008V21.5999H21.0008H22.0008V19.1999H21.0008ZM8.40076 19.1999H7.40076V20.3999H8.40076H9.40076V19.1999H8.40076ZM16.8008 19.1999H15.8008V20.3999H16.8008H17.8008V19.1999H16.8008Z" fill="black"/>
</svg>
