<svg width="24" height="24" viewBox="0 0 24 24" fill="none" xmlns="http://www.w3.org/2000/svg">
<path d="M15.0006 2.3999V5.9999C15.0006 6.66264 15.5378 7.1999 16.2006 7.1999H19.8006M8.40057 7.1999H10.8006M8.40057 10.7999H15.6006M8.40057 14.3999H15.6006M18.0006 4.1999C17.4665 3.72204 16.9123 3.15528 16.5624 2.78718C16.3296 2.54224 16.0079 2.3999 15.67 2.3999H6.60029C5.27481 2.3999 4.2003 3.47441 4.20029 4.79989L4.2002 19.1998C4.20019 20.5253 5.2747 21.5998 6.60019 21.5998L17.4002 21.5999C18.7257 21.5999 19.8002 20.5254 19.8002 19.2L19.8006 6.47773C19.8006 6.1709 19.6835 5.87594 19.4706 5.65503C19.0768 5.24655 18.4191 4.57442 18.0006 4.1999Z" stroke="black" stroke-width="2" stroke-linecap="round" stroke-linejoin="round"/>
</svg>
