<svg width="24" height="24" viewBox="0 0 24 24" fill="none" xmlns="http://www.w3.org/2000/svg">
<path d="M10.4996 21.6001H4.4996C3.17411 21.6001 2.0996 20.5256 2.09961 19.2001L2.0997 4.80013C2.09971 3.47466 3.17422 2.40015 4.4997 2.40015H15.3C16.6255 2.40015 17.7 3.47466 17.7 4.80015V9.60015M6.29998 7.20015H13.5M6.29998 10.8001H13.5M6.29998 14.4001H9.89998M15.3426 20.4001L12.9 17.9459M12.9 17.9459L15.2321 15.6001M12.9 17.9459H20.1271C21.1062 17.9459 21.9 17.1521 21.9 16.173C21.9 15.1939 21.1062 14.4001 20.1271 14.4001H17.7" stroke="black" stroke-width="2" stroke-linecap="round" stroke-linejoin="round"/>
</svg>
