<svg width="24" height="24" viewBox="0 0 24 24" fill="none" xmlns="http://www.w3.org/2000/svg">
<path d="M9.59961 21.5999H7.19961C5.21138 21.5999 3.59961 19.9881 3.59961 17.9999V5.9999C3.59961 4.01168 5.21138 2.3999 7.19961 2.3999H15.5996C17.5878 2.3999 19.1996 4.01168 19.1996 5.9999V8.9999M14.9996 14.9999V13.7999C14.9996 12.8058 15.8055 11.9999 16.7996 11.9999C17.7937 11.9999 18.5996 12.8058 18.5996 13.7999V15.5999M14.9996 7.1999H7.19961M11.3996 10.7999H7.19961M9.59961 14.3999H7.19961M14.3996 21.5999H19.1996C19.8624 21.5999 20.3996 21.0626 20.3996 20.3999V16.7999C20.3996 16.1372 19.8624 15.5999 19.1996 15.5999H14.3996C13.7369 15.5999 13.1996 16.1372 13.1996 16.7999V20.3999C13.1996 21.0626 13.7369 21.5999 14.3996 21.5999Z" stroke="black" stroke-width="2" stroke-linecap="round" stroke-linejoin="round"/>
</svg>
