<svg width="24" height="24" viewBox="0 0 24 24" fill="none" xmlns="http://www.w3.org/2000/svg">
<path d="M14.9996 2.39995V5.99995C14.9996 6.66269 15.5369 7.19995 16.1996 7.19995H19.7996M14.9996 2.39995H15.669C16.007 2.39995 16.3286 2.54229 16.5615 2.78723C16.9113 3.15533 17.4655 3.72209 17.9996 4.19995C18.4182 4.57447 19.0758 5.2466 19.4696 5.65508C19.6826 5.87599 19.7996 6.17094 19.7996 6.47778L19.7996 7.19995M14.9996 2.39995H5.99923M19.7996 7.19995L19.7994 20.9999M4.19923 8.39995V19.1999C4.19923 20.5254 5.27374 21.5999 6.59922 21.5999H14.3992M20.3996 22.7999L3.59961 1.19995" stroke="black" stroke-width="2" stroke-linecap="round" stroke-linejoin="round"/>
</svg>
