<svg width="24" height="24" viewBox="0 0 24 24" fill="none" xmlns="http://www.w3.org/2000/svg">
<path d="M8.70126 9.91755V13.6058C8.70126 15.4283 10.1787 16.9058 12.0013 16.9058C13.8238 16.9058 15.3013 15.4283 15.3013 13.6058V8.94696C15.3013 7.98209 14.5191 7.1999 13.5542 7.1999C12.5893 7.1999 11.8071 7.98209 11.8071 8.94696V13.4117M6.60029 2.3999H17.4005C18.726 2.3999 19.8005 3.47445 19.8005 4.79995L19.8002 19.2C19.8002 20.5254 18.7257 21.5999 17.4002 21.5999L6.60019 21.5998C5.2747 21.5998 4.20019 20.5253 4.2002 19.1998L4.20029 4.79989C4.2003 3.47441 5.27481 2.3999 6.60029 2.3999Z" stroke="black" stroke-width="2" stroke-linecap="round"/>
</svg>
