<svg width="24" height="24" viewBox="0 0 24 24" fill="none" xmlns="http://www.w3.org/2000/svg">
<path d="M14.1488 18.3205L12.0938 21.3199C11.741 21.8284 10.9107 21.6001 10.9107 20.9878L10.9003 15.1343C10.9003 14.4597 10.3295 13.9201 9.62379 13.9097L5.44129 13.8578C4.93275 13.8474 4.63178 13.3181 4.912 12.9134L6.60368 10.4537M8.35763 7.86947L11.907 2.68028C12.2599 2.17174 13.0902 2.40007 13.0902 3.01239L13.1005 8.86581C13.1005 9.54041 13.6713 10.0801 14.3771 10.0905L18.5596 10.1423C19.0681 10.1527 19.3691 10.682 19.0889 11.0868L15.8301 15.8401M20.4006 20.3998L3.60059 3.5998" stroke="black" stroke-width="2" stroke-linecap="round" stroke-linejoin="round"/>
</svg>
