<svg width="24" height="24" viewBox="0 0 24 24" fill="none" xmlns="http://www.w3.org/2000/svg">
<path d="M19.5793 10.4843V7.4422C19.5793 6.88991 19.1316 6.4422 18.5793 6.4422H11.9093C11.6441 6.4422 11.3898 6.33684 11.2022 6.1493L9.76697 4.71404C9.57943 4.5265 9.32508 4.42114 9.05986 4.42114H3.40039C2.84811 4.42114 2.40039 4.86886 2.40039 5.42114V18.579C2.40039 19.1313 2.84811 19.579 3.40039 19.579H4.57656C5.04899 19.579 5.43197 19.1961 5.43197 18.7236C5.43197 18.6211 5.45042 18.5193 5.48643 18.4233L8.22022 11.1332C8.36658 10.7429 8.7397 10.4843 9.15655 10.4843H20.213C20.8955 10.4843 21.3775 11.153 21.1616 11.8005L18.7967 18.8953C18.6606 19.3036 18.2785 19.579 17.8481 19.579H4.42144" stroke="black" stroke-width="2" stroke-linecap="round" stroke-linejoin="round"/>
</svg>
