<svg width="24" height="24" viewBox="0 0 24 24" fill="none" xmlns="http://www.w3.org/2000/svg">
<path d="M9.69328 16.5075C10.0838 16.898 10.717 16.898 11.1075 16.5075C11.498 16.117 11.498 15.4838 11.1075 15.0933L10.4004 15.8004L9.69328 16.5075ZM8.40039 13.8004L7.69328 13.0933C7.30276 13.4838 7.30276 14.117 7.69328 14.5075L8.40039 13.8004ZM11.1075 12.5075C11.498 12.117 11.498 11.4838 11.1075 11.0933C10.717 10.7028 10.0838 10.7028 9.69328 11.0933L10.4004 11.8004L11.1075 12.5075ZM14.3075 11.0933C13.917 10.7028 13.2838 10.7028 12.8933 11.0933C12.5028 11.4838 12.5028 12.117 12.8933 12.5075L13.6004 11.8004L14.3075 11.0933ZM15.6004 13.8004L16.3075 14.5075C16.698 14.117 16.698 13.4838 16.3075 13.0933L15.6004 13.8004ZM12.8933 15.0933C12.5028 15.4838 12.5028 16.117 12.8933 16.5075C13.2838 16.898 13.917 16.898 14.3075 16.5075L13.6004 15.8004L12.8933 15.0933ZM3.77182 4.2002V5.2002H9.25753V4.2002V3.2002H3.77182V4.2002ZM10.629 5.6002H9.62896V8.0002H10.629H11.629V5.6002H10.629ZM10.629 8.0002H9.62896V8.2002H10.629H11.629V8.0002H10.629ZM9.25753 4.2002V5.2002C9.44333 5.2002 9.62896 5.35974 9.62896 5.6002H10.629H11.629C11.629 4.29425 10.5866 3.2002 9.25753 3.2002V4.2002ZM3.77182 4.2002V3.2002C2.44278 3.2002 1.40039 4.29425 1.40039 5.6002H2.40039H3.40039C3.40039 5.35974 3.58602 5.2002 3.77182 5.2002V4.2002ZM2.40039 8.0002V9.0002H10.629V8.0002V7.0002H2.40039V8.0002ZM10.629 8.0002V9.0002H20.229V8.0002V7.0002H10.629V8.0002ZM21.6004 9.40019H20.6004V18.4002H21.6004H22.6004V9.40019H21.6004ZM20.229 19.8002V18.8002H3.77182V19.8002V20.8002H20.229V19.8002ZM2.40039 18.4002H3.40039V8.0002H2.40039H1.40039V18.4002H2.40039ZM3.77182 19.8002V18.8002C3.58602 18.8002 3.40039 18.6406 3.40039 18.4002H2.40039H1.40039C1.40039 19.7061 2.44278 20.8002 3.77182 20.8002V19.8002ZM21.6004 18.4002H20.6004C20.6004 18.6406 20.4148 18.8002 20.229 18.8002V19.8002V20.8002C21.558 20.8002 22.6004 19.7061 22.6004 18.4002H21.6004ZM20.229 8.0002V9.0002C20.4148 9.0002 20.6004 9.15974 20.6004 9.40019H21.6004H22.6004C22.6004 8.09425 21.558 7.0002 20.229 7.0002V8.0002ZM10.4004 15.8004L11.1075 15.0933L9.1075 13.0933L8.40039 13.8004L7.69328 14.5075L9.69328 16.5075L10.4004 15.8004ZM8.40039 13.8004L9.1075 14.5075L11.1075 12.5075L10.4004 11.8004L9.69328 11.0933L7.69328 13.0933L8.40039 13.8004ZM13.6004 11.8004L12.8933 12.5075L14.8933 14.5075L15.6004 13.8004L16.3075 13.0933L14.3075 11.0933L13.6004 11.8004ZM15.6004 13.8004L14.8933 13.0933L12.8933 15.0933L13.6004 15.8004L14.3075 16.5075L16.3075 14.5075L15.6004 13.8004ZM2.40039 8.0002H3.40039V5.6002H2.40039H1.40039V8.0002H2.40039Z" fill="black"/>
</svg>
