<svg width="24" height="24" viewBox="0 0 24 24" fill="none" xmlns="http://www.w3.org/2000/svg">
<path d="M16.518 10.4999H20.5337C21.1228 10.4999 21.6004 10.9775 21.6004 11.5666V17.7979V18.0999C21.6004 19.2045 20.705 20.0999 19.6004 20.0999H4.80039M2.40039 4.96657V17.9999C2.40039 19.1597 3.34059 20.0999 4.50039 20.0999C5.66019 20.0999 6.60039 19.1597 6.60039 17.9999V11.5666C6.60039 10.9775 7.07795 10.4999 7.66706 10.4999H19.4671V7.97833C19.4671 7.38923 18.9895 6.91167 18.4004 6.91167H11.3729L9.74299 4.38788C9.54651 4.08365 9.2091 3.8999 8.84695 3.8999H3.46706C2.87795 3.8999 2.40039 4.37747 2.40039 4.96657Z" stroke="black" stroke-width="2" stroke-linecap="round" stroke-linejoin="round"/>
</svg>
