<svg width="24" height="24" viewBox="0 0 24 24" fill="none" xmlns="http://www.w3.org/2000/svg">
<path d="M12.1749 21.6537V7.69003M10.5499 6.85234C10.7228 6.89114 10.905 6.84359 11.0294 6.71913C11.1539 6.59467 11.2014 6.41244 11.1627 6.23964C11.0075 5.60585 10.436 3.48361 9.84909 2.89674C9.11793 2.16558 7.92793 2.16254 7.20039 2.89008C6.4729 3.61757 6.47584 4.80757 7.20705 5.53879C7.80352 6.13526 9.91618 6.69721 10.5499 6.85234ZM12.3245 6.23959C12.2857 6.41246 12.3333 6.59462 12.4577 6.71908C12.5822 6.84354 12.7644 6.89101 12.9372 6.85229C13.571 6.69714 15.6932 6.1256 16.2801 5.53874C17.0113 4.80758 17.0143 3.61758 16.2868 2.89003C15.5593 2.16254 14.3693 2.16548 13.6381 2.8967C13.0416 3.49317 12.4797 5.60582 12.3245 6.23959ZM3.09857 12.5773H20.9022C21.2878 12.5773 21.6004 12.2647 21.6004 11.8791V8.38822C21.6004 8.00262 21.2878 7.69003 20.9022 7.69003H3.09857C2.71298 7.69003 2.40039 8.00262 2.40039 8.38821V11.8791C2.40039 12.2647 2.71298 12.5773 3.09857 12.5773ZM19.8549 12.5773V20.9555C19.8549 21.3411 19.5423 21.6537 19.1568 21.6537H4.84403C4.45843 21.6537 4.14584 21.3411 4.14584 20.9555V12.5773H19.8549Z" stroke="black" stroke-width="2" stroke-linecap="round" stroke-linejoin="round"/>
</svg>
