<svg width="24" height="24" viewBox="0 0 24 24" fill="none" xmlns="http://www.w3.org/2000/svg">
<path d="M2.39961 14.0957L2.39942 8.82799C2.39937 7.50248 3.47389 6.42791 4.7994 6.4279L19.1996 6.42779C20.5251 6.42778 21.5996 7.5023 21.5996 8.82779V14.0957M2.39961 14.0957H21.5996M2.39961 14.0957L2.39941 19.6277C2.39937 20.9532 3.4739 22.0278 4.79941 22.0278H19.1996C20.5251 22.0278 21.5996 20.9533 21.5996 19.6278V14.0957M12.1742 22.0278V6.42778M10.9638 5.92258C11.1435 5.9152 11.3097 5.82071 11.399 5.66597C11.4883 5.51123 11.487 5.32006 11.4036 5.16079C11.085 4.58008 9.96693 2.64921 9.23726 2.22794C8.32819 1.70308 7.1605 2.01277 6.63824 2.91734C6.11602 3.82185 6.43157 4.98797 7.34071 5.51286C8.08232 5.94103 10.3016 5.93698 10.9638 5.92258ZM12.6342 5.16062C12.5507 5.31995 12.5495 5.51106 12.6388 5.66581C12.7282 5.82055 12.8944 5.91499 13.074 5.92242C13.7363 5.9368 15.9675 5.93398 16.6971 5.5127C17.6062 4.98785 17.9219 3.82176 17.3996 2.91718C16.8774 2.01267 15.7097 1.70288 14.8006 2.22778C14.059 2.65594 12.9528 4.57993 12.6342 5.16062Z" stroke="black" stroke-width="2" stroke-linecap="round" stroke-linejoin="round"/>
</svg>
