<svg width="24" height="24" viewBox="0 0 24 24" fill="none" xmlns="http://www.w3.org/2000/svg">
<path d="M1.40675 15.9677C1.34455 16.5165 1.73899 17.0117 2.28776 17.074C2.83653 17.1362 3.33182 16.7417 3.39403 16.1929L2.40039 16.0803L1.40675 15.9677ZM3.52039 6.19946L2.87769 5.43334C2.68126 5.59813 2.55563 5.83207 2.52675 6.08683L3.52039 6.19946ZM6.40309 5.08643C6.82621 4.73148 6.88146 4.10073 6.52651 3.67761C6.17155 3.2545 5.5408 3.19924 5.11769 3.55419L5.76039 4.32031L6.40309 5.08643ZM20.6068 16.1929C20.669 16.7417 21.1642 17.1362 21.713 17.074C22.2618 17.0117 22.6562 16.5165 22.594 15.9677L21.6004 16.0803L20.6068 16.1929ZM20.4804 6.19946L21.474 6.08683C21.4451 5.83207 21.3195 5.59813 21.1231 5.43334L20.4804 6.19946ZM18.8831 3.55419C18.46 3.19924 17.8292 3.2545 17.4743 3.67761C17.1193 4.10073 17.1746 4.73148 17.5977 5.08643L18.2404 4.32031L18.8831 3.55419ZM9.12039 16.3203H8.12039C8.12039 17.6237 7.06378 18.6803 5.76039 18.6803V19.6803V20.6803C8.16835 20.6803 10.1204 18.7283 10.1204 16.3203H9.12039ZM5.76039 19.6803V18.6803C4.457 18.6803 3.40039 17.6237 3.40039 16.3203H2.40039H1.40039C1.40039 18.7283 3.35243 20.6803 5.76039 20.6803V19.6803ZM2.40039 16.3203H3.40039C3.40039 15.0169 4.457 13.9603 5.76039 13.9603V12.9603V11.9603C3.35243 11.9603 1.40039 13.9124 1.40039 16.3203H2.40039ZM5.76039 12.9603V13.9603C7.06378 13.9603 8.12039 15.0169 8.12039 16.3203H9.12039H10.1204C10.1204 13.9124 8.16835 11.9603 5.76039 11.9603V12.9603ZM9.08992 15.6003L9.95553 16.101C10.3651 15.393 11.1281 14.9203 12.0004 14.9203V13.9203V12.9203C10.3853 12.9203 8.97667 13.799 8.22432 15.0996L9.08992 15.6003ZM12.0004 13.9203V14.9203C12.8727 14.9203 13.6357 15.393 14.0453 16.101L14.9109 15.6003L15.7765 15.0996C15.0242 13.799 13.6155 12.9203 12.0004 12.9203V13.9203ZM21.6004 16.3203H20.6004C20.6004 17.6237 19.5438 18.6803 18.2404 18.6803V19.6803V20.6803C20.6483 20.6803 22.6004 18.7283 22.6004 16.3203H21.6004ZM18.2404 19.6803V18.6803C16.937 18.6803 15.8804 17.6237 15.8804 16.3203H14.8804H13.8804C13.8804 18.7283 15.8324 20.6803 18.2404 20.6803V19.6803ZM14.8804 16.3203H15.8804C15.8804 15.0169 16.937 13.9603 18.2404 13.9603V12.9603V11.9603C15.8324 11.9603 13.8804 13.9124 13.8804 16.3203H14.8804ZM18.2404 12.9603V13.9603C19.5438 13.9603 20.6004 15.0169 20.6004 16.3203H21.6004H22.6004C22.6004 13.9124 20.6483 11.9603 18.2404 11.9603V12.9603ZM2.40039 16.0803L3.39403 16.1929L4.51403 6.31209L3.52039 6.19946L2.52675 6.08683L1.40675 15.9677L2.40039 16.0803ZM3.52039 6.19946L4.16309 6.96558L6.40309 5.08643L5.76039 4.32031L5.11769 3.55419L2.87769 5.43334L3.52039 6.19946ZM21.6004 16.0803L22.594 15.9677L21.474 6.08683L20.4804 6.19946L19.4868 6.31209L20.6068 16.1929L21.6004 16.0803ZM20.4804 6.19946L21.1231 5.43334L18.8831 3.55419L18.2404 4.32031L17.5977 5.08643L19.8377 6.96558L20.4804 6.19946Z" fill="black"/>
</svg>
