<svg width="24" height="24" viewBox="0 0 24 24" fill="none" xmlns="http://www.w3.org/2000/svg">
<path d="M9.12039 12.0001H8.12039C8.12039 13.3035 7.06378 14.3601 5.76039 14.3601V15.3601V16.3601C8.16835 16.3601 10.1204 14.4081 10.1204 12.0001H9.12039ZM5.76039 15.3601V14.3601C4.457 14.3601 3.40039 13.3035 3.40039 12.0001H2.40039H1.40039C1.40039 14.4081 3.35243 16.3601 5.76039 16.3601V15.3601ZM2.40039 12.0001H3.40039C3.40039 10.6967 4.457 9.64014 5.76039 9.64014V8.64014V7.64014C3.35243 7.64014 1.40039 9.59218 1.40039 12.0001H2.40039ZM5.76039 8.64014V9.64014C7.06378 9.64014 8.12039 10.6967 8.12039 12.0001H9.12039H10.1204C10.1204 9.59218 8.16835 7.64014 5.76039 7.64014V8.64014ZM9.08992 11.2801L9.95553 11.7809C10.3651 11.0728 11.1281 10.6001 12.0004 10.6001V9.60014V8.60014C10.3853 8.60014 8.97667 9.47881 8.22431 10.7794L9.08992 11.2801ZM12.0004 9.60014V10.6001C12.8727 10.6001 13.6357 11.0728 14.0453 11.7809L14.9109 11.2801L15.7765 10.7794C15.0242 9.47881 13.6155 8.60014 12.0004 8.60014V9.60014ZM21.6004 12.0001H20.6004C20.6004 13.3035 19.5438 14.3601 18.2404 14.3601V15.3601V16.3601C20.6483 16.3601 22.6004 14.4081 22.6004 12.0001H21.6004ZM18.2404 15.3601V14.3601C16.937 14.3601 15.8804 13.3035 15.8804 12.0001H14.8804H13.8804C13.8804 14.4081 15.8324 16.3601 18.2404 16.3601V15.3601ZM14.8804 12.0001H15.8804C15.8804 10.6967 16.937 9.64014 18.2404 9.64014V8.64014V7.64014C15.8324 7.64014 13.8804 9.59218 13.8804 12.0001H14.8804ZM18.2404 8.64014V9.64014C19.5438 9.64014 20.6004 10.6967 20.6004 12.0001H21.6004H22.6004C22.6004 9.59218 20.6483 7.64014 18.2404 7.64014V8.64014Z" fill="black"/>
</svg>
