<svg width="24" height="24" viewBox="0 0 24 24" fill="none" xmlns="http://www.w3.org/2000/svg">
<path d="M9.12039 11.9996H8.12039C8.12039 13.303 7.06378 14.3596 5.76039 14.3596V15.3596V16.3596C8.16835 16.3596 10.1204 14.4076 10.1204 11.9996H9.12039ZM5.76039 15.3596V14.3596C4.457 14.3596 3.40039 13.303 3.40039 11.9996H2.40039H1.40039C1.40039 14.4076 3.35243 16.3596 5.76039 16.3596V15.3596ZM2.40039 11.9996H3.40039C3.40039 10.6963 4.457 9.63965 5.76039 9.63965V8.63965V7.63965C3.35243 7.63965 1.40039 9.59169 1.40039 11.9996H2.40039ZM5.76039 8.63965V9.63965C7.06378 9.63965 8.12039 10.6963 8.12039 11.9996H9.12039H10.1204C10.1204 9.59169 8.16835 7.63965 5.76039 7.63965V8.63965ZM9.08992 11.2796L9.95553 11.7804C10.3651 11.0724 11.1281 10.5996 12.0004 10.5996V9.59965V8.59965C10.3853 8.59965 8.97667 9.47833 8.22431 10.7789L9.08992 11.2796ZM12.0004 9.59965V10.5996C12.8727 10.5996 13.6357 11.0724 14.0453 11.7804L14.9109 11.2796L15.7765 10.7789C15.0242 9.47833 13.6155 8.59965 12.0004 8.59965V9.59965ZM21.6004 11.9996H20.6004C20.6004 13.303 19.5438 14.3596 18.2404 14.3596V15.3596V16.3596C20.6483 16.3596 22.6004 14.4076 22.6004 11.9996H21.6004ZM18.2404 15.3596V14.3596C16.937 14.3596 15.8804 13.303 15.8804 11.9996H14.8804H13.8804C13.8804 14.4076 15.8324 16.3596 18.2404 16.3596V15.3596ZM14.8804 11.9996H15.8804C15.8804 10.6963 16.937 9.63965 18.2404 9.63965V8.63965V7.63965C15.8324 7.63965 13.8804 9.59169 13.8804 11.9996H14.8804ZM18.2404 8.63965V9.63965C19.5438 9.63965 20.6004 10.6963 20.6004 11.9996H21.6004H22.6004C22.6004 9.59169 20.6483 7.63965 18.2404 7.63965V8.63965Z" fill="black"/>
</svg>
