<svg width="24" height="24" viewBox="0 0 24 24" fill="none" xmlns="http://www.w3.org/2000/svg">
<path d="M1.40675 15.9672C1.34455 16.516 1.73899 17.0113 2.28776 17.0735C2.83653 17.1357 3.33182 16.7412 3.39403 16.1925L2.40039 16.0798L1.40675 15.9672ZM3.52039 6.19897L2.87769 5.43286C2.68126 5.59764 2.55563 5.83158 2.52675 6.08634L3.52039 6.19897ZM6.40309 5.08594C6.82621 4.73099 6.88146 4.10024 6.52651 3.67712C6.17155 3.25401 5.5408 3.19875 5.11769 3.55371L5.76039 4.31982L6.40309 5.08594ZM20.6068 16.1925C20.669 16.7412 21.1642 17.1357 21.713 17.0735C22.2618 17.0113 22.6562 16.516 22.594 15.9672L21.6004 16.0798L20.6068 16.1925ZM20.4804 6.19897L21.474 6.08634C21.4451 5.83158 21.3195 5.59764 21.1231 5.43286L20.4804 6.19897ZM18.8831 3.55371C18.46 3.19875 17.8292 3.25401 17.4743 3.67712C17.1193 4.10024 17.1746 4.73099 17.5977 5.08594L18.2404 4.31982L18.8831 3.55371ZM9.12039 16.3198H8.12039C8.12039 17.6232 7.06378 18.6798 5.76039 18.6798V19.6798V20.6798C8.16835 20.6798 10.1204 18.7278 10.1204 16.3198H9.12039ZM5.76039 19.6798V18.6798C4.457 18.6798 3.40039 17.6232 3.40039 16.3198H2.40039H1.40039C1.40039 18.7278 3.35243 20.6798 5.76039 20.6798V19.6798ZM2.40039 16.3198H3.40039C3.40039 15.0164 4.457 13.9598 5.76039 13.9598V12.9598V11.9598C3.35243 11.9598 1.40039 13.9119 1.40039 16.3198H2.40039ZM5.76039 12.9598V13.9598C7.06378 13.9598 8.12039 15.0164 8.12039 16.3198H9.12039H10.1204C10.1204 13.9119 8.16835 11.9598 5.76039 11.9598V12.9598ZM9.08992 15.5998L9.95553 16.1006C10.3651 15.3925 11.1281 14.9198 12.0004 14.9198V13.9198V12.9198C10.3853 12.9198 8.97667 13.7985 8.22432 15.0991L9.08992 15.5998ZM12.0004 13.9198V14.9198C12.8727 14.9198 13.6357 15.3925 14.0453 16.1006L14.9109 15.5998L15.7765 15.0991C15.0242 13.7985 13.6155 12.9198 12.0004 12.9198V13.9198ZM21.6004 16.3198H20.6004C20.6004 17.6232 19.5438 18.6798 18.2404 18.6798V19.6798V20.6798C20.6483 20.6798 22.6004 18.7278 22.6004 16.3198H21.6004ZM18.2404 19.6798V18.6798C16.937 18.6798 15.8804 17.6232 15.8804 16.3198H14.8804H13.8804C13.8804 18.7278 15.8324 20.6798 18.2404 20.6798V19.6798ZM14.8804 16.3198H15.8804C15.8804 15.0164 16.937 13.9598 18.2404 13.9598V12.9598V11.9598C15.8324 11.9598 13.8804 13.9119 13.8804 16.3198H14.8804ZM18.2404 12.9598V13.9598C19.5438 13.9598 20.6004 15.0164 20.6004 16.3198H21.6004H22.6004C22.6004 13.9119 20.6483 11.9598 18.2404 11.9598V12.9598ZM2.40039 16.0798L3.39403 16.1925L4.51403 6.3116L3.52039 6.19897L2.52675 6.08634L1.40675 15.9672L2.40039 16.0798ZM3.52039 6.19897L4.16309 6.96509L6.40309 5.08594L5.76039 4.31982L5.11769 3.55371L2.87769 5.43286L3.52039 6.19897ZM21.6004 16.0798L22.594 15.9672L21.474 6.08634L20.4804 6.19897L19.4868 6.3116L20.6068 16.1925L21.6004 16.0798ZM20.4804 6.19897L21.1231 5.43286L18.8831 3.55371L18.2404 4.31982L17.5977 5.08594L19.8377 6.96509L20.4804 6.19897Z" fill="black"/>
</svg>
