<svg width="24" height="24" viewBox="0 0 24 24" fill="none" xmlns="http://www.w3.org/2000/svg">
<path d="M3.52246 17.3998L4.68837 16.1531C6.36103 17.8465 8.68421 18.5063 11.2525 18.5063C16.3479 18.5063 20.4785 14.3757 20.4785 9.28032C20.4785 6.75325 19.4625 4.46347 17.8166 2.79721L18.9822 1.7998M11.751 18.5063V22.1998M11.751 22.1998H6.26532M11.751 22.1998H16.9874M16.7225 8.9998C16.7225 12.3135 14.0362 14.9998 10.7225 14.9998C7.40875 14.9998 4.72246 12.3135 4.72246 8.9998C4.72246 5.6861 7.40875 2.9998 10.7225 2.9998C14.0362 2.9998 16.7225 5.6861 16.7225 8.9998Z" stroke="black" stroke-width="2" stroke-linecap="round" stroke-linejoin="round"/>
</svg>
