<svg width="24" height="24" viewBox="0 0 24 24" fill="none" xmlns="http://www.w3.org/2000/svg">
<path d="M2.40039 3.5999C2.40039 2.93716 2.93765 2.3999 3.60039 2.3999H6.00039C6.66313 2.3999 7.20039 2.93716 7.20039 3.5999V5.9999C7.20039 6.66264 6.66313 7.1999 6.00039 7.1999H3.60039C2.93765 7.1999 2.40039 6.66264 2.40039 5.9999V3.5999Z" stroke="black" stroke-width="2"/>
<path d="M9.60039 3.5999C9.60039 2.93716 10.1376 2.3999 10.8004 2.3999H13.2004C13.8631 2.3999 14.4004 2.93716 14.4004 3.5999V5.9999C14.4004 6.66264 13.8631 7.1999 13.2004 7.1999H10.8004C10.1376 7.1999 9.60039 6.66264 9.60039 5.9999V3.5999Z" stroke="black" stroke-width="2"/>
<path d="M16.8004 3.5999C16.8004 2.93716 17.3377 2.3999 18.0004 2.3999H20.4004C21.0631 2.3999 21.6004 2.93716 21.6004 3.5999V5.9999C21.6004 6.66264 21.0631 7.1999 20.4004 7.1999H18.0004C17.3377 7.1999 16.8004 6.66264 16.8004 5.9999V3.5999Z" stroke="black" stroke-width="2"/>
<path d="M2.40039 10.7999C2.40039 10.1372 2.93765 9.5999 3.60039 9.5999H6.00039C6.66313 9.5999 7.20039 10.1372 7.20039 10.7999V13.1999C7.20039 13.8626 6.66313 14.3999 6.00039 14.3999H3.60039C2.93765 14.3999 2.40039 13.8626 2.40039 13.1999V10.7999Z" stroke="black" stroke-width="2"/>
<path d="M9.60039 10.7999C9.60039 10.1372 10.1376 9.5999 10.8004 9.5999H13.2004C13.8631 9.5999 14.4004 10.1372 14.4004 10.7999V13.1999C14.4004 13.8626 13.8631 14.3999 13.2004 14.3999H10.8004C10.1376 14.3999 9.60039 13.8626 9.60039 13.1999V10.7999Z" stroke="black" stroke-width="2"/>
<path d="M16.8004 10.7999C16.8004 10.1372 17.3377 9.5999 18.0004 9.5999H20.4004C21.0631 9.5999 21.6004 10.1372 21.6004 10.7999V13.1999C21.6004 13.8626 21.0631 14.3999 20.4004 14.3999H18.0004C17.3377 14.3999 16.8004 13.8626 16.8004 13.1999V10.7999Z" stroke="black" stroke-width="2"/>
<path d="M2.40039 17.9999C2.40039 17.3372 2.93765 16.7999 3.60039 16.7999H6.00039C6.66313 16.7999 7.20039 17.3372 7.20039 17.9999V20.3999C7.20039 21.0626 6.66313 21.5999 6.00039 21.5999H3.60039C2.93765 21.5999 2.40039 21.0626 2.40039 20.3999V17.9999Z" stroke="black" stroke-width="2"/>
<path d="M9.60039 17.9999C9.60039 17.3372 10.1376 16.7999 10.8004 16.7999H13.2004C13.8631 16.7999 14.4004 17.3372 14.4004 17.9999V20.3999C14.4004 21.0626 13.8631 21.5999 13.2004 21.5999H10.8004C10.1376 21.5999 9.60039 21.0626 9.60039 20.3999V17.9999Z" stroke="black" stroke-width="2"/>
<path d="M16.8004 17.9999C16.8004 17.3372 17.3377 16.7999 18.0004 16.7999H20.4004C21.0631 16.7999 21.6004 17.3372 21.6004 17.9999V20.3999C21.6004 21.0626 21.0631 21.5999 20.4004 21.5999H18.0004C17.3377 21.5999 16.8004 21.0626 16.8004 20.3999V17.9999Z" stroke="black" stroke-width="2"/>
</svg>
