<svg width="24" height="24" viewBox="0 0 24 24" fill="none" xmlns="http://www.w3.org/2000/svg">
<path d="M8.26182 16.8002V11.8156M8.26182 16.8002H6.60028M8.26182 16.8002H9.92336M8.26182 11.8156V6.83097M8.26182 11.8156H15.7387M8.26182 6.83097H6.60028M8.26182 6.83097H9.92336M15.7387 11.8156V16.8002M15.7387 11.8156V6.83097M15.7387 16.8002H14.0772M15.7387 16.8002H17.4003M15.7387 6.83097H14.0772M15.7387 6.83097H17.4003M4.80039 21.6004H19.2004C20.5259 21.6004 21.6004 20.5259 21.6004 19.2004V4.80039C21.6004 3.47491 20.5259 2.40039 19.2004 2.40039H4.80039C3.47491 2.40039 2.40039 3.47491 2.40039 4.80039V19.2004C2.40039 20.5259 3.47491 21.6004 4.80039 21.6004Z" stroke="black" stroke-width="2" stroke-linecap="round" stroke-linejoin="round"/>
</svg>
