<svg width="24" height="24" viewBox="0 0 24 24" fill="none" xmlns="http://www.w3.org/2000/svg">
<path d="M2.40039 20.4001L1.61952 19.7754C1.37939 20.0756 1.33257 20.4868 1.49909 20.8333C1.66561 21.1798 2.01599 21.4001 2.40039 21.4001V20.4001ZM7.68039 13.8001L8.46126 13.1754C8.27149 12.9382 7.98417 12.8001 7.68039 12.8001C7.37661 12.8001 7.08929 12.9382 6.89952 13.1754L7.68039 13.8001ZM9.60039 16.2001L8.81952 16.8248C9.00929 17.062 9.29661 17.2001 9.60039 17.2001C9.90417 17.2001 10.1915 17.062 10.3813 16.8248L9.60039 16.2001ZM13.9204 10.8001L14.7013 10.1754C14.5115 9.93819 14.2242 9.8001 13.9204 9.8001C13.6166 9.8001 13.3293 9.93819 13.1395 10.1754L13.9204 10.8001ZM21.6004 20.4001V21.4001C21.9848 21.4001 22.3352 21.1798 22.5017 20.8333C22.6682 20.4868 22.6214 20.0756 22.3813 19.7754L21.6004 20.4001ZM8.40039 5.4001H7.40039C7.40039 5.84193 7.04222 6.2001 6.60039 6.2001V7.2001V8.2001C8.14679 8.2001 9.40039 6.94649 9.40039 5.4001H8.40039ZM6.60039 7.2001V6.2001C6.15856 6.2001 5.80039 5.84193 5.80039 5.4001H4.80039H3.80039C3.80039 6.94649 5.05399 8.2001 6.60039 8.2001V7.2001ZM4.80039 5.4001H5.80039C5.80039 4.95827 6.15856 4.6001 6.60039 4.6001V3.6001V2.6001C5.05399 2.6001 3.80039 3.8537 3.80039 5.4001H4.80039ZM6.60039 3.6001V4.6001C7.04222 4.6001 7.40039 4.95827 7.40039 5.4001H8.40039H9.40039C9.40039 3.8537 8.14679 2.6001 6.60039 2.6001V3.6001ZM2.40039 20.4001L3.18126 21.0248L8.46126 14.4248L7.68039 13.8001L6.89952 13.1754L1.61952 19.7754L2.40039 20.4001ZM7.68039 13.8001L6.89952 14.4248L8.81952 16.8248L9.60039 16.2001L10.3813 15.5754L8.46126 13.1754L7.68039 13.8001ZM9.60039 16.2001L10.3813 16.8248L14.7013 11.4248L13.9204 10.8001L13.1395 10.1754L8.81952 15.5754L9.60039 16.2001ZM13.9204 10.8001L13.1395 11.4248L20.8195 21.0248L21.6004 20.4001L22.3813 19.7754L14.7013 10.1754L13.9204 10.8001ZM21.6004 20.4001V19.4001H2.40039V20.4001V21.4001H21.6004V20.4001Z" fill="black"/>
</svg>
