<svg width="24" height="24" viewBox="0 0 24 24" fill="none" xmlns="http://www.w3.org/2000/svg">
<path d="M19.4004 15.6C19.4004 16.1522 19.8481 16.6 20.4004 16.6C20.9527 16.6 21.4004 16.1522 21.4004 15.6H20.4004H19.4004ZM2.60039 15.6C2.60039 16.1522 3.04811 16.6 3.60039 16.6C4.15268 16.6 4.60039 16.1522 4.60039 15.6H3.60039H2.60039ZM5.70039 4.19995V5.19995H18.3004V4.19995V3.19995H5.70039V4.19995ZM20.4004 6.23072H19.4004V15.6H20.4004H21.4004V6.23072H20.4004ZM3.60039 15.6H4.60039V6.23072H3.60039H2.60039V15.6H3.60039ZM18.3004 4.19995V5.19995C18.9398 5.19995 19.4004 5.69278 19.4004 6.23072H20.4004H21.4004C21.4004 4.52554 19.9806 3.19995 18.3004 3.19995V4.19995ZM5.70039 4.19995V3.19995C4.02017 3.19995 2.60039 4.52554 2.60039 6.23072H3.60039H4.60039C4.60039 5.69278 5.06101 5.19995 5.70039 5.19995V4.19995ZM3.60039 16.2V17.2H20.4004V16.2V15.2H3.60039V16.2ZM21.6004 17.4H20.6004V18.6H21.6004H22.6004V17.4H21.6004ZM20.4004 19.8V18.8H3.60039V19.8V20.7999H20.4004V19.8ZM2.40039 18.6H3.40039V17.4H2.40039H1.40039V18.6H2.40039ZM3.60039 19.8V18.8C3.48993 18.8 3.40039 18.7104 3.40039 18.6H2.40039H1.40039C1.40039 19.815 2.38536 20.7999 3.60039 20.7999V19.8ZM21.6004 18.6H20.6004C20.6004 18.7104 20.5108 18.8 20.4004 18.8V19.8V20.7999C21.6154 20.7999 22.6004 19.815 22.6004 18.6H21.6004ZM20.4004 16.2V17.2C20.5108 17.2 20.6004 17.2895 20.6004 17.4H21.6004H22.6004C22.6004 16.1849 21.6154 15.2 20.4004 15.2V16.2ZM3.60039 16.2V15.2C2.38536 15.2 1.40039 16.1849 1.40039 17.4H2.40039H3.40039C3.40039 17.2895 3.48993 17.2 3.60039 17.2V16.2Z" fill="black"/>
</svg>
