<svg width="24" height="24" viewBox="0 0 24 24" fill="none" xmlns="http://www.w3.org/2000/svg">
<path d="M10.0004 9.5999C10.0004 9.04762 9.55267 8.5999 9.00039 8.5999C8.44811 8.5999 8.00039 9.04762 8.00039 9.5999H9.00039H10.0004ZM8.00039 21.5999C8.00039 22.1522 8.44811 22.5999 9.00039 22.5999C9.55267 22.5999 10.0004 22.1522 10.0004 21.5999H9.00039H8.00039ZM6.00039 2.3999V3.3999H18.0004V2.3999V1.3999H6.00039V2.3999ZM21.6004 5.9999H20.6004V17.9999H21.6004H22.6004V5.9999H21.6004ZM18.0004 21.5999V20.5999H6.00039V21.5999V22.5999H18.0004V21.5999ZM2.40039 17.9999H3.40039V5.9999H2.40039H1.40039V17.9999H2.40039ZM6.00039 21.5999V20.5999C4.56445 20.5999 3.40039 19.4358 3.40039 17.9999H2.40039H1.40039C1.40039 20.5404 3.45988 22.5999 6.00039 22.5999V21.5999ZM21.6004 17.9999H20.6004C20.6004 19.4358 19.4363 20.5999 18.0004 20.5999V21.5999V22.5999C20.5409 22.5999 22.6004 20.5404 22.6004 17.9999H21.6004ZM18.0004 2.3999V3.3999C19.4363 3.3999 20.6004 4.56396 20.6004 5.9999H21.6004H22.6004C22.6004 3.45939 20.5409 1.3999 18.0004 1.3999V2.3999ZM6.00039 2.3999V1.3999C3.45988 1.3999 1.40039 3.45939 1.40039 5.9999H2.40039H3.40039C3.40039 4.56396 4.56445 3.3999 6.00039 3.3999V2.3999ZM9.00039 9.5999H8.00039V21.5999H9.00039H10.0004V9.5999H9.00039ZM3.00039 8.9999V9.9999H21.0004V8.9999V7.9999H3.00039V8.9999Z" fill="black"/>
</svg>
