<svg width="24" height="24" viewBox="0 0 24 24" fill="none" xmlns="http://www.w3.org/2000/svg">
<path d="M10.012 7.45264L6.85341 7.45264C5.67376 7.45264 4.53204 7.91599 3.69479 8.76564C2.85754 9.61528 2.38187 10.7545 2.40095 11.971C2.38182 13.1875 2.85768 14.3269 3.69479 15.1764C4.551 16.0453 5.65461 16.5088 6.83431 16.5088H9.99289M13.9888 16.5474H17.1474C18.327 16.5474 19.4687 16.084 20.306 15.2344C21.1432 14.3847 21.6189 13.2455 21.5998 12.029C21.5998 10.8319 21.1241 9.69263 20.2869 8.84298C19.4497 7.99333 18.3271 7.51062 17.1474 7.5106H13.9888M7.25283 11.9578L16.7286 11.9578" stroke="black" stroke-width="2" stroke-linecap="round" stroke-linejoin="round"/>
</svg>
