<svg width="24" height="24" viewBox="0 0 24 24" fill="none" xmlns="http://www.w3.org/2000/svg">
<path d="M2.99961 7.20002L20.9996 7.20002M2.99961 16.8L20.9996 16.8M11.9996 2.40002L11.9996 21.6M16.7996 2.40002L16.7996 7.20002M16.7996 16.8L16.7996 21.6M7.19961 2.40002L7.19961 7.20002M7.19961 16.8L7.19961 21.6M5.9995 2.40002L17.9996 2.40003C19.9878 2.40003 21.5996 4.0118 21.5996 6.00003L21.5996 18C21.5996 19.9883 19.9878 21.6 17.9996 21.6L5.9995 21.6C4.01127 21.6 2.3995 19.9882 2.3995 18L2.3995 6.00002C2.3995 4.0118 4.01127 2.40002 5.9995 2.40002Z" stroke="black" stroke-width="2" stroke-linecap="round" stroke-linejoin="round"/>
</svg>
