<svg width="24" height="24" viewBox="0 0 24 24" fill="none" xmlns="http://www.w3.org/2000/svg">
<path d="M22.5994 12.5998C22.5994 12.0475 22.1517 11.5998 21.5994 11.5998C21.0471 11.5998 20.5994 12.0475 20.5994 12.5998H21.5994H22.5994ZM20.7839 16.4778L19.8693 16.0734C19.7936 16.2447 19.7675 16.4338 19.794 16.6192L20.7839 16.4778ZM16.6983 20.9732L16.9408 20.003C16.693 19.9411 16.4308 19.9763 16.2081 20.1015L16.6983 20.9732ZM21.6012 22.1989L21.3587 23.169C21.6817 23.2498 22.0237 23.1645 22.271 22.9415C22.5182 22.7185 22.6383 22.3871 22.5912 22.0575L21.6012 22.1989ZM10.3858 4.15076C10.9284 4.04783 11.2848 3.52452 11.1819 2.98191C11.079 2.4393 10.5557 2.08287 10.013 2.1858L10.1994 3.16828L10.3858 4.15076ZM21.5994 12.5998H20.5994C20.5994 13.8379 20.3384 15.0124 19.8693 16.0734L20.7839 16.4778L21.6985 16.8821C22.2781 15.5713 22.5994 14.1217 22.5994 12.5998H21.5994ZM11.9994 22.1998V21.1998C7.24977 21.1998 3.39941 17.3495 3.39941 12.5998H2.39941H1.39941C1.39941 18.454 6.1452 23.1998 11.9994 23.1998V22.1998ZM16.6983 20.9732L16.2081 20.1015C14.9649 20.8007 13.5303 21.1998 11.9994 21.1998V22.1998V23.1998C13.8825 23.1998 15.6538 22.7079 17.1885 21.8448L16.6983 20.9732ZM21.6012 22.1989L21.8438 21.2288L16.9408 20.003L16.6983 20.9732L16.4558 21.9433L21.3587 23.169L21.6012 22.1989ZM20.7839 16.4778L19.794 16.6192L20.6113 22.3403L21.6012 22.1989L22.5912 22.0575L21.7739 16.3363L20.7839 16.4778ZM2.39941 12.5998H3.39941C3.39941 8.4024 6.40745 4.90542 10.3858 4.15076L10.1994 3.16828L10.013 2.1858C5.10828 3.1162 1.39941 7.4238 1.39941 12.5998H2.39941ZM21.5994 5.3998H20.5994C20.5994 6.83575 19.4354 7.9998 17.9994 7.9998V8.9998V9.99981C20.5399 9.99981 22.5994 7.94031 22.5994 5.3998H21.5994ZM17.9994 8.9998V7.9998C16.5635 7.9998 15.3994 6.83575 15.3994 5.3998H14.3994H13.3994C13.3994 7.94031 15.4589 9.99981 17.9994 9.99981V8.9998ZM14.3994 5.3998H15.3994C15.3994 3.96386 16.5635 2.7998 17.9994 2.7998V1.7998V0.799805C15.4589 0.799805 13.3994 2.8593 13.3994 5.3998H14.3994ZM17.9994 1.7998V2.7998C19.4354 2.7998 20.5994 3.96386 20.5994 5.3998H21.5994H22.5994C22.5994 2.8593 20.5399 0.799805 17.9994 0.799805V1.7998Z" fill="black"/>
</svg>
