<svg width="24" height="24" viewBox="0 0 24 24" fill="none" xmlns="http://www.w3.org/2000/svg">
<path d="M11.6873 17.1911V16.1911C11.4221 16.1911 11.1678 16.2965 10.9802 16.484L11.6873 17.1911ZM6.67865 22.1998H5.67865C5.67865 22.6043 5.92229 22.9689 6.29597 23.1237C6.66964 23.2785 7.09976 23.1929 7.38576 22.9069L6.67865 22.1998ZM6.67865 17.1911H7.67865C7.67865 16.6388 7.23094 16.1911 6.67865 16.1911V17.1911ZM10.8004 3.9998C11.3527 3.9998 11.8004 3.55209 11.8004 2.9998C11.8004 2.44752 11.3527 1.9998 10.8004 1.9998V2.9998V3.9998ZM22.6004 11.9998C22.6004 11.4475 22.1527 10.9998 21.6004 10.9998C21.0481 10.9998 20.6004 11.4475 20.6004 11.9998H21.6004H22.6004ZM11.6873 17.1911L10.9802 16.484L5.97154 21.4927L6.67865 22.1998L7.38576 22.9069L12.3945 17.8982L11.6873 17.1911ZM6.67865 22.1998H7.67865V17.1911H6.67865H5.67865V22.1998H6.67865ZM6.67865 17.1911V16.1911H4.80039V17.1911V18.1911H6.67865V17.1911ZM2.40039 14.7911H3.40039V5.39981H2.40039H1.40039V14.7911H2.40039ZM19.2004 17.1911V16.1911H11.6873V17.1911V18.1911H19.2004V17.1911ZM4.80039 2.9998V3.9998H10.8004V2.9998V1.9998H4.80039V2.9998ZM21.6004 11.9998H20.6004V14.7911H21.6004H22.6004V11.9998H21.6004ZM19.2004 17.1911V18.1911C21.0782 18.1911 22.6004 16.6689 22.6004 14.7911H21.6004H20.6004C20.6004 15.5643 19.9736 16.1911 19.2004 16.1911V17.1911ZM2.40039 5.39981H3.40039C3.40039 4.62661 4.02719 3.9998 4.80039 3.9998V2.9998V1.9998C2.92262 1.9998 1.40039 3.52204 1.40039 5.39981H2.40039ZM4.80039 17.1911V16.1911C4.02719 16.1911 3.40039 15.5643 3.40039 14.7911H2.40039H1.40039C1.40039 16.6689 2.92262 18.1911 4.80039 18.1911V17.1911ZM21.6004 5.3998H20.6004C20.6004 6.83575 19.4363 7.9998 18.0004 7.9998V8.9998V9.99981C20.5409 9.99981 22.6004 7.94031 22.6004 5.3998H21.6004ZM18.0004 8.9998V7.9998C16.5644 7.9998 15.4004 6.83575 15.4004 5.3998H14.4004H13.4004C13.4004 7.94031 15.4599 9.99981 18.0004 9.99981V8.9998ZM14.4004 5.3998H15.4004C15.4004 3.96386 16.5644 2.7998 18.0004 2.7998V1.7998V0.799805C15.4599 0.799805 13.4004 2.8593 13.4004 5.3998H14.4004ZM18.0004 1.7998V2.7998C19.4363 2.7998 20.6004 3.96386 20.6004 5.3998H21.6004H22.6004C22.6004 2.8593 20.5409 0.799805 18.0004 0.799805V1.7998Z" fill="black"/>
</svg>
