<svg width="24" height="24" viewBox="0 0 24 24" fill="none" xmlns="http://www.w3.org/2000/svg">
<path d="M7.79259 6.5162V12.0044C7.79259 13.0961 8.22625 14.1431 8.99819 14.915C9.77012 15.687 10.8171 16.1206 11.9088 16.1206C13.0004 16.1206 14.0474 15.687 14.8193 14.915C15.0345 14.6999 15.2233 14.4634 15.3838 14.2106M2.40039 13.3765C2.73283 15.6607 3.87655 17.7488 5.62231 19.2589C7.36807 20.769 9.59915 21.6 11.9074 21.6C14.2156 21.6 16.4467 20.769 18.1925 19.2589C19.9382 17.7488 21.082 15.6607 21.4144 13.3765M16.0249 9.00002V6.5162C16.0249 5.42453 15.5913 4.37756 14.8193 3.60563C14.0474 2.83369 13.0004 2.40002 11.9088 2.40002C11.1477 2.40002 10.4084 2.6108 9.76878 3.00002M4.20039 2.40002L21.6004 19.8" stroke="black" stroke-width="2" stroke-linecap="round" stroke-linejoin="round"/>
</svg>
