<svg width="24" height="24" viewBox="0 0 24 24" fill="none" xmlns="http://www.w3.org/2000/svg">
<path d="M4.39746 11.1772C4.66329 13.0037 5.57784 14.6734 6.97381 15.8809C8.36977 17.0884 10.1538 17.753 11.9996 17.753M11.9996 17.753C13.8453 17.753 15.6294 17.0884 17.0253 15.8809C18.4213 14.6734 19.3358 13.0037 19.6017 11.1772M11.9996 17.753V21.6M12.0007 2.40002C11.1277 2.40002 10.2905 2.7468 9.67327 3.36406C9.05601 3.98132 8.70923 4.81851 8.70923 5.69145V10.08C8.70923 10.953 9.05601 11.7902 9.67327 12.4074C10.2905 13.0247 11.1277 13.3715 12.0007 13.3715C12.8736 13.3715 13.7108 13.0247 14.3281 12.4074C14.9453 11.7902 15.2921 10.953 15.2921 10.08V5.69145C15.2921 4.81851 14.9453 3.98132 14.3281 3.36406C13.7108 2.7468 12.8736 2.40002 12.0007 2.40002Z" stroke="black" stroke-width="2" stroke-linecap="round" stroke-linejoin="round"/>
</svg>
