<svg width="24" height="24" viewBox="0 0 24 24" fill="none" xmlns="http://www.w3.org/2000/svg">
<path d="M2.49316 13.3765C2.8256 15.6607 3.96932 17.7488 5.71508 19.2589C7.46084 20.769 9.69192 21.6 12.0002 21.6C14.3084 21.6 16.5395 20.769 18.2853 19.2589C20.031 17.7488 21.1747 15.6607 21.5072 13.3765M12.0015 2.40002C10.9099 2.40002 9.86289 2.83369 9.09096 3.60563C8.31903 4.37756 7.88536 5.42453 7.88536 6.51621V12.0044C7.88536 13.0961 8.31903 14.1431 9.09096 14.915C9.86289 15.687 10.9099 16.1206 12.0015 16.1206C13.0932 16.1206 14.1402 15.687 14.9121 14.915C15.6841 14.1431 16.1177 13.0961 16.1177 12.0044V6.51621C16.1177 5.42453 15.6841 4.37756 14.9121 3.60563C14.1402 2.83369 13.0932 2.40002 12.0015 2.40002Z" stroke="black" stroke-width="2" stroke-linecap="round" stroke-linejoin="round"/>
</svg>
