<svg width="24" height="24" viewBox="0 0 24 24" fill="none" xmlns="http://www.w3.org/2000/svg">
<path d="M9.17561 3.36406C9.79288 2.7468 10.6301 2.40002 11.503 2.40002C12.3759 2.40002 13.2131 2.7468 13.8304 3.36406C14.4477 3.98132 14.7944 4.81851 14.7944 5.69145V9.00002M3.8998 11.1772C4.16563 13.0037 5.08019 14.6734 6.47615 15.8809C7.87212 17.0884 9.65616 17.753 11.5019 17.753M11.5019 17.753C13.3477 17.753 15.1317 17.0884 16.5277 15.8809C17.9236 14.6734 18.8382 13.0037 19.104 11.1772M11.5019 17.753V21.6M8.21158 7.80002V10.08C8.21158 10.953 8.55835 11.7902 9.17561 12.4074C9.79288 13.0247 10.6301 13.3715 11.503 13.3715C12.0615 13.3715 12.6054 13.2295 13.0864 12.9656M3.2998 2.40002L20.6998 19.8" stroke="black" stroke-width="2" stroke-linecap="round" stroke-linejoin="round"/>
</svg>
