<svg width="24" height="24" viewBox="0 0 24 24" fill="none" xmlns="http://www.w3.org/2000/svg">
<path d="M18.8996 11.7003V8.70034M18.8996 8.70034V5.70034M18.8996 8.70034L21.8996 8.70034M18.8996 8.70034H15.8996M14.0996 5.70034V3.90034M14.0996 3.90034V2.10034M14.0996 3.90034L15.8996 3.90034M14.0996 3.90034L12.2996 3.90034M21.2995 14.9398C20.3972 15.2134 19.44 15.3605 18.4483 15.3605C13.0303 15.3605 8.63815 10.9684 8.63815 5.55037C8.63815 4.55915 8.78515 3.60227 9.05855 2.70034C5.03112 3.92172 2.09961 7.66338 2.09961 12.0897C2.09961 17.5077 6.49177 21.8999 11.9098 21.8999C16.3366 21.8999 20.0785 18.9678 21.2995 14.9398Z" stroke="black" stroke-width="2" stroke-linecap="round" stroke-linejoin="round"/>
</svg>
