<svg width="24" height="24" viewBox="0 0 24 24" fill="none" xmlns="http://www.w3.org/2000/svg">
<path d="M9.58636 16.8181C9.29258 16.1782 8.08928 15.2441 7.78987 15.1093C7.10493 14.7265 6.30864 14.5731 5.5245 14.6731C4.74036 14.773 4.01218 15.1206 3.4529 15.662C2.89361 16.2033 2.53447 16.9082 2.43117 17.6674C2.32787 18.4265 2.48619 19.1974 2.88156 19.8605C3.27694 20.5236 3.88728 21.042 4.61794 21.3351C5.3486 21.6282 6.15874 21.6797 6.92273 21.4817C7.68672 21.2836 8.36186 20.8471 8.84346 20.2397C9.32505 19.6323 9.58619 18.8881 9.58637 18.1225V5.91017C9.58637 5.44269 9.91025 5.03758 10.3663 4.93469L21.6004 2.40002L21.6003 15.64M21.6003 15.64L21.6004 16.9446C21.6002 17.7103 21.3391 18.4545 20.8575 19.0619C20.3759 19.6692 19.7007 20.1058 18.9368 20.3038C18.1728 20.5019 17.3626 20.4504 16.632 20.1572C15.9013 19.8641 15.291 19.3458 14.8956 18.6827C14.5002 18.0196 14.3419 17.2487 14.4452 16.4896C14.5485 15.7304 14.9076 15.0255 15.4669 14.4841C16.0262 13.9428 16.7544 13.5952 17.5385 13.4952C18.3227 13.3953 19.119 13.5487 19.8039 13.9315C20.1033 14.0663 21.3063 15.0002 21.6003 15.64Z" stroke="black" stroke-width="2" stroke-linecap="round" stroke-linejoin="round"/>
</svg>
