<svg width="24" height="24" viewBox="0 0 24 24" fill="none" xmlns="http://www.w3.org/2000/svg">
<path d="M7.20039 8.7999H4.80039C3.47491 8.7999 2.40039 9.87442 2.40039 11.1999C2.40039 12.5254 2.40039 17.8744 2.40039 19.1999C2.40039 20.5254 3.47491 21.5999 4.80039 21.5999C4.80039 21.5999 11.4749 21.5999 12.8004 21.5999C14.1259 21.5999 15.2004 20.5254 15.2004 19.1999V16.1999M19.2004 2.3999L11.2004 2.3999C9.87491 2.3999 8.80039 3.47442 8.80039 4.7999C8.80039 6.12539 8.80039 11.4744 8.80039 12.7999C8.80039 14.1254 9.87491 15.1999 11.2004 15.1999C11.2004 15.1999 17.8749 15.1999 19.2004 15.1999C20.5259 15.1999 21.6004 14.1254 21.6004 12.7999V4.7999C21.6004 3.47442 20.5259 2.3999 19.2004 2.3999Z" stroke="black" stroke-width="2" stroke-linecap="round" stroke-linejoin="round"/>
</svg>
