<svg width="24" height="24" viewBox="0 0 24 24" fill="none" xmlns="http://www.w3.org/2000/svg">
<path d="M17.9128 11.3598C17.9265 11.8878 17.7319 12.4202 17.3289 12.8232L12.1679 17.9842C11.3884 18.7636 10.1247 18.7636 9.34522 17.9842L4.1842 12.8232C3.78125 12.4202 3.58661 11.8878 3.60028 11.3598M17.9128 11.3598C17.9012 10.9108 17.7389 10.4649 17.4259 10.1045C17.3898 10.025 17.339 9.95052 17.2736 9.88513L10.8474 3.45889M17.9128 11.3598H3.60028M3.60028 11.3598C3.61306 10.8665 3.8077 10.377 4.1842 10.0005C4.3169 9.86779 10.8474 3.45889 10.8474 3.45889M10.8474 3.45889L9.78886 2.40039M4.61013 21.6004H15.2206M19.5491 15.1941C19.4863 15.0949 19.3787 15.0318 19.2621 15.0318C19.1454 15.0318 19.0378 15.095 18.975 15.1941C18.7507 15.5637 18.0242 16.8258 18.0242 17.3758C18.0242 18.0609 18.5803 18.6199 19.2621 18.6199C19.9438 18.6199 20.5 18.061 20.5 17.3758C20.5 16.8168 19.7734 15.5637 19.5491 15.1941Z" stroke="black" stroke-width="2" stroke-linecap="round" stroke-linejoin="round"/>
</svg>
