<svg width="24" height="24" viewBox="0 0 24 24" fill="none" xmlns="http://www.w3.org/2000/svg">
<path d="M12.0006 5.9999V6.03313M6.03362 12.0002H6.00039M16.2433 7.75745L16.2199 7.78095M7.78157 16.2192L7.75807 16.2427M7.78157 7.78057L7.75807 7.75707M12.0004 21.5999C6.69846 21.5999 2.40039 17.3018 2.40039 11.9999C2.40039 6.69797 6.69846 2.3999 12.0004 2.3999C17.3023 2.3999 21.6004 6.69797 21.6004 11.9999C21.6004 13.614 20.109 14.6879 18.495 14.6879H17.8684C17.5448 14.6879 17.2257 14.7632 16.9364 14.9079C15.9069 15.4226 15.4897 16.6744 16.0044 17.7039C16.1491 17.9932 16.2244 18.3123 16.2244 18.6359V18.825C16.2244 19.9256 15.6068 20.9678 14.5454 21.2589C13.7349 21.4812 12.8815 21.5999 12.0004 21.5999Z" stroke="black" stroke-width="2" stroke-linecap="round" stroke-linejoin="round"/>
</svg>
