<svg width="24" height="24" viewBox="0 0 24 24" fill="none" xmlns="http://www.w3.org/2000/svg">
<path d="M6.52928 9.30234H6.66931M12.0004 9.30234H12.1404M17.3299 9.30234H17.4699M11.4004 14.7023H4.53372C3.35552 14.7023 2.40039 13.7472 2.40039 12.569V6.03568C2.40039 4.85747 3.35552 3.90234 4.53372 3.90234H19.4671C20.6453 3.90234 21.6004 4.85747 21.6004 6.03568V9.30234M15.4116 13.5974L16.8016 12.9024C17.8151 12.3957 19.0081 12.3957 20.0216 12.9024L21.4116 13.5974C21.4116 13.5974 21.4116 15.7874 21.4116 16.9424C21.4116 18.0974 20.3439 18.8771 18.4116 20.0974C16.4792 18.8771 15.4116 17.8474 15.4116 16.9424V13.5974Z" stroke="black" stroke-width="2" stroke-linecap="round" stroke-linejoin="round"/>
</svg>
