<svg width="24" height="24" viewBox="0 0 24 24" fill="none" xmlns="http://www.w3.org/2000/svg">
<path d="M21.6004 8.43066L18.6004 5.43066M18.6004 5.43066L15.6004 2.43066M18.6004 5.43066L15.6004 8.43066M18.6004 5.43066L21.6004 2.43066M19.9333 19.3708C19.9333 19.3708 18.7747 20.5088 18.4907 20.8425C18.0282 21.336 17.4832 21.5691 16.7688 21.5691C16.7001 21.5691 16.6268 21.5691 16.5581 21.5646C15.1979 21.4777 13.9339 20.9476 12.9859 20.4951C10.3938 19.2428 8.11773 17.465 6.22631 15.2118C4.66463 13.3334 3.62046 11.5967 2.92893 9.73196C2.50302 8.59394 2.34731 7.70729 2.416 6.87092C2.4618 6.33619 2.66789 5.89287 3.048 5.51353L4.60968 3.95505C4.83408 3.74481 5.07223 3.63055 5.30579 3.63055C5.59431 3.63055 5.82788 3.80422 5.97443 3.95048C5.97901 3.95505 5.98359 3.95962 5.98817 3.96419C6.26753 4.2247 6.53315 4.49435 6.81251 4.78228C6.95448 4.92853 7.10103 5.07478 7.24758 5.2256L8.49784 6.4733C8.98329 6.95776 8.98329 7.40565 8.49784 7.89011C8.36503 8.02265 8.2368 8.15519 8.10399 8.28316C7.71929 8.67621 8.02149 8.37462 7.62306 8.73111C7.6139 8.74025 7.60474 8.74482 7.60016 8.75396C7.2063 9.14701 7.27958 9.53092 7.36201 9.79143C7.36659 9.80514 7.37117 9.81885 7.37575 9.83256C7.70091 10.6187 8.15888 11.3591 8.855 12.2411L8.85958 12.2457C10.1236 13.7996 11.4563 15.0108 12.9263 15.9385C13.1141 16.0574 13.3065 16.1533 13.4896 16.2447C13.6545 16.327 13.8102 16.4047 13.943 16.487C13.9614 16.4961 13.9797 16.5098 13.998 16.519C14.1537 16.5967 14.3003 16.6332 14.4514 16.6332C14.8315 16.6332 15.0696 16.3956 15.1475 16.3179L16.0452 15.422C16.2009 15.2666 16.4482 15.0793 16.7367 15.0793C17.0207 15.0793 17.2542 15.2575 17.3962 15.4129C17.4008 15.4175 17.4008 15.4175 17.4054 15.422L19.9288 17.9403C20.4005 18.4065 19.9333 19.3708 19.9333 19.3708Z" stroke="black" stroke-width="2" stroke-linecap="round" stroke-linejoin="round"/>
</svg>
