<svg width="24" height="24" viewBox="0 0 24 24" fill="none" xmlns="http://www.w3.org/2000/svg">
<path d="M8.79044 9.07197C9.66452 8.44882 10.6981 8.12236 11.7828 8.12125C12.8675 8.12014 13.8976 8.44734 14.7732 9.06585M6.45533 6.50824C8.0121 5.402 9.85663 4.81782 11.7833 4.81299C13.7129 4.81102 15.5534 5.39429 17.1079 6.49735M2.41982 18.267C2.41982 18.267 2.43271 16.8341 2.4017 16.4488C2.38233 15.8522 2.57693 15.3668 3.02267 14.921C3.06553 14.8782 3.11124 14.8325 3.15696 14.7925C4.05975 13.998 5.17914 13.5402 6.0529 13.231C8.45144 12.3951 10.9807 12.0842 13.5666 12.3099C15.7129 12.5075 17.4479 12.9396 19.0428 13.6716C20.0185 14.1159 20.6688 14.5719 21.1478 15.1366C21.4529 15.4988 21.6009 15.9039 21.6004 16.3778L21.5984 18.3245C21.5896 18.5956 21.5123 18.8155 21.3665 18.9612C21.1865 19.1412 20.9325 19.1786 20.7498 19.1788C20.7441 19.1788 20.7384 19.1788 20.7326 19.1788C20.3958 19.1906 20.0619 19.1881 19.7079 19.1827C19.5281 19.18 19.3454 19.1802 19.1599 19.1776L17.6014 19.1792C16.9962 19.1798 16.7168 18.9003 16.7174 18.2952C16.7176 18.1296 16.7149 17.9669 16.7179 17.8042C16.7127 17.319 16.7123 17.6957 16.7385 17.2247C16.7385 17.2133 16.7414 17.2047 16.7385 17.1962C16.739 16.7052 16.4538 16.5114 16.2398 16.4003C16.2284 16.3946 16.217 16.3889 16.2056 16.3832C15.5123 16.0956 14.7646 15.9194 13.78 15.8034L13.7742 15.8034C12.0161 15.6225 10.429 15.6984 8.93296 16.0367C8.74168 16.0797 8.56179 16.1398 8.39047 16.1971C8.23628 16.2486 8.09065 16.2973 7.95647 16.3288C7.93933 16.3346 7.91935 16.3374 7.90222 16.3432C7.75659 16.3918 7.64235 16.4605 7.54806 16.5548C7.3109 16.7919 7.3106 17.0888 7.3105 17.1858L7.30935 18.3048C7.30915 18.4989 7.27177 18.7701 7.09176 18.9501C6.91461 19.1273 6.65768 19.1618 6.47215 19.1534C6.46644 19.1534 6.46644 19.1534 6.46073 19.1534L3.31519 19.1567C2.73004 19.1601 2.41982 18.267 2.41982 18.267Z" stroke="black" stroke-width="2" stroke-linecap="round" stroke-linejoin="round"/>
</svg>
