<svg width="24" height="24" viewBox="0 0 24 24" fill="none" xmlns="http://www.w3.org/2000/svg">
<path d="M16.094 2.71582L21.5979 2.71582M21.5979 2.71582L21.6004 7.57935M21.5979 2.71582L15.3449 8.96885M20.4369 19.0225C20.4369 19.0225 19.2449 20.1932 18.9528 20.5364C18.477 21.0442 17.9164 21.284 17.1814 21.284C17.1108 21.284 17.0354 21.284 16.9647 21.2793C15.5655 21.1899 14.2652 20.6445 13.29 20.1791C10.6234 18.8908 8.28192 17.0619 6.33619 14.744C4.72966 12.8117 3.6555 11.0251 2.94411 9.10682C2.50596 7.93613 2.34578 7.02402 2.41645 6.16362C2.46356 5.61354 2.67557 5.15748 3.0666 4.76725L4.67313 3.16401C4.90398 2.94773 5.14896 2.83019 5.38923 2.83019C5.68604 2.83019 5.92631 3.00885 6.07707 3.1593C6.08178 3.16401 6.08649 3.16871 6.0912 3.17341C6.37859 3.4414 6.65184 3.71879 6.93922 4.01499C7.08527 4.16545 7.23603 4.3159 7.38679 4.47105L8.67295 5.75459C9.17234 6.25295 9.17234 6.71371 8.67295 7.21208C8.53633 7.34843 8.40441 7.48477 8.26779 7.61642C7.87204 8.02075 8.18292 7.71051 7.77305 8.07723C7.76363 8.08664 7.7542 8.09134 7.74949 8.10074C7.34433 8.50508 7.41971 8.90001 7.50451 9.168C7.50922 9.18211 7.51393 9.19621 7.51864 9.21032C7.85314 10.019 8.32426 10.7807 9.04037 11.6881L9.04508 11.6928C10.3454 13.2913 11.7163 14.5372 13.2286 15.4917C13.4218 15.6139 13.6197 15.7126 13.8081 15.8067C13.9777 15.8913 14.1379 15.9712 14.2745 16.0558C14.2934 16.0652 14.3122 16.0793 14.3311 16.0888C14.4912 16.1687 14.642 16.2063 14.7975 16.2063C15.1885 16.2063 15.4335 15.9618 15.5136 15.8819L16.437 14.9603C16.5972 14.8005 16.8516 14.6077 17.1484 14.6077C17.4405 14.6077 17.6808 14.7911 17.8269 14.9509C17.8316 14.9556 17.8316 14.9556 17.8363 14.9603L20.4322 17.5509C20.9174 18.0305 20.4369 19.0225 20.4369 19.0225Z" stroke="black" stroke-width="2" stroke-linecap="round" stroke-linejoin="round"/>
</svg>
