<svg width="24" height="24" viewBox="0 0 24 24" fill="none" xmlns="http://www.w3.org/2000/svg">
<path d="M17.2964 9.89174L13.4045 5.99988M13.4045 5.99988L16.8418 2.55908M13.4045 5.99988L22.2476 5.99988M19.7894 19.1791C19.7894 19.1791 18.5975 20.3498 18.3054 20.693C17.8295 21.2008 17.2689 21.4406 16.534 21.4406C16.4633 21.4406 16.3879 21.4406 16.3172 21.4359C14.918 21.3465 13.6177 20.8011 12.6425 20.3357C9.97594 19.0475 7.63446 17.2185 5.68873 14.9006C4.0822 12.9683 3.00804 11.1817 2.29665 9.26343C1.8585 8.09273 1.69832 7.18062 1.76899 6.32023C1.8161 5.77014 2.02811 5.31409 2.41914 4.92386L4.02566 3.32061C4.25651 3.10434 4.5015 2.9868 4.74177 2.9868C5.03858 2.9868 5.27885 3.16546 5.42961 3.31591C5.43432 3.32061 5.43903 3.32531 5.44374 3.33002C5.73113 3.59801 6.00438 3.8754 6.29176 4.1716C6.43781 4.32205 6.58857 4.4725 6.73933 4.62766L8.02549 5.91119C8.52488 6.40956 8.52488 6.87032 8.02549 7.36869C7.88887 7.50503 7.75695 7.64138 7.62033 7.77302C7.22458 8.17736 7.53546 7.86712 7.12559 8.23384C7.11616 8.24324 7.10674 8.24794 7.10203 8.25735C6.69686 8.66169 6.77224 9.05662 6.85705 9.32461C6.86176 9.33871 6.86647 9.35282 6.87118 9.36692C7.20568 10.1756 7.6768 10.9373 8.39291 11.8447L8.39762 11.8494C9.69791 13.4479 11.0689 14.6938 12.5812 15.6483C12.7743 15.7705 12.9722 15.8692 13.1607 15.9633C13.3303 16.0479 13.4904 16.1278 13.6271 16.2124C13.6459 16.2218 13.6648 16.236 13.6836 16.2454C13.8438 16.3253 13.9945 16.3629 14.15 16.3629C14.541 16.3629 14.786 16.1184 14.8661 16.0385L15.7896 15.1169C15.9498 14.9571 16.2042 14.7643 16.501 14.7643C16.7931 14.7643 17.0333 14.9477 17.1794 15.1075C17.1841 15.1122 17.1841 15.1122 17.1888 15.1169L19.7847 17.7075C20.27 18.1871 19.7894 19.1791 19.7894 19.1791Z" stroke="black" stroke-width="2" stroke-linecap="round" stroke-linejoin="round"/>
</svg>
