<svg width="24" height="24" viewBox="0 0 24 24" fill="none" xmlns="http://www.w3.org/2000/svg">
<path d="M18.3543 2.33301L22.2462 6.22487M22.2462 6.22487L18.8089 9.66567M22.2462 6.22487L13.403 6.22487M19.7894 19.4057C19.7894 19.4057 18.5975 20.5764 18.3054 20.9196C17.8295 21.4274 17.2689 21.6672 16.534 21.6672C16.4633 21.6672 16.3879 21.6672 16.3172 21.6625C14.918 21.5731 13.6177 21.0277 12.6425 20.5623C9.97594 19.274 7.63446 17.4451 5.68873 15.1272C4.0822 13.1949 3.00804 11.4083 2.29665 9.49002C1.8585 8.31932 1.69832 7.40721 1.76899 6.54682C1.8161 5.99673 2.02811 5.54068 2.41914 5.15045L4.02567 3.5472C4.25652 3.33093 4.5015 3.21339 4.74177 3.21339C5.03858 3.21339 5.27885 3.39205 5.42961 3.5425C5.43432 3.5472 5.43903 3.5519 5.44374 3.55661C5.73113 3.8246 6.00438 4.10199 6.29176 4.39819C6.43781 4.54864 6.58857 4.69909 6.73933 4.85425L8.02549 6.13778C8.52488 6.63615 8.52488 7.09691 8.02549 7.59528C7.88887 7.73162 7.75695 7.86797 7.62033 7.99961C7.22459 8.40395 7.53546 8.09371 7.12559 8.46043C7.11617 8.46983 7.10674 8.47454 7.10203 8.48394C6.69687 8.88828 6.77225 9.28321 6.85705 9.5512C6.86176 9.56531 6.86647 9.57941 6.87118 9.59352C7.20568 10.4022 7.6768 11.1638 8.39291 12.0713L8.39762 12.076C9.69792 13.6745 11.0689 14.9204 12.5812 15.8748C12.7743 15.9971 12.9722 16.0958 13.1607 16.1899C13.3303 16.2745 13.4904 16.3544 13.6271 16.439C13.6459 16.4484 13.6648 16.4625 13.6836 16.472C13.8438 16.5519 13.9946 16.5895 14.15 16.5895C14.5411 16.5895 14.786 16.345 14.8661 16.2651L15.7896 15.3435C15.9498 15.1837 16.2042 14.9909 16.501 14.9909C16.7931 14.9909 17.0334 15.1743 17.1794 15.3341C17.1841 15.3388 17.1841 15.3388 17.1888 15.3435L19.7847 17.9341C20.27 18.4137 19.7894 19.4057 19.7894 19.4057Z" stroke="black" stroke-width="2" stroke-linecap="round" stroke-linejoin="round"/>
</svg>
