<svg width="24" height="24" viewBox="0 0 24 24" fill="none" xmlns="http://www.w3.org/2000/svg">
<path d="M15.5998 12.8095L15.0543 11.9714L15.0403 11.9805L15.0267 11.99L15.5998 12.8095ZM15.5998 11.4333L15.0069 12.2385L15.0515 12.2714L15.0995 12.2991L15.5998 11.4333ZM10.0844 7.37199L10.6774 6.56675L10.6491 6.54597L10.6195 6.52722L10.0844 7.37199ZM8.92814 7.9786L9.92814 7.9757L9.92811 7.96694L9.92794 7.95819L8.92814 7.9786ZM8.95127 15.9563L7.95127 15.9592L7.95136 15.9875L7.95304 16.0157L8.95127 15.9563ZM10.1499 16.6211L10.6342 17.4961L10.6801 17.4707L10.7231 17.4406L10.1499 16.6211ZM6.00039 2.40002V3.40002H18.0004V2.40002V1.40002H6.00039V2.40002ZM21.6004 6.00002H20.6004V18H21.6004H22.6004V6.00002H21.6004ZM18.0004 21.6V20.6H6.00039V21.6V22.6H18.0004V21.6ZM2.40039 18H3.40039V6.00002H2.40039H1.40039V18H2.40039ZM6.00039 21.6V20.6C4.56445 20.6 3.40039 19.436 3.40039 18H2.40039H1.40039C1.40039 20.5405 3.45988 22.6 6.00039 22.6V21.6ZM21.6004 18H20.6004C20.6004 19.436 19.4363 20.6 18.0004 20.6V21.6V22.6C20.5409 22.6 22.6004 20.5405 22.6004 18H21.6004ZM18.0004 2.40002V3.40002C19.4363 3.40002 20.6004 4.56408 20.6004 6.00002H21.6004H22.6004C22.6004 3.45951 20.5409 1.40002 18.0004 1.40002V2.40002ZM6.00039 2.40002V1.40002C3.45988 1.40002 1.40039 3.45951 1.40039 6.00002H2.40039H3.40039C3.40039 4.56408 4.56445 3.40002 6.00039 3.40002V2.40002ZM15.5998 12.8095L16.1454 13.6475C16.5798 13.3647 17.1289 12.8604 17.1279 12.1001C17.1268 11.3174 16.5496 10.8272 16.1002 10.5675L15.5998 11.4333L15.0995 12.2991C15.2041 12.3596 15.2234 12.391 15.2088 12.3725C15.1872 12.3449 15.1281 12.2502 15.1279 12.1028C15.1277 11.9592 15.1837 11.8746 15.1925 11.8628C15.1967 11.8571 15.166 11.8986 15.0543 11.9714L15.5998 12.8095ZM15.5998 11.4333L16.1928 10.628L10.6774 6.56675L10.0844 7.37199L9.49147 8.17723L15.0069 12.2385L15.5998 11.4333ZM10.0844 7.37199L10.6195 6.52722C10.1489 6.22911 9.48805 6.0583 8.86304 6.35013C8.18279 6.66775 7.91515 7.35198 7.92835 7.999L8.92814 7.9786L9.92794 7.95819C9.92674 7.89963 9.93893 7.91856 9.90817 7.97741C9.87352 8.04372 9.80583 8.1172 9.70918 8.16233C9.52322 8.24915 9.44819 8.15272 9.54929 8.21676L10.0844 7.37199ZM8.92814 7.9786L7.92815 7.98149L7.95127 15.9592L8.95127 15.9563L9.95127 15.9534L9.92814 7.9757L8.92814 7.9786ZM8.95127 15.9563L7.95304 16.0157C7.98485 16.55 8.17059 17.2623 8.84102 17.6204C9.50112 17.973 10.1884 17.7428 10.6342 17.4961L10.1499 16.6211L9.66572 15.7462C9.5666 15.801 9.52764 15.8041 9.54329 15.8019C9.56694 15.7986 9.6646 15.7929 9.78322 15.8562C9.9035 15.9205 9.95556 16.0078 9.96817 16.0347C9.97649 16.0524 9.95672 16.0181 9.9495 15.8969L8.95127 15.9563ZM10.1499 16.6211L10.7231 17.4406L16.173 13.6289L15.5998 12.8095L15.0267 11.99L9.5768 15.8017L10.1499 16.6211Z" fill="black"/>
</svg>
