<svg width="24" height="24" viewBox="0 0 24 24" fill="none" xmlns="http://www.w3.org/2000/svg">
<path d="M5.36335 2.40039C3.72696 2.40039 2.40039 3.72695 2.40039 5.36335M14.1337 2.40039H9.86706M21.6004 5.36335C21.6004 3.72696 20.2738 2.40039 18.6374 2.40039M2.40039 9.86706V14.1337M21.6004 14.1337V9.86706M2.40039 18.6374C2.40039 20.2738 3.72695 21.6004 5.36335 21.6004M18.6374 21.6004C20.2738 21.6004 21.6004 20.2738 21.6004 18.6374M9.86706 21.6004H14.1337M2.40039 12.0004H9.86706C11.0453 12.0004 12.0004 12.9555 12.0004 14.1337V21.6004H5.60039C3.83308 21.6004 2.40039 20.1677 2.40039 18.4004V12.0004Z" stroke="black" stroke-width="2" stroke-linecap="round"/>
</svg>
