<svg width="24" height="24" viewBox="0 0 24 24" fill="none" xmlns="http://www.w3.org/2000/svg">
<path d="M8.58039 8.58039L21.6004 19.2004M21.6004 4.80039L8.58039 15.4204M6.00039 9.60039C4.01217 9.60039 2.40039 7.98862 2.40039 6.00039C2.40039 4.01217 4.01217 2.40039 6.00039 2.40039C7.98862 2.40039 9.60039 4.01217 9.60039 6.00039C9.60039 7.98862 7.98862 9.60039 6.00039 9.60039ZM6.00039 21.6004C4.01217 21.6004 2.40039 19.9886 2.40039 18.0004C2.40039 16.0122 4.01217 14.4004 6.00039 14.4004C7.98862 14.4004 9.60039 16.0122 9.60039 18.0004C9.60039 19.9886 7.98862 21.6004 6.00039 21.6004Z" stroke="black" stroke-width="2" stroke-linecap="round" stroke-linejoin="round"/>
</svg>
