<svg width="24" height="24" viewBox="0 0 24 24" fill="none" xmlns="http://www.w3.org/2000/svg">
<g clip-path="url(#clip0_8212_7953)">
<path d="M3.6002 9.39554L20.4002 16.8004M20.4002 7.20039L3.6002 14.6052M17.4006 12.0007L17.3771 12.0242M22.224 12.0007L22.2005 12.0242M4.8002 9.60039C2.81197 9.60039 1.2002 7.98862 1.2002 6.00039C1.2002 4.01217 2.81197 2.40039 4.8002 2.40039C6.78842 2.40039 8.4002 4.01217 8.4002 6.00039C8.4002 7.98862 6.78842 9.60039 4.8002 9.60039ZM4.8002 21.6004C2.81197 21.6004 1.2002 19.9886 1.2002 18.0004C1.2002 16.0122 2.81197 14.4004 4.8002 14.4004C6.78842 14.4004 8.4002 16.0122 8.4002 18.0004C8.4002 19.9886 6.78842 21.6004 4.8002 21.6004Z" stroke="black" stroke-width="2" stroke-linecap="round" stroke-linejoin="round"/>
</g>
<defs>
<clipPath id="clip0_8212_7953">
<rect width="24" height="24" fill="white" transform="translate(24 1.04907e-06) rotate(90)"/>
</clipPath>
</defs>
</svg>
