<svg width="24" height="24" viewBox="0 0 24 24" fill="none" xmlns="http://www.w3.org/2000/svg">
<path d="M8.04434 9.24356L19.935 18.9424M19.935 5.79144L8.04434 15.4903M17.1953 12.3674L17.1739 12.3888M21.6004 12.3673L21.5789 12.3888M5.68813 10.1751C3.87236 10.1751 2.40039 8.70311 2.40039 6.88735C2.40039 5.07158 3.87236 3.59961 5.68813 3.59961C7.5039 3.59961 8.97587 5.07158 8.97587 6.88735C8.97587 8.70312 7.5039 10.1751 5.68813 10.1751ZM5.68813 21.1342C3.87236 21.1342 2.40039 19.6622 2.40039 17.8465C2.40039 16.0307 3.87236 14.5587 5.68813 14.5587C7.5039 14.5587 8.97587 16.0307 8.97587 17.8465C8.97587 19.6622 7.5039 21.1342 5.68813 21.1342Z" stroke="black" stroke-width="2" stroke-linecap="round" stroke-linejoin="round"/>
</svg>
