<svg width="24" height="24" viewBox="0 0 24 24" fill="none" xmlns="http://www.w3.org/2000/svg">
<path d="M8.40039 11.8297H10.5164M4.80039 21.5999C3.47491 21.5999 2.40039 20.5254 2.40039 19.1999V4.7999C2.40039 3.47442 3.47491 2.3999 4.80039 2.3999H19.2004C20.5259 2.3999 21.6004 3.47442 21.6004 4.7999V19.1999C21.6004 20.5254 20.5259 21.5999 19.2004 21.5999H4.80039ZM8.40039 15.2415V8.2593C8.40039 7.47092 9.23166 6.95948 9.93538 7.3149L16.2193 10.4886C16.9609 10.8632 17.0013 11.9072 16.2907 12.3378L10.0068 16.1463C9.30168 16.5736 8.40039 16.066 8.40039 15.2415Z" stroke="black" stroke-width="2" stroke-linecap="round"/>
</svg>
