<svg width="24" height="24" viewBox="0 0 24 24" fill="none" xmlns="http://www.w3.org/2000/svg">
<path d="M2.40039 18.1999C1.84811 18.1999 1.40039 18.6476 1.40039 19.1999C1.40039 19.7522 1.84811 20.1999 2.40039 20.1999V19.1999V18.1999ZM21.6004 20.1999C22.1527 20.1999 22.6004 19.7522 22.6004 19.1999C22.6004 18.6476 22.1527 18.1999 21.6004 18.1999V19.1999V20.1999ZM21.6004 5.9999H20.6004C20.6004 6.10828 20.5454 6.33124 20.1826 6.65292C19.8209 6.97358 19.2405 7.30802 18.4375 7.60916C16.8388 8.20866 14.5632 8.5999 12.0004 8.5999V9.5999V10.5999C14.7395 10.5999 17.2639 10.1853 19.1397 9.48181C20.074 9.13148 20.8995 8.69019 21.5094 8.14944C22.1181 7.60973 22.6004 6.88564 22.6004 5.9999H21.6004ZM12.0004 9.5999V8.5999C9.43759 8.5999 7.16196 8.20866 5.56329 7.60916C4.76026 7.30802 4.17988 6.97358 3.81821 6.65292C3.45538 6.33124 3.40039 6.10828 3.40039 5.9999H2.40039H1.40039C1.40039 6.88564 1.88265 7.60973 2.4914 8.14944C3.10131 8.69019 3.92681 9.13148 4.86104 9.48181C6.73689 10.1853 9.26126 10.5999 12.0004 10.5999V9.5999ZM2.40039 5.9999H3.40039C3.40039 5.89153 3.45538 5.66856 3.81821 5.34688C4.17988 5.02623 4.76026 4.69178 5.56329 4.39065C7.16196 3.79115 9.43759 3.3999 12.0004 3.3999V2.3999V1.3999C9.26126 1.3999 6.73689 1.81455 4.86104 2.51799C3.92681 2.86833 3.10131 3.30962 2.4914 3.85036C1.88265 4.39007 1.40039 5.11417 1.40039 5.9999H2.40039ZM12.0004 2.3999V3.3999C14.5632 3.3999 16.8388 3.79115 18.4375 4.39065C19.2405 4.69178 19.8209 5.02623 20.1826 5.34688C20.5454 5.66856 20.6004 5.89153 20.6004 5.9999H21.6004H22.6004C22.6004 5.11417 22.1181 4.39007 21.5094 3.85036C20.8995 3.30962 20.074 2.86833 19.1397 2.51799C17.2639 1.81455 14.7395 1.3999 12.0004 1.3999V2.3999ZM21.6004 10.7999H20.6004C20.6004 10.9083 20.5454 11.1312 20.1826 11.4529C19.8209 11.7736 19.2405 12.108 18.4375 12.4092C16.8388 13.0087 14.5632 13.3999 12.0004 13.3999V14.3999V15.3999C14.7395 15.3999 17.2639 14.9853 19.1397 14.2818C20.074 13.9315 20.8995 13.4902 21.5094 12.9494C22.1181 12.4097 22.6004 11.6856 22.6004 10.7999H21.6004ZM12.0004 14.3999V13.3999C9.43759 13.3999 7.16196 13.0087 5.56329 12.4092C4.76026 12.108 4.17988 11.7736 3.81821 11.4529C3.45538 11.1312 3.40039 10.9083 3.40039 10.7999H2.40039H1.40039C1.40039 11.6856 1.88265 12.4097 2.4914 12.9494C3.10131 13.4902 3.92681 13.9315 4.86104 14.2818C6.73689 14.9853 9.26126 15.3999 12.0004 15.3999V14.3999ZM2.40039 10.7999H3.40039V5.9999H2.40039H1.40039V10.7999H2.40039ZM21.6004 10.7999H22.6004V5.9999H21.6004H20.6004V10.7999H21.6004ZM14.4004 19.1999H13.4004C13.4004 19.9731 12.7736 20.5999 12.0004 20.5999V21.5999V22.5999C13.8782 22.5999 15.4004 21.0777 15.4004 19.1999H14.4004ZM12.0004 21.5999V20.5999C11.2272 20.5999 10.6004 19.9731 10.6004 19.1999H9.60039H8.60039C8.60039 21.0777 10.1226 22.5999 12.0004 22.5999V21.5999ZM9.60039 19.1999H10.6004C10.6004 18.4267 11.2272 17.7999 12.0004 17.7999V16.7999V15.7999C10.1226 15.7999 8.60039 17.3221 8.60039 19.1999H9.60039ZM12.0004 16.7999V17.7999C12.7736 17.7999 13.4004 18.4267 13.4004 19.1999H14.4004H15.4004C15.4004 17.3221 13.8782 15.7999 12.0004 15.7999V16.7999ZM2.40039 19.1999V20.1999H9.60039V19.1999V18.1999H2.40039V19.1999ZM14.4004 19.1999V20.1999H21.6004V19.1999V18.1999H14.4004V19.1999ZM12.0004 14.3999H11.0004V16.7999H12.0004H13.0004V14.3999H12.0004Z" fill="black"/>
</svg>
