<svg width="24" height="24" viewBox="0 0 24 24" fill="none" xmlns="http://www.w3.org/2000/svg">
<path d="M16.8005 11.9999H7.20039M16.8005 11.9999C19.4515 11.9999 21.6005 9.85087 21.6005 7.1999C21.6005 4.54894 19.4515 2.3999 16.8005 2.3999H7.20039C4.54936 2.3999 2.4003 4.54903 2.40039 7.20006C2.40048 9.85096 4.54948 11.9999 7.20039 11.9999M16.8005 11.9999C19.4515 11.9999 21.6005 14.1489 21.6005 16.7999C21.6005 19.4509 19.4515 21.5999 16.8005 21.5999H7.20039C4.54948 21.5999 2.40048 19.451 2.40039 16.8001C2.4003 14.149 4.54936 11.9999 7.20039 11.9999M17.4002 7.1999H11.4002M17.4002 16.7999H11.4002M6.60024 16.8901V16.7999M6.60024 7.1999V7.10967" stroke="black" stroke-width="2" stroke-linecap="round" stroke-linejoin="round"/>
</svg>
