<svg width="24" height="24" viewBox="0 0 24 24" fill="none" xmlns="http://www.w3.org/2000/svg">
<path d="M18.0004 7.7998C18.0004 11.1135 15.3141 13.7998 12.0004 13.7998M18.0004 7.7998C18.0004 4.4861 15.3141 1.7998 12.0004 1.7998M18.0004 7.7998H6.00039M12.0004 13.7998C8.68668 13.7998 6.00039 11.1135 6.00039 7.7998M12.0004 13.7998C13.3259 13.7998 14.4004 11.1135 14.4004 7.7998C14.4004 4.4861 13.3259 1.7998 12.0004 1.7998M12.0004 13.7998C10.6749 13.7998 9.60039 11.1135 9.60039 7.7998C9.60039 4.4861 10.6749 1.7998 12.0004 1.7998M6.00039 7.7998C6.00039 4.4861 8.68668 1.7998 12.0004 1.7998M14.4004 19.7998C14.4004 21.1253 13.3259 22.1998 12.0004 22.1998C10.6749 22.1998 9.60039 21.1253 9.60039 19.7998M14.4004 19.7998C14.4004 18.4743 13.3259 17.3998 12.0004 17.3998C10.6749 17.3998 9.60039 18.4743 9.60039 19.7998M14.4004 19.7998H21.6004M9.60039 19.7998H2.40039" stroke="black" stroke-width="2" stroke-linecap="round" stroke-linejoin="round"/>
</svg>
