<svg width="24" height="24" viewBox="0 0 24 24" fill="none" xmlns="http://www.w3.org/2000/svg">
<path d="M9.12039 9.1199V8.1199C8.5681 8.1199 8.12039 8.56762 8.12039 9.1199H9.12039ZM9.21601 9.1199H10.216C10.216 8.56762 9.7683 8.1199 9.21601 8.1199V9.1199ZM14.8804 9.1199V8.1199C14.3281 8.1199 13.8804 8.56762 13.8804 9.1199H14.8804ZM14.9654 9.1199H15.9654C15.9654 8.56762 15.5177 8.1199 14.9654 8.1199V9.1199ZM9.21601 9.19678V10.1968C9.7683 10.1968 10.216 9.74906 10.216 9.19678H9.21601ZM9.12039 9.19678H8.12039C8.12039 9.74906 8.5681 10.1968 9.12039 10.1968V9.19678ZM14.9654 9.19678V10.1968C15.5177 10.1968 15.9654 9.74906 15.9654 9.19678H14.9654ZM14.8804 9.19678H13.8804C13.8804 9.74906 14.3281 10.1968 14.8804 10.1968V9.19678ZM12.0003 14.4037V13.4037V14.4037ZM14.4781 16.8108C14.7688 17.2804 15.3851 17.4255 15.8547 17.1348C16.3243 16.8441 16.4693 16.2278 16.1786 15.7582L15.3284 16.2845L14.4781 16.8108ZM7.82198 15.7582C7.5313 16.2278 7.67634 16.8441 8.14594 17.1348C8.61553 17.4255 9.23186 17.2804 9.52255 16.8108L8.67226 16.2845L7.82198 15.7582ZM21.6004 11.9999H20.6004C20.6004 16.7495 16.75 20.5999 12.0004 20.5999V21.5999V22.5999C17.8546 22.5999 22.6004 17.8541 22.6004 11.9999H21.6004ZM12.0004 21.5999V20.5999C7.25074 20.5999 3.40039 16.7495 3.40039 11.9999H2.40039H1.40039C1.40039 17.8541 6.14617 22.5999 12.0004 22.5999V21.5999ZM2.40039 11.9999H3.40039C3.40039 7.25025 7.25074 3.3999 12.0004 3.3999V2.3999V1.3999C6.14617 1.3999 1.40039 6.14568 1.40039 11.9999H2.40039ZM12.0004 2.3999V3.3999C16.75 3.3999 20.6004 7.25025 20.6004 11.9999H21.6004H22.6004C22.6004 6.14568 17.8546 1.3999 12.0004 1.3999V2.3999ZM9.12039 9.1199V10.1199H9.21601V9.1199V8.1199H9.12039V9.1199ZM14.8804 9.1199V10.1199H14.9654V9.1199V8.1199H14.8804V9.1199ZM9.21601 9.1199H8.21601V9.19678H9.21601H10.216V9.1199H9.21601ZM9.21601 9.19678V8.19678H9.12039V9.19678V10.1968H9.21601V9.19678ZM9.12039 9.19678H10.1204V9.1199H9.12039H8.12039V9.19678H9.12039ZM14.9654 9.1199H13.9654V9.19678H14.9654H15.9654V9.1199H14.9654ZM14.9654 9.19678V8.19678H14.8804V9.19678V10.1968H14.9654V9.19678ZM14.8804 9.19678H15.8804V9.1199H14.8804H13.8804V9.19678H14.8804ZM12.0003 14.4037V15.4037C13.0301 15.4037 13.948 15.9544 14.4781 16.8108L15.3284 16.2845L16.1786 15.7582C15.3089 14.3531 13.7688 13.4037 12.0003 13.4037V14.4037ZM8.67226 16.2845L9.52255 16.8108C10.0527 15.9544 10.9705 15.4037 12.0003 15.4037V14.4037V13.4037C10.2318 13.4037 8.69174 14.3531 7.82198 15.7582L8.67226 16.2845Z" fill="black"/>
</svg>
