<svg width="24" height="24" viewBox="0 0 24 24" fill="none" xmlns="http://www.w3.org/2000/svg">
<path d="M9.12039 9.1199V8.1199C8.5681 8.1199 8.12039 8.56762 8.12039 9.1199H9.12039ZM9.21601 9.1199H10.216C10.216 8.56762 9.7683 8.1199 9.21601 8.1199V9.1199ZM14.8804 9.1199V8.1199C14.3281 8.1199 13.8804 8.56762 13.8804 9.1199H14.8804ZM14.9654 9.1199H15.9654C15.9654 8.56762 15.5177 8.1199 14.9654 8.1199V9.1199ZM9.21601 9.19678V10.1968C9.7683 10.1968 10.216 9.74906 10.216 9.19678H9.21601ZM9.12039 9.19678H8.12039C8.12039 9.74906 8.5681 10.1968 9.12039 10.1968V9.19678ZM14.9654 9.19678V10.1968C15.5177 10.1968 15.9654 9.74906 15.9654 9.19678H14.9654ZM14.8804 9.19678H13.8804C13.8804 9.74906 14.3281 10.1968 14.8804 10.1968V9.19678ZM9.52262 14.3927C9.23194 13.9231 8.61561 13.7781 8.14601 14.0688C7.67642 14.3595 7.53138 14.9758 7.82206 15.4454L8.67234 14.9191L9.52262 14.3927ZM16.1787 15.4454C16.4694 14.9758 16.3244 14.3595 15.8548 14.0688C15.3852 13.7781 14.7688 13.9231 14.4782 14.3927L15.3284 14.9191L16.1787 15.4454ZM21.6004 11.9999H20.6004C20.6004 16.7495 16.75 20.5999 12.0004 20.5999V21.5999V22.5999C17.8546 22.5999 22.6004 17.8541 22.6004 11.9999H21.6004ZM12.0004 21.5999V20.5999C7.25074 20.5999 3.40039 16.7495 3.40039 11.9999H2.40039H1.40039C1.40039 17.8541 6.14617 22.5999 12.0004 22.5999V21.5999ZM2.40039 11.9999H3.40039C3.40039 7.25025 7.25074 3.3999 12.0004 3.3999V2.3999V1.3999C6.14617 1.3999 1.40039 6.14568 1.40039 11.9999H2.40039ZM12.0004 2.3999V3.3999C16.75 3.3999 20.6004 7.25025 20.6004 11.9999H21.6004H22.6004C22.6004 6.14568 17.8546 1.3999 12.0004 1.3999V2.3999ZM9.12039 9.1199V10.1199H9.21601V9.1199V8.1199H9.12039V9.1199ZM14.8804 9.1199V10.1199H14.9654V9.1199V8.1199H14.8804V9.1199ZM9.21601 9.1199H8.21601V9.19678H9.21601H10.216V9.1199H9.21601ZM9.21601 9.19678V8.19678H9.12039V9.19678V10.1968H9.21601V9.19678ZM9.12039 9.19678H10.1204V9.1199H9.12039H8.12039V9.19678H9.12039ZM14.9654 9.1199H13.9654V9.19678H14.9654H15.9654V9.1199H14.9654ZM14.9654 9.19678V8.19678H14.8804V9.19678V10.1968H14.9654V9.19678ZM14.8804 9.19678H15.8804V9.1199H14.8804H13.8804V9.19678H14.8804ZM12.0004 16.7998V15.7998C10.9706 15.7998 10.0527 15.2491 9.52262 14.3927L8.67234 14.9191L7.82206 15.4454C8.69181 16.8505 10.2319 17.7998 12.0004 17.7998V16.7998ZM15.3284 14.9191L14.4782 14.3927C13.948 15.2491 13.0302 15.7998 12.0004 15.7998V16.7998V17.7998C13.7689 17.7998 15.309 16.8505 16.1787 15.4454L15.3284 14.9191Z" fill="black"/>
</svg>
