<svg width="24" height="24" viewBox="0 0 24 24" fill="none" xmlns="http://www.w3.org/2000/svg">
<path d="M8.8118 21.2447L11.9996 18.0568M11.9996 18.0568L15.1874 21.2447M11.9996 18.0568V5.94318M15.1874 2.75537L11.9996 5.94318M11.9996 5.94318L8.8118 2.75537M2.40039 13.8616L6.75502 15.0285M6.75502 15.0285L5.5882 19.3831M6.75502 15.0285L17.2458 8.97163M21.6004 10.1384L17.2458 8.97163M17.2458 8.97163L18.4126 4.617M5.5882 4.617L6.75502 8.97163M6.75502 8.97163L2.40039 10.1384M6.75502 8.97163L17.2458 15.0285M18.4126 19.3831L17.2458 15.0285M17.2458 15.0285L21.6004 13.8616" stroke="black" stroke-width="2" stroke-linecap="round" stroke-linejoin="round"/>
</svg>
