<svg width="24" height="24" viewBox="0 0 24 24" fill="none" xmlns="http://www.w3.org/2000/svg">
<path d="M10.8914 3.17251C11.2723 2.14302 12.7284 2.14302 13.1094 3.17251L15.0055 8.29665C15.1253 8.62032 15.3805 8.87552 15.7041 8.99529L20.8283 10.8914C21.8578 11.2723 21.8578 12.7284 20.8283 13.1094L15.7041 15.0055C15.3805 15.1253 15.1253 15.3805 15.0055 15.7041L13.1094 20.8283C12.7284 21.8578 11.2723 21.8578 10.8914 20.8283L8.99529 15.7041C8.87552 15.3805 8.62032 15.1253 8.29665 15.0055L3.17251 13.1094C2.14302 12.7284 2.14302 11.2723 3.17251 10.8914L8.29665 8.99529C8.62032 8.87552 8.87552 8.62032 8.99529 8.29665L10.8914 3.17251Z" stroke="black" stroke-width="2" stroke-linejoin="round"/>
</svg>
