<svg width="24" height="24" viewBox="0 0 24 24" fill="none" xmlns="http://www.w3.org/2000/svg">
<path d="M2.40039 3.68696L21.0004 22.287M18.2613 6.85217L20.3482 4.76522M20.3482 4.76522L19.096 3.51304M20.3482 4.76522L21.6004 6.01739M9.50039 2H14.5004M5.42209 8C4.22108 9.47819 3.50039 11.3685 3.50039 13.4286C3.50039 18.1624 7.30597 22 12.0004 22C14.0979 22 16.0179 21.2339 17.5004 19.964M20.0004 16.3319C20.324 15.4252 20.5004 14.4477 20.5004 13.4286C20.5004 8.6947 16.6948 4.85714 12.0004 4.85714C10.9443 4.85714 9.93327 5.05135 9.00039 5.40627" stroke="black" stroke-width="2" stroke-linecap="round" stroke-linejoin="round"/>
</svg>
