<svg width="24" height="24" viewBox="0 0 24 24" fill="none" xmlns="http://www.w3.org/2000/svg">
<path d="M18.8571 20.2C19.4094 20.2 19.8571 19.7523 19.8571 19.2C19.8571 18.6478 19.4094 18.2 18.8571 18.2V19.2V20.2ZM5.14318 18.2C4.5909 18.2 4.14318 18.6478 4.14318 19.2C4.14318 19.7523 4.5909 20.2 5.14318 20.2V19.2V18.2ZM2.40039 13.9018C1.84811 13.9018 1.40039 14.3495 1.40039 14.9018C1.40039 15.4541 1.84811 15.9018 2.40039 15.9018V14.9018V13.9018ZM21.5999 15.9018C22.1522 15.9018 22.5999 15.4541 22.5999 14.9018C22.5999 14.3495 22.1522 13.9018 21.5999 13.9018V14.9018V15.9018ZM4.24563 12.0482C4.70516 12.3546 5.32603 12.2304 5.63238 11.7709C5.93873 11.3113 5.81456 10.6905 5.35503 10.3841L4.80033 11.2162L4.24563 12.0482ZM3.29794 9.01271C2.83841 8.70636 2.21754 8.83054 1.91119 9.29006C1.60484 9.74959 1.72901 10.3705 2.18854 10.6768L2.74324 9.84476L3.29794 9.01271ZM8.10382 7.45949C8.34861 7.95456 8.94838 8.15746 9.44346 7.91267C9.93853 7.66788 10.1414 7.06811 9.89664 6.57304L9.00023 7.01626L8.10382 7.45949ZM8.80084 4.35683C8.55606 3.86175 7.95628 3.65886 7.46121 3.90364C6.96613 4.14843 6.76324 4.74821 7.00802 5.24328L7.90443 4.80005L8.80084 4.35683ZM13.7911 6.3022C13.4848 6.76173 13.6089 7.3826 14.0685 7.68895C14.528 7.9953 15.1489 7.87113 15.4552 7.4116L14.6232 6.8569L13.7911 6.3022ZM16.8266 5.3545C17.133 4.89498 17.0088 4.27411 16.5493 3.96775C16.0897 3.6614 15.4689 3.78558 15.1625 4.2451L15.9946 4.7998L16.8266 5.3545ZM21.8026 10.7412C22.2976 10.4964 22.5005 9.89661 22.2558 9.40154C22.011 8.90646 21.4112 8.70357 20.9161 8.94835L21.3593 9.84476L21.8026 10.7412ZM18.6999 10.0442C18.2048 10.2889 18.0019 10.8887 18.2467 11.3838C18.4915 11.8789 19.0913 12.0818 19.5864 11.837L19.1431 10.9406L18.6999 10.0442ZM18.8571 19.2V18.2H5.14318V19.2V20.2H18.8571V19.2ZM2.40039 14.9018V15.9018H21.5999V14.9018V13.9018H2.40039V14.9018ZM7.20027 14.9018H8.20027C8.20027 12.8032 9.90154 11.1019 12.0002 11.1019V10.1019V9.1019C8.79697 9.1019 6.20027 11.6986 6.20027 14.9018H7.20027ZM12.0002 10.1019V11.1019C14.0988 11.1019 15.8 12.8032 15.8 14.9018H16.8H17.8C17.8 11.6986 15.2033 9.1019 12.0002 9.1019V10.1019ZM4.80033 11.2162L5.35503 10.3841L3.29794 9.01271L2.74324 9.84476L2.18854 10.6768L4.24563 12.0482L4.80033 11.2162ZM9.00023 7.01626L9.89664 6.57304L8.80084 4.35683L7.90443 4.80005L7.00802 5.24328L8.10382 7.45949L9.00023 7.01626ZM14.6232 6.8569L15.4552 7.4116L16.8266 5.3545L15.9946 4.7998L15.1625 4.2451L13.7911 6.3022L14.6232 6.8569ZM21.3593 9.84476L20.9161 8.94835L18.6999 10.0442L19.1431 10.9406L19.5864 11.837L21.8026 10.7412L21.3593 9.84476Z" fill="black"/>
</svg>
