<svg width="24" height="15" viewBox="0 0 24 15" fill="none" xmlns="http://www.w3.org/2000/svg">
<path d="M5.01731 2.0909V3.68181H0.000266343V2.0909H5.01731ZM1.2389 -5.72205e-06H3.29572V8.19318C3.29572 8.46969 3.33739 8.68181 3.42072 8.82954C3.50784 8.97348 3.62148 9.07196 3.76163 9.12499C3.90178 9.17802 4.05708 9.20454 4.22754 9.20454C4.35633 9.20454 4.47375 9.19507 4.57981 9.17613C4.68966 9.15719 4.77299 9.14015 4.82981 9.12499L5.1764 10.7329C5.06655 10.7708 4.90936 10.8125 4.70481 10.8579C4.50405 10.9034 4.25784 10.9299 3.96618 10.9375C3.45102 10.9526 2.98701 10.875 2.57413 10.7045C2.16125 10.5303 1.8336 10.2614 1.59118 9.89772C1.35254 9.53409 1.23511 9.07954 1.2389 8.53409V-5.72205e-06ZM9.06885 10.9943C8.51582 10.9943 8.01771 10.8958 7.57453 10.6989C7.13513 10.4981 6.78665 10.2026 6.52907 9.81249C6.27529 9.42234 6.14839 8.94128 6.14839 8.36931C6.14839 7.87689 6.2393 7.46969 6.42112 7.14772C6.60294 6.82575 6.85104 6.56818 7.16544 6.37499C7.47983 6.18181 7.834 6.03598 8.22794 5.93749C8.62566 5.83522 9.03665 5.76136 9.46089 5.7159C9.97226 5.66287 10.387 5.61552 10.7052 5.57386C11.0234 5.5284 11.2545 5.46022 11.3984 5.36931C11.5461 5.27462 11.62 5.12878 11.62 4.93181V4.89772C11.62 4.46969 11.4931 4.13825 11.2393 3.9034C10.9855 3.66855 10.62 3.55113 10.1427 3.55113C9.63892 3.55113 9.2393 3.66098 8.94385 3.88068C8.65218 4.10037 8.45521 4.35984 8.35294 4.65909L6.43248 4.38636C6.584 3.85605 6.834 3.41287 7.18248 3.05681C7.53097 2.69696 7.9571 2.42802 8.46089 2.24999C8.96468 2.06818 9.5215 1.97727 10.1313 1.97727C10.5518 1.97727 10.9704 2.02651 11.387 2.12499C11.8037 2.22348 12.1844 2.38636 12.5291 2.61363C12.8738 2.83712 13.1503 3.14204 13.3586 3.5284C13.5707 3.91477 13.6768 4.39772 13.6768 4.97727V10.8182H11.6995V9.61931H11.6313C11.5063 9.86174 11.3302 10.089 11.1029 10.3011C10.8795 10.5095 10.5973 10.678 10.2563 10.8068C9.91922 10.9318 9.52339 10.9943 9.06885 10.9943ZM9.60294 9.48295C10.0158 9.48295 10.3738 9.40151 10.6768 9.23863C10.9798 9.07196 11.2128 8.85227 11.3757 8.57954C11.5423 8.30681 11.6257 8.00946 11.6257 7.68749V6.65909C11.5613 6.71212 11.4514 6.76136 11.2961 6.80681C11.1446 6.85227 10.9741 6.89204 10.7848 6.92613C10.5954 6.96022 10.4079 6.99052 10.2223 7.01704C10.0366 7.04355 9.87566 7.06628 9.7393 7.08522C9.43248 7.12689 9.15786 7.19507 8.91544 7.28977C8.67301 7.38446 8.48172 7.51704 8.34157 7.68749C8.20142 7.85416 8.13135 8.07007 8.13135 8.33522C8.13135 8.71401 8.2696 8.99999 8.54612 9.19318C8.82263 9.38636 9.17491 9.48295 9.60294 9.48295ZM19.3604 14.2727C18.6218 14.2727 17.9873 14.1723 17.457 13.9716C16.9267 13.7746 16.5006 13.5095 16.1786 13.1761C15.8566 12.8428 15.6332 12.4735 15.5082 12.0682L17.3604 11.6193C17.4438 11.7898 17.565 11.9583 17.7241 12.125C17.8832 12.2954 18.0972 12.4356 18.3661 12.5454C18.6388 12.6591 18.9816 12.7159 19.3945 12.7159C19.9779 12.7159 20.4608 12.5739 20.8434 12.2898C21.226 12.0095 21.4173 11.5473 21.4173 10.9034V9.24999H21.315C21.2089 9.46212 21.0536 9.67992 20.8491 9.9034C20.6483 10.1269 20.3813 10.3144 20.0479 10.4659C19.7184 10.6174 19.3036 10.6932 18.8036 10.6932C18.1332 10.6932 17.5252 10.536 16.9798 10.2216C16.4381 9.9034 16.0063 9.42992 15.6843 8.80113C15.3661 8.16855 15.207 7.37689 15.207 6.42613C15.207 5.4678 15.3661 4.65909 15.6843 3.99999C16.0063 3.33712 16.44 2.83522 16.9854 2.49431C17.5309 2.14962 18.1388 1.97727 18.8093 1.97727C19.3207 1.97727 19.7411 2.06439 20.0707 2.23863C20.404 2.40908 20.6691 2.61552 20.8661 2.85795C21.0631 3.09659 21.2127 3.32196 21.315 3.53409H21.4286V2.0909H23.457V10.9602C23.457 11.7064 23.279 12.3239 22.9229 12.8125C22.5669 13.3011 22.0801 13.6667 21.4627 13.9091C20.8453 14.1515 20.1445 14.2727 19.3604 14.2727ZM19.3775 9.07954C19.8131 9.07954 20.1843 8.97348 20.4911 8.76136C20.7979 8.54924 21.0309 8.24431 21.19 7.84659C21.3491 7.44886 21.4286 6.97159 21.4286 6.41477C21.4286 5.86552 21.3491 5.38446 21.19 4.97159C21.0347 4.55871 20.8036 4.23863 20.4968 4.01136C20.1938 3.7803 19.8207 3.66477 19.3775 3.66477C18.9191 3.66477 18.5366 3.78408 18.2298 4.02272C17.9229 4.26136 17.6919 4.58901 17.5366 5.00568C17.3813 5.41855 17.3036 5.88825 17.3036 6.41477C17.3036 6.94886 17.3813 7.41666 17.5366 7.81818C17.6957 8.2159 17.9286 8.52651 18.2354 8.74999C18.546 8.96969 18.9267 9.07954 19.3775 9.07954Z" fill="black"/>
</svg>
