<svg width="24" height="24" viewBox="0 0 24 24" fill="none" xmlns="http://www.w3.org/2000/svg">
<path d="M5.14325 17.0288H4.22896C3.21907 17.0288 2.40039 16.2101 2.40039 15.2002V6.97164C2.40039 5.96175 3.21907 5.14307 4.22896 5.14307H12.4575C13.4674 5.14307 14.2861 5.96175 14.2861 6.97164V15.2002C14.2861 16.2101 13.4674 17.0288 12.4575 17.0288H11.5432M15.6575 17.0288H15.2004C14.6954 17.0288 14.2861 16.6194 14.2861 16.1145V8.34307C14.2861 7.83812 14.6954 7.42878 15.2004 7.42878H17.5038C17.7816 7.42878 18.0442 7.55503 18.2178 7.77192L21.4 11.7498C21.5297 11.9119 21.6004 12.1133 21.6004 12.3209V16.1145C21.6004 16.6194 21.191 17.0288 20.6861 17.0288M10.629 16.5716C10.629 17.834 9.60561 18.8574 8.34325 18.8574C7.08088 18.8574 6.05753 17.834 6.05753 16.5716C6.05753 15.3093 7.08088 14.2859 8.34325 14.2859C9.60561 14.2859 10.629 15.3093 10.629 16.5716ZM20.229 16.5716C20.229 17.834 19.2056 18.8574 17.9432 18.8574C16.6809 18.8574 15.6575 17.834 15.6575 16.5716C15.6575 15.3093 16.6809 14.2859 17.9432 14.2859C19.2056 14.2859 20.229 15.3093 20.229 16.5716Z" stroke="black" stroke-width="2" stroke-linecap="round"/>
</svg>
