<svg width="24" height="24" viewBox="0 0 24 24" fill="none" xmlns="http://www.w3.org/2000/svg">
<path d="M10.2093 16.2004H12.1245M12.1245 16.2004H14.1285M12.1245 16.2004V7.80039M12.1245 7.80039H9.00039C8.66902 7.80039 8.40039 8.06902 8.40039 8.40039V9.28274M12.1245 7.80039H15.0004C15.3318 7.80039 15.6004 8.06902 15.6004 8.40039V9.5298M4.80039 21.6004H19.2004C20.5259 21.6004 21.6004 20.5259 21.6004 19.2004V4.80039C21.6004 3.47491 20.5259 2.40039 19.2004 2.40039H4.80039C3.47491 2.40039 2.40039 3.47491 2.40039 4.80039V19.2004C2.40039 20.5259 3.47491 21.6004 4.80039 21.6004Z" stroke="black" stroke-width="2" stroke-linecap="round" stroke-linejoin="round"/>
</svg>
