<svg width="24" height="24" viewBox="0 0 24 24" fill="none" xmlns="http://www.w3.org/2000/svg">
<path d="M19.2004 13.6855C20.4677 14.6324 21.6004 17.0165 21.6004 18.4855C21.6004 18.9431 21.2665 19.3141 20.8546 19.3141H20.4004M15.6004 9.80432C16.4202 9.33006 16.9718 8.44365 16.9718 7.4284C16.9718 6.41316 16.4202 5.52675 15.6004 5.05249M3.14616 19.3141H16.2832C16.6951 19.3141 17.029 18.9431 17.029 18.4855C17.029 15.6089 14.6257 13.2769 9.71468 13.2769C4.80366 13.2769 2.40039 15.6089 2.40039 18.4855C2.40039 18.9431 2.73428 19.3141 3.14616 19.3141ZM12.4575 7.4284C12.4575 8.94324 11.2295 10.1713 9.71468 10.1713C8.19984 10.1713 6.97182 8.94324 6.97182 7.4284C6.97182 5.91357 8.19984 4.68555 9.71468 4.68555C11.2295 4.68555 12.4575 5.91357 12.4575 7.4284Z" stroke="black" stroke-width="2" stroke-linecap="round"/>
</svg>
