<svg width="24" height="24" viewBox="0 0 24 24" fill="none" xmlns="http://www.w3.org/2000/svg">
<path d="M2.40039 21.5999L2.4008 17.9995C2.40102 16.0114 4.01273 14.3999 6.00079 14.3999H12.0004M19.029 13.4999L21.6004 15.8999M21.6004 15.8999L19.029 18.2999M21.6004 15.8999H15.0004M17.4004 2.3999C18.8566 3.21618 19.8004 4.52478 19.8004 5.9999C19.8004 7.47502 18.8566 8.78362 17.4004 9.5999M14.4004 5.9999C14.4004 7.98813 12.7886 9.5999 10.8004 9.5999C8.81216 9.5999 7.20039 7.98813 7.20039 5.9999C7.20039 4.01168 8.81216 2.3999 10.8004 2.3999C12.7886 2.3999 14.4004 4.01168 14.4004 5.9999Z" stroke="black" stroke-width="2" stroke-linecap="round" stroke-linejoin="round"/>
</svg>
