<svg width="24" height="24" viewBox="0 0 24 24" fill="none" xmlns="http://www.w3.org/2000/svg">
<path d="M1.40039 21.5998C1.40033 22.1521 1.84799 22.5998 2.40028 22.5999C2.95256 22.6 3.40033 22.1523 3.40039 21.6L2.40039 21.5999L1.40039 21.5998ZM2.4008 17.9995L3.4008 17.9996L2.4008 17.9995ZM13.2004 15.3999C13.7527 15.3999 14.2004 14.9522 14.2004 14.3999C14.2004 13.8476 13.7527 13.3999 13.2004 13.3999V14.3999V15.3999ZM20.8933 18.107C21.2838 18.4975 21.917 18.4975 22.3075 18.107C22.698 17.7165 22.698 17.0833 22.3075 16.6928L21.6004 17.3999L20.8933 18.107ZM18.4891 12.8744C18.0986 12.4839 17.4654 12.4839 17.0749 12.8744C16.6844 13.2649 16.6844 13.8981 17.0749 14.2886L17.782 13.5815L18.4891 12.8744ZM17.075 16.6927C16.6845 17.0832 16.6845 17.7164 17.075 18.1069C17.4655 18.4974 18.0987 18.4974 18.4892 18.1069L17.7821 17.3998L17.075 16.6927ZM22.3076 14.2885C22.6981 13.898 22.6981 13.2648 22.3076 12.8743C21.9171 12.4838 21.2839 12.4838 20.8934 12.8743L21.6005 13.5814L22.3076 14.2885ZM14.4004 5.9999H13.4004C13.4004 7.43584 12.2363 8.5999 10.8004 8.5999V9.5999V10.5999C13.3409 10.5999 15.4004 8.54041 15.4004 5.9999H14.4004ZM10.8004 9.5999V8.5999C9.36445 8.5999 8.20039 7.43584 8.20039 5.9999H7.20039H6.20039C6.20039 8.54041 8.25988 10.5999 10.8004 10.5999V9.5999ZM7.20039 5.9999H8.20039C8.20039 4.56396 9.36445 3.3999 10.8004 3.3999V2.3999V1.3999C8.25988 1.3999 6.20039 3.45939 6.20039 5.9999H7.20039ZM10.8004 2.3999V3.3999C12.2363 3.3999 13.4004 4.56396 13.4004 5.9999H14.4004H15.4004C15.4004 3.45939 13.3409 1.3999 10.8004 1.3999V2.3999ZM2.40039 21.5999L3.40039 21.6L3.4008 17.9996L2.4008 17.9995L1.4008 17.9994L1.40039 21.5998L2.40039 21.5999ZM6.0008 14.3999V13.3999C3.46049 13.3999 1.40108 15.4591 1.4008 17.9994L2.4008 17.9995L3.4008 17.9996C3.40096 16.5638 4.56497 15.3999 6.0008 15.3999V14.3999ZM6.0008 14.3999V15.3999H13.2004V14.3999V13.3999H6.0008V14.3999ZM21.6004 17.3999L22.3075 16.6928L20.3983 14.7836L19.6912 15.4907L18.9841 16.1978L20.8933 18.107L21.6004 17.3999ZM19.6912 15.4907L20.3983 14.7836L18.4891 12.8744L17.782 13.5815L17.0749 14.2886L18.9841 16.1978L19.6912 15.4907ZM17.7821 17.3998L18.4892 18.1069L20.3983 16.1978L19.6912 15.4907L18.9841 14.7836L17.075 16.6927L17.7821 17.3998ZM19.6912 15.4907L20.3983 16.1978L22.3076 14.2885L21.6005 13.5814L20.8934 12.8743L18.9841 14.7836L19.6912 15.4907Z" fill="black"/>
</svg>
