<svg width="24" height="24" viewBox="0 0 24 24" fill="none" xmlns="http://www.w3.org/2000/svg">
<path d="M1.40039 21.5998C1.40033 22.1521 1.84799 22.5998 2.40028 22.5999C2.95256 22.6 3.40033 22.1523 3.40039 21.6L2.40039 21.5999L1.40039 21.5998ZM2.4008 17.9995L3.4008 17.9996L2.4008 17.9995ZM12.6004 15.3999C13.1527 15.3999 13.6004 14.9522 13.6004 14.3999C13.6004 13.8476 13.1527 13.3999 12.6004 13.3999V14.3999V15.3999ZM21.6004 16.5999C22.1527 16.5999 22.6004 16.1522 22.6004 15.5999C22.6004 15.0476 22.1527 14.5999 21.6004 14.5999V15.5999V16.5999ZM16.2004 14.5999C15.6481 14.5999 15.2004 15.0476 15.2004 15.5999C15.2004 16.1522 15.6481 16.5999 16.2004 16.5999V15.5999V14.5999ZM17.9004 18.2998C17.9004 18.852 18.3481 19.2998 18.9004 19.2998C19.4527 19.2998 19.9004 18.852 19.9004 18.2998H18.9004H17.9004ZM19.9004 12.8998C19.9004 12.3475 19.4527 11.8998 18.9004 11.8998C18.3481 11.8998 17.9004 12.3475 17.9004 12.8998H18.9004H19.9004ZM14.4004 5.9999H13.4004C13.4004 7.43584 12.2363 8.5999 10.8004 8.5999V9.5999V10.5999C13.3409 10.5999 15.4004 8.54041 15.4004 5.9999H14.4004ZM10.8004 9.5999V8.5999C9.36445 8.5999 8.20039 7.43584 8.20039 5.9999H7.20039H6.20039C6.20039 8.54041 8.25988 10.5999 10.8004 10.5999V9.5999ZM7.20039 5.9999H8.20039C8.20039 4.56396 9.36445 3.3999 10.8004 3.3999V2.3999V1.3999C8.25988 1.3999 6.20039 3.45939 6.20039 5.9999H7.20039ZM10.8004 2.3999V3.3999C12.2363 3.3999 13.4004 4.56396 13.4004 5.9999H14.4004H15.4004C15.4004 3.45939 13.3409 1.3999 10.8004 1.3999V2.3999ZM2.40039 21.5999L3.40039 21.6L3.4008 17.9996L2.4008 17.9995L1.4008 17.9994L1.40039 21.5998L2.40039 21.5999ZM6.00079 14.3999V13.3999C3.46049 13.3999 1.40108 15.4591 1.4008 17.9994L2.4008 17.9995L3.4008 17.9996C3.40096 16.5638 4.56497 15.3999 6.00079 15.3999V14.3999ZM6.00079 14.3999V15.3999H12.6004V14.3999V13.3999H6.00079V14.3999ZM21.6004 15.5999V14.5999H18.9004V15.5999V16.5999H21.6004V15.5999ZM18.9004 15.5999V14.5999H16.2004V15.5999V16.5999H18.9004V15.5999ZM18.9004 18.2998H19.9004V15.5999H18.9004H17.9004V18.2998H18.9004ZM18.9004 15.5999H19.9004V12.8998H18.9004H17.9004V15.5999H18.9004Z" fill="black"/>
</svg>
