<svg width="24" height="24" viewBox="0 0 24 24" fill="none" xmlns="http://www.w3.org/2000/svg">
<path d="M21.6004 16.56V17.56C22.1527 17.56 22.6004 17.1123 22.6004 16.56H21.6004ZM21.6004 11.28H22.6004C22.6004 10.7277 22.1527 10.28 21.6004 10.28V11.28ZM7.13963 6.11884C6.67506 6.41749 6.54056 7.0362 6.83921 7.50077C7.13786 7.96534 7.75658 8.09985 8.22115 7.80119L7.68039 6.96002L7.13963 6.11884ZM14.4004 2.64001L15.1897 2.02607C14.872 1.61753 14.295 1.51896 13.8596 1.79884L14.4004 2.64001ZM16.971 7.57396C17.3101 8.0099 17.9384 8.08844 18.3743 7.74937C18.8103 7.4103 18.8888 6.78202 18.5497 6.34607L17.7604 6.96002L16.971 7.57396ZM21.6004 16.56V15.56H18.4804V16.56V17.56H21.6004V16.56ZM18.4804 11.28V12.28H21.6004V11.28V10.28H18.4804V11.28ZM21.6004 11.28H20.6004V16.56H21.6004H22.6004V11.28H21.6004ZM15.8404 13.92H16.8404C16.8404 13.0143 17.5746 12.28 18.4804 12.28V11.28V10.28C16.4701 10.28 14.8404 11.9097 14.8404 13.92H15.8404ZM18.4804 16.56V15.56C17.5746 15.56 16.8404 14.8258 16.8404 13.92H15.8404H14.8404C14.8404 15.9303 16.4701 17.56 18.4804 17.56V16.56ZM7.68039 6.96002L8.22115 7.80119L14.9411 3.48119L14.4004 2.64001L13.8596 1.79884L7.13963 6.11884L7.68039 6.96002ZM14.4004 2.64001L13.611 3.25396L16.971 7.57396L17.7604 6.96002L18.5497 6.34607L15.1897 2.02607L14.4004 2.64001ZM3.36039 6.96002V7.96002H19.6804V6.96002V5.96002H3.36039V6.96002ZM19.6804 21.36V20.36H3.36039V21.36V22.36H19.6804V21.36ZM2.40039 20.4H3.40039V7.92002H2.40039H1.40039V20.4H2.40039ZM3.36039 21.36V20.36C3.38248 20.36 3.40039 20.3779 3.40039 20.4H2.40039H1.40039C1.40039 21.4825 2.27791 22.36 3.36039 22.36V21.36ZM20.6404 20.4H19.6404C19.6404 20.3779 19.6583 20.36 19.6804 20.36V21.36V22.36C20.7629 22.36 21.6404 21.4825 21.6404 20.4H20.6404ZM19.6804 6.96002V7.96002C19.6583 7.96002 19.6404 7.94211 19.6404 7.92002H20.6404H21.6404C21.6404 6.83754 20.7629 5.96002 19.6804 5.96002V6.96002ZM3.36039 6.96002V5.96002C2.27791 5.96002 1.40039 6.83754 1.40039 7.92002H2.40039H3.40039C3.40039 7.94211 3.38248 7.96002 3.36039 7.96002V6.96002ZM20.6404 17.28H19.6404V20.4H20.6404H21.6404V17.28H20.6404ZM20.6404 7.92002H19.6404V10.44H20.6404H21.6404V7.92002H20.6404Z" fill="black"/>
</svg>
