<svg width="24" height="24" viewBox="0 0 24 24" fill="none" xmlns="http://www.w3.org/2000/svg">
<path d="M9.02146 4.7963C9.38142 3.88579 10.2434 3.24463 11.2495 3.24463C12.5792 3.24463 13.6571 4.36459 13.6571 5.74613C13.6571 7.12767 12.5792 8.24763 11.2495 8.24763H2.40039M14.0245 19.2035C14.3844 20.114 15.2464 20.7551 16.2525 20.7551C17.5822 20.7551 18.6601 19.6352 18.6601 18.2536C18.6601 16.8721 17.5822 15.7521 16.2525 15.7521H7.40339M16.784 8.54855C17.158 7.63804 18.0536 6.99688 19.0989 6.99688C20.4804 6.99688 21.6004 8.11684 21.6004 9.49838C21.6004 10.8799 20.4804 11.9999 19.0989 11.9999H4.90189" stroke="black" stroke-width="2" stroke-linecap="round" stroke-linejoin="round"/>
</svg>
