<svg width="24" height="24" viewBox="0 0 24 24" fill="none" xmlns="http://www.w3.org/2000/svg">
<path d="M7.41728 20.8185C8.6863 21.0856 10.2617 21.2438 11.9684 21.2438C13.8038 21.2438 15.4873 21.0608 16.8013 20.7562M3.8846 12.2614C5.59165 13.2409 8.57451 13.8899 11.9688 13.8899C15.3631 13.8899 18.346 13.2409 20.053 12.2614M5.40039 16.5561C6.78737 17.1639 9.21094 17.5666 11.9688 17.5666C14.7267 17.5666 17.1503 17.1639 18.5372 16.5561M21.6004 6.29295C21.6004 8.24629 17.3023 9.82979 12.0004 9.82979C6.69846 9.82979 2.40039 8.24629 2.40039 6.29295C2.40039 4.3396 6.69846 2.7561 12.0004 2.7561C17.3023 2.7561 21.6004 4.3396 21.6004 6.29295Z" stroke="black" stroke-width="2" stroke-linecap="round"/>
</svg>
