<svg width="24" height="24" viewBox="0 0 24 24" fill="none" xmlns="http://www.w3.org/2000/svg">
<path d="M20.9811 7.37503C20.9672 7.2148 20.6096 6.90708 20.4582 6.85219C20.3065 6.79697 20.1367 6.83456 20.0225 6.94809L17.7329 9.23769L14.759 6.26374L17.0944 3.93712C17.2087 3.82337 17.246 3.65413 17.1909 3.50324C17.1353 3.35205 16.7686 3.03175 16.6074 3.01787C15.1891 2.89613 13.7994 3.40061 12.7946 4.40174C11.4185 5.77278 11.0541 7.77488 11.6994 9.48143C11.6289 9.54063 11.5593 9.60336 11.4906 9.671L3.69505 16.9993C3.6923 17.002 3.68959 17.0049 3.68662 17.0075C2.76983 17.9209 2.76983 19.407 3.68662 20.3206C4.60356 21.2339 6.08439 21.2228 7.00103 20.3094C7.00499 20.3057 7.0086 20.302 7.01222 20.2979L14.3041 12.4712C14.3705 12.4047 14.4322 12.3351 14.4904 12.2637C16.2039 12.9077 18.2148 12.5455 19.5921 11.1736C20.5967 10.1724 21.1034 8.78782 20.9811 7.37503Z" stroke="black" stroke-width="2" stroke-linejoin="round"/>
</svg>
